<svg xmlns="http://www.w3.org/2000/svg" xmlns:xlink="http://www.w3.org/1999/xlink" width="125.531" height="125.531" viewBox="0 0 125.531 125.531">
  <defs>
    <filter id="Path_982547" x="0" y="0" width="125.531" height="125.531" filterUnits="userSpaceOnUse">
      <feOffset dy="3" input="SourceAlpha"/>
      <feGaussianBlur stdDeviation="3" result="blur"/>
      <feFlood flood-opacity="0.161"/>
      <feComposite operator="in" in2="blur"/>
      <feComposite in="SourceGraphic"/>
    </filter>
  </defs>
  <g id="Group_1154103" data-name="Group 1154103" transform="translate(-739.688 -5600.734)">
    <g id="Group_1154087" data-name="Group 1154087" transform="translate(413.688 79.734)">
      <g id="Group_1152576" data-name="Group 1152576" transform="translate(335 5527)">
        <g id="Group_1148633" data-name="Group 1148633">
          <g id="Group_1148525" data-name="Group 1148525" transform="translate(0)">
            <g transform="matrix(1, 0, 0, 1, -9, -6)" filter="url(#Path_982547)">
              <g id="Path_982547-2" data-name="Path 982547" transform="translate(9 6)" fill="#fff6f9">
                <path d="M 53.76562881469727 106.0312576293945 C 46.70915222167969 106.0312576293945 39.86455154418945 104.6495666503906 33.42195129394531 101.9245834350586 C 27.19836807250977 99.29222869873047 21.60872077941895 95.52347564697266 16.8082447052002 90.72301483154297 C 12.00778293609619 85.92253875732422 8.239028930664062 80.33289337158203 5.606675148010254 74.10930633544922 C 2.881690263748169 67.66670227050781 1.499998092651367 60.82210540771484 1.499998092651367 53.76562881469727 C 1.499998092651367 46.70915222167969 2.881690263748169 39.86455154418945 5.606675148010254 33.42195129394531 C 8.239028930664062 27.19836807250977 12.00778293609619 21.60872077941895 16.8082447052002 16.8082447052002 C 21.60872077941895 12.00778293609619 27.19836807250977 8.239028930664062 33.42195129394531 5.606675148010254 C 39.86455154418945 2.881690263748169 46.70915222167969 1.499998092651367 53.76562881469727 1.499998092651367 C 60.82210540771484 1.499998092651367 67.66670227050781 2.881690263748169 74.10930633544922 5.606675148010254 C 80.33289337158203 8.239028930664062 85.92253875732422 12.00778293609619 90.72301483154297 16.8082447052002 C 95.52347564697266 21.60872077941895 99.29222869873047 27.19836807250977 101.9245834350586 33.42195129394531 C 104.6495666503906 39.86455154418945 106.0312576293945 46.70915222167969 106.0312576293945 53.76562881469727 C 106.0312576293945 60.82210540771484 104.6495666503906 67.66670227050781 101.9245834350586 74.10930633544922 C 99.29222869873047 80.33289337158203 95.52347564697266 85.92253875732422 90.72301483154297 90.72301483154297 C 85.92253875732422 95.52347564697266 80.33289337158203 99.29222869873047 74.10930633544922 101.9245834350586 C 67.66670227050781 104.6495666503906 60.82210540771484 106.0312576293945 53.76562881469727 106.0312576293945 Z" stroke="none"/>
                <path d="M 53.76562881469727 2.999992370605469 C 46.91099548339844 2.999992370605469 40.26297760009766 4.341812133789062 34.00627899169922 6.988182067871094 C 27.96149444580078 9.544914245605469 22.53211212158203 13.20571136474609 17.86891174316406 17.86891174316406 C 13.20571136474609 22.53211212158203 9.544914245605469 27.96149444580078 6.988182067871094 34.00627899169922 C 4.341812133789062 40.26297760009766 2.999992370605469 46.91099548339844 2.999992370605469 53.76562881469727 C 2.999992370605469 60.62026214599609 4.341812133789062 67.26828002929688 6.988182067871094 73.52497863769531 C 9.544914245605469 79.56976318359375 13.20571136474609 84.9991455078125 17.86891174316406 89.66234588623047 C 22.53211212158203 94.32554626464844 27.96149444580078 97.98634338378906 34.00627899169922 100.5430755615234 C 40.26297760009766 103.1894454956055 46.91099548339844 104.5312652587891 53.76562881469727 104.5312652587891 C 60.62026214599609 104.5312652587891 67.26828002929688 103.1894454956055 73.52497863769531 100.5430755615234 C 79.56976318359375 97.98634338378906 84.9991455078125 94.32554626464844 89.66234588623047 89.66234588623047 C 94.32554626464844 84.9991455078125 97.98634338378906 79.56976318359375 100.5430755615234 73.52497863769531 C 103.1894454956055 67.26828002929688 104.5312652587891 60.62026214599609 104.5312652587891 53.76562881469727 C 104.5312652587891 46.91099548339844 103.1894454956055 40.26297760009766 100.5430755615234 34.00627899169922 C 97.98634338378906 27.96149444580078 94.32554626464844 22.53211212158203 89.66234588623047 17.86891174316406 C 84.9991455078125 13.20571136474609 79.56976318359375 9.544914245605469 73.52497863769531 6.988182067871094 C 67.26828002929688 4.341812133789062 60.62026214599609 2.999992370605469 53.76562881469727 2.999992370605469 M 53.76562881469727 -7.62939453125e-06 C 83.45956420898438 -7.62939453125e-06 107.5312652587891 24.07169342041016 107.5312652587891 53.76562881469727 C 107.5312652587891 83.45956420898438 83.45956420898438 107.5312652587891 53.76562881469727 107.5312652587891 C 24.07169342041016 107.5312652587891 -7.62939453125e-06 83.45956420898438 -7.62939453125e-06 53.76562881469727 C -7.62939453125e-06 24.07169342041016 24.07169342041016 -7.62939453125e-06 53.76562881469727 -7.62939453125e-06 Z" stroke="none" fill="#ffaece"/>
              </g>
            </g>
          </g>
        </g>
      </g>
      <g id="epidemic-prevention_2866229" transform="translate(355.464 5528.531)">
        <path id="Path_989012" data-name="Path 989012" d="M163.992,41.7V58.489a2.854,2.854,0,0,1-2.854,2.854,5.831,5.831,0,0,0-4.857-3.838,2.649,2.649,0,0,1-5.237,0,6.089,6.089,0,0,0-2.44.843,5.83,5.83,0,0,0-2.418,3h-.11a2.854,2.854,0,0,1-2.854-2.854V41.464a10.386,10.386,0,0,1,10.185-10.383A10.574,10.574,0,0,1,163.992,41.7Z" transform="translate(-119.375 -4.973)" fill="#ff748f"/>
        <path id="Path_989013" data-name="Path 989013" d="M26.535,83.185c-2.172.907-6.325,1.755-9.18.1a8.535,8.535,0,0,1-3.3-3.938c-1.4,2.444-3.887,3.29-6.711,3.219A9.446,9.446,0,0,1,6,82.462s.09-4.141,2.664-6.263l.032-.025c1.945-1.577,4.724-1.569,5.978-1.469,1.908-.491,4.962-.906,7.358.478C25.809,77.364,26.535,83.185,26.535,83.185Z" transform="translate(-5.002 -40.948)" fill="#5c586f"/>
        <path id="Path_989014" data-name="Path 989014" d="M29.043,120.816c-2.562,6.281-9.988,6.322-13.088,1.7-1.2-1.783-3.361-7.634-2.628-14.34v-.035c2.876,0,5.29-.717,6.712-3.22,2.176,4.733,5.83,5.625,10.865,4.364a26.024,26.024,0,0,1-1.862,11.53Z" transform="translate(-10.985 -66.519)" fill="#ffd3bc"/>
        <path id="Path_989015" data-name="Path 989015" d="M54.456,226.315v2.347a3.008,3.008,0,0,1-5.133,2.127c-1.084-1.1-.874-2.14-.874-4.474A7.4,7.4,0,0,0,54.456,226.315Z" transform="translate(-40.369 -167.699)" fill="#ffd3bc"/>
        <path id="Path_989016" data-name="Path 989016" d="M30.951,249.849a6.7,6.7,0,0,0-5.928-6.633,3,3,0,0,1-5.928,0,6.677,6.677,0,0,0-5.929,6.632Z" transform="translate(-10.975 -181.785)" fill="#78cbec"/>
        <path id="Path_989017" data-name="Path 989017" d="M322.31,226.315v2.347a3.011,3.011,0,0,0,5.133,2.127c1.073-1.086.874-2.13.874-4.474a7.4,7.4,0,0,1-6.007,0Z" transform="translate(-268.642 -167.699)" fill="#d89b80"/>
        <path id="Path_989018" data-name="Path 989018" d="M304.742,249.849a6.7,6.7,0,0,0-5.928-6.633,3,3,0,0,1-5.928,0,6.7,6.7,0,0,0-5.928,6.633Z" transform="translate(-239.176 -181.785)" fill="#efdd60"/>
        <path id="Path_989019" data-name="Path 989019" d="M304.112,79.207a26.77,26.77,0,0,1-2.1,10.184,7.366,7.366,0,0,1-12.266,2.17c-.052-.057-.1-.115-.153-.173a7.286,7.286,0,0,1-1.216-2l-.153-.381a25.384,25.384,0,0,1-1.069-3.212,1.563,1.563,0,0,1-.052-.211,34.62,34.62,0,0,1-.918-8.071c-.042-3.272-.233-8.667,4.579-10.023,3.633-1.022,8.617-1.38,11.381,1.733a7.262,7.262,0,0,1,1.594,3.3,33.782,33.782,0,0,1,.371,6.686Z" transform="translate(-238.523 -34.715)" fill="#d89b80"/>
        <path id="Path_989020" data-name="Path 989020" d="M172.744,81.644a6.514,6.514,0,0,1-12.186.336,23.141,23.141,0,0,1-1.7-11.533,7.175,7.175,0,0,0,4.694-1.35,5.378,5.378,0,0,0,1.236-1.5c1.907,4.148,5.16,5,9.6,3.857A22.972,22.972,0,0,1,172.744,81.644Z" transform="translate(-132.295 -35.414)" fill="#ffd3bc"/>
        <path id="Path_989021" data-name="Path 989021" d="M195.184,174.864c0,2.018.17,3-.754,3.926a2.649,2.649,0,0,1-3.384.349c-1.449-.95-1.169-2.449-1.169-4.275A6.56,6.56,0,0,0,195.184,174.864Z" transform="translate(-158.242 -124.815)" fill="#ffd3bc"/>
        <path id="Path_989022" data-name="Path 989022" d="M174.446,195.644a5.92,5.92,0,0,0-5.237-5.863,2.649,2.649,0,0,1-5.237,0,6.091,6.091,0,0,0-2.44.843,5.83,5.83,0,0,0-2.418,3,6.15,6.15,0,0,0-.383,2.025Z" transform="translate(-132.302 -137.248)" fill="#36d39a"/>
        <path id="Path_989023" data-name="Path 989023" d="M155.462,247.682l6.03,6.03-4.982,4.982-6.03-6.03-6.03,6.03-2.368-2.368-2.613-2.614,6.028-6.03-6.028-6.028,4.98-4.982,6.03,6.028,6.03-6.028,2.375,2.375,2.608,2.608Z" transform="translate(-116.247 -176.331)" fill="#ff748f"/>
        <path id="Path_989024" data-name="Path 989024" d="M168.539,259.568l6.03,6.03-4.982,4.982-6.03-6.03-6.03,6.03-2.368-2.368,16.8-17.279,2.608,2.608Z" transform="translate(-129.325 -188.217)" fill="#fd5f7e"/>
        <path id="Path_989025" data-name="Path 989025" d="M40.029,83.187s-5.678-1.309-8.447-4.97S26.992,79.7,24.1,77.7a17.879,17.879,0,0,1-1.912-1.529c1.945-1.577,4.724-1.569,5.978-1.469,1.908-.491,4.962-.906,7.358.478C39.3,77.365,40.029,83.187,40.029,83.187Z" transform="translate(-18.496 -40.949)" fill="#4f4c5f"/>
        <path id="Path_989026" data-name="Path 989026" d="M191.3,100.948a6.509,6.509,0,0,1-10.312,2.886,10.631,10.631,0,0,0,5.06-2.656c1.768-1.715,2.526-6.051,2.839-10a11.619,11.619,0,0,0,4.058-.418A22.972,22.972,0,0,1,191.3,100.948Z" transform="translate(-150.854 -54.717)" fill="#ffbe9c"/>
        <path id="Path_989027" data-name="Path 989027" d="M42.938,142.662c-2.562,6.281-9.988,6.322-13.088,1.7a23.542,23.542,0,0,0,7.228-1.763c2.323-1.2,3.492-6.824,4.045-10.95a14.065,14.065,0,0,0,3.677-.518A26.024,26.024,0,0,1,42.938,142.662Z" transform="translate(-24.881 -88.365)" fill="#ffbe9c"/>
        <path id="Path_989028" data-name="Path 989028" d="M391.717,101.653c-.02-.1-.042-.208-.067-.311h0C391.675,101.442,391.7,101.545,391.717,101.653Z" transform="translate(-326.435 -63.536)" fill="#c5836a"/>
        <path id="Path_989029" data-name="Path 989029" d="M322,120.713a26.777,26.777,0,0,1-2.1,10.184,7.366,7.366,0,0,1-12.265,2.17,12.927,12.927,0,0,0,7.448-3.553c3.082-3.214,3.835-9.653,4.015-12.952l.864,1.678,2.015,1.266.04-.013c0-.21,0-.418,0-.628C322.019,119.554,322.01,120.2,322,120.713Z" transform="translate(-256.406 -76.221)" fill="#c5836a"/>
        <path id="Path_989030" data-name="Path 989030" d="M304.129,77.987l-.04.013-2.015-1.266-.864-1.678-1.131-2.2a3.38,3.38,0,0,0-3.006-1.833h-3.92a3.378,3.378,0,0,0-3.147,2.148l-1.152,2.941-2.668,1.4c-.042-3.272-.235-8.667,4.579-10.023,3.633-1.022,8.617-1.38,11.381,1.733a7.2,7.2,0,0,1,1.59,3.3c.025.1.047.206.067.311a28.13,28.13,0,0,1,.321,4.318c0,.07,0,.14,0,.208C304.129,77.569,304.129,77.777,304.129,77.987Z" transform="translate(-238.523 -34.715)" fill="#4f4c5f"/>
        <path id="Path_989031" data-name="Path 989031" d="M392.371,107.53a28.13,28.13,0,0,0-.321-4.318A23.178,23.178,0,0,1,392.371,107.53Z" transform="translate(-326.769 -65.094)" fill="#4f4c5f"/>
        <path id="Path_989032" data-name="Path 989032" d="M22.519,78.069c-.032-.258-.835-6.34-4.993-8.74-2.578-1.488-5.713-1.173-7.945-.622a9.516,9.516,0,0,0-6.554,1.731C.132,72.823,0,77.261,0,77.449a1,1,0,0,0,.824,1.005c.012,0,.171.03.437.059a26.038,26.038,0,0,0,.021,4.124,26.939,26.939,0,0,0,2.058,8.37,8.308,8.308,0,0,0,3.74,4.181v1.368a7.656,7.656,0,0,0-5.888,7.436,1,1,0,1,0,2,.043,5.727,5.727,0,0,1,4.228-5.505,4.01,4.01,0,0,0,7.332,0,5.665,5.665,0,0,1,4.225,5.5,1,1,0,0,0,2-.043,7.657,7.657,0,0,0-5.887-7.436V95.187a8.437,8.437,0,0,0,3.9-4.563,26.809,26.809,0,0,0,1.971-11.166c.584-.187.944-.337.964-.345a1,1,0,0,0,.6-1.044ZM4.3,71.98c1.685-1.388,4.263-1.35,5.3-1.269a.991.991,0,0,0,.327-.028c1.539-.4,4.444-.873,6.608.376,2.528,1.459,3.534,4.926,3.867,6.48-2.339.76-5.4,1.13-7.543-.106a7.466,7.466,0,0,1-2.892-3.491,1,1,0,0,0-1.776-.076c-1.258,2.213-3.574,2.813-6.1,2.706A7.434,7.434,0,0,1,4.3,71.98Zm8.788,23.985a6.821,6.821,0,0,1-.029,1.269,1.979,1.979,0,0,1-1.618,1.655,2.006,2.006,0,0,1-2.361-1.975v-.949a8.461,8.461,0,0,0,4.008,0Zm4.043-6.092A6.381,6.381,0,0,1,8.5,93.661C5.743,92.444,4.824,89.89,4.009,86.8a25.186,25.186,0,0,1-.752-8.243A8.511,8.511,0,0,0,8.291,76.82c.163-.135.316-.281.467-.432.054-.054.109-.106.162-.163,2.29,3.659,5.8,4.575,10.048,3.742a25,25,0,0,1-1.841,9.906Z" transform="translate(0 -35.953)"/>
        <path id="Path_989033" data-name="Path 989033" d="M297.908,84.829a27.768,27.768,0,0,0,2.179-10.544c.126-4.629-.049-8.229-2.217-10.67-3.541-3.987-9.85-2.749-12.4-2.031a6.664,6.664,0,0,0-3.28,2.064c-2.007,2.344-2.021,5.384-2.029,8.136a35.545,35.545,0,0,0,1.014,9.35c1.343,5.173,3.051,6.8,4.993,7.862v1.37a7.657,7.657,0,0,0-5.887,7.436,1,1,0,0,0,2,.043,5.729,5.729,0,0,1,4.225-5.5,4.008,4.008,0,0,0,7.332,0,5.728,5.728,0,0,1,4.228,5.505,1,1,0,0,0,1,.977h.022a1,1,0,0,0,.977-1.02,7.659,7.659,0,0,0-5.889-7.436V89a8.3,8.3,0,0,0,3.734-4.169Zm-5.732,4.947c0,.9.121,1.662-.578,2.367-.019.019-.04.036-.061.055a2,2,0,0,1-3.342-1.159,7.033,7.033,0,0,1-.028-1.263A8.541,8.541,0,0,0,292.176,89.776ZM283.71,64.947a4.676,4.676,0,0,1,2.3-1.44c2.186-.616,7.571-1.708,10.362,1.435,1.532,1.726,1.629,4.243,1.7,6.307l-.261-.164-1.869-3.633a4.363,4.363,0,0,0-3.894-2.376h-3.919a4.353,4.353,0,0,0-4.077,2.781l-1.016,2.594-.871.459C282.192,68.719,282.35,66.535,283.71,64.947Zm.575,19.122a28.27,28.27,0,0,1-2.111-10.9l2.124-1.117a1,1,0,0,0,.465-.52l1.152-2.941a2.367,2.367,0,0,1,2.217-1.512h3.919a2.373,2.373,0,0,1,2.118,1.292l1.994,3.876c.165.32.241.316,1.939,1.384q0,.306-.011.6a25.794,25.794,0,0,1-2.027,9.833,6.373,6.373,0,0,1-11.778.006Z" transform="translate(-233.513 -29.763)"/>
        <path id="Path_989034" data-name="Path 989034" d="M139.9,57.194a7.152,7.152,0,0,0-.121,1.182,1,1,0,0,0,2,.038,5.136,5.136,0,0,1,.324-1.7,4.849,4.849,0,0,1,2-2.481,5.1,5.1,0,0,1,1.239-.543,3.653,3.653,0,0,0,6.6,0,5.092,5.092,0,0,1,1.235.541,4.879,4.879,0,0,1,2,2.487,5.229,5.229,0,0,1,.318,1.7,1,1,0,0,0,2-.038,7.211,7.211,0,0,0-.127-1.216,3.859,3.859,0,0,0,2.6-3.644V36.73a11.789,11.789,0,0,0-3.523-8.359A11.326,11.326,0,0,0,137.194,36.5V53.517a3.859,3.859,0,0,0,2.7,3.677Zm8.237-3.49c-1.317-.435-1.156-1.726-1.156-2.273a7.618,7.618,0,0,0,3.309,0v.692a1.654,1.654,0,0,1-2.153,1.581Zm-4.6-7.524a22.03,22.03,0,0,1-1.681-6.83,21.375,21.375,0,0,1-.021-3.333,7.248,7.248,0,0,0,4.878-1.988,7.585,7.585,0,0,0,2.549,2.509,9.116,9.116,0,0,0,6.232.751c.061,4.767-1.55,9.079-2.664,10.393A5.512,5.512,0,0,1,143.528,46.18ZM139.192,36.5a9.333,9.333,0,0,1,15.844-6.7,9.778,9.778,0,0,1,2.924,6.933V53.517a1.858,1.858,0,0,1-1.246,1.752,6.774,6.774,0,0,0-4.431-3.554V50.663a7.345,7.345,0,0,0,2.06-1.688c1.763-2.077,2.831-6.557,3.061-9.441a24.151,24.151,0,0,0,.028-3.551,1,1,0,0,0-1.24-.9c-1.95.489-4.206.731-5.94-.271a6.485,6.485,0,0,1-2.508-3.032,1,1,0,0,0-.865-.581c-.953-.039-.809.807-1.913,1.722a6.258,6.258,0,0,1-4.057,1.121,1,1,0,0,0-1,.972,23.844,23.844,0,0,0-.137,2.563c0,.649.028,1.3.083,1.941a23.93,23.93,0,0,0,1.826,7.429,7.446,7.446,0,0,0,3.3,3.718v1.051a6.781,6.781,0,0,0-4.448,3.584,1.858,1.858,0,0,1-1.34-1.782Z" transform="translate(-114.35 0)"/>
        <path id="Path_989035" data-name="Path 989035" d="M157.161,235.939l-4.981-4.981a1,1,0,0,0-1.413,0l-5.321,5.321-5.321-5.321a1,1,0,0,0-1.413,0l-4.981,4.981a1,1,0,0,0,0,1.413l5.321,5.321-5.321,5.321a1,1,0,0,0,0,1.413l4.981,4.981a1,1,0,0,0,1.413,0l5.321-5.321,5.32,5.321a1,1,0,0,0,1.413,0l4.982-4.981a1,1,0,0,0,0-1.413l-5.321-5.321,5.321-5.321A1,1,0,0,0,157.161,235.939Zm-7.44,6.028a1,1,0,0,0,0,1.413l5.321,5.321-3.569,3.568-5.321-5.321a1,1,0,0,0-1.413,0l-5.322,5.321L135.85,248.7l5.321-5.321a1,1,0,0,0,0-1.413l-5.321-5.321,3.568-3.568,5.322,5.321a1,1,0,0,0,1.413,0l5.321-5.321,3.568,3.568Z" transform="translate(-111.221 -171.325)"/>
      </g>
    </g>
  </g>
</svg>
