<svg xmlns="http://www.w3.org/2000/svg" xmlns:xlink="http://www.w3.org/1999/xlink" width="125.531" height="125.531" viewBox="0 0 125.531 125.531">
  <defs>
    <filter id="Path_982547" x="0" y="0" width="125.531" height="125.531" filterUnits="userSpaceOnUse">
      <feOffset dy="3" input="SourceAlpha"/>
      <feGaussianBlur stdDeviation="3" result="blur"/>
      <feFlood flood-opacity="0.161"/>
      <feComposite operator="in" in2="blur"/>
      <feComposite in="SourceGraphic"/>
    </filter>
  </defs>
  <g id="Group_1154104" data-name="Group 1154104" transform="translate(-1159 -5600.734)">
    <g id="Group_1154089" data-name="Group 1154089">
      <g id="Group_1154088" data-name="Group 1154088" transform="translate(1168 5606.734)">
        <g id="Group_1148633" data-name="Group 1148633">
          <g id="Group_1148525" data-name="Group 1148525" transform="translate(0)">
            <g transform="matrix(1, 0, 0, 1, -9, -6)" filter="url(#Path_982547)">
              <g id="Path_982547-2" data-name="Path 982547" transform="translate(9 6)" fill="#fff6f9">
                <path d="M 53.76562881469727 106.0312576293945 C 46.70915222167969 106.0312576293945 39.86455154418945 104.6495666503906 33.42195129394531 101.9245834350586 C 27.19836807250977 99.29222869873047 21.60872077941895 95.52347564697266 16.8082447052002 90.72301483154297 C 12.00778293609619 85.92253875732422 8.239028930664062 80.33289337158203 5.606675148010254 74.10930633544922 C 2.881690263748169 67.66670227050781 1.499998092651367 60.82210540771484 1.499998092651367 53.76562881469727 C 1.499998092651367 46.70915222167969 2.881690263748169 39.86455154418945 5.606675148010254 33.42195129394531 C 8.239028930664062 27.19836807250977 12.00778293609619 21.60872077941895 16.8082447052002 16.8082447052002 C 21.60872077941895 12.00778293609619 27.19836807250977 8.239028930664062 33.42195129394531 5.606675148010254 C 39.86455154418945 2.881690263748169 46.70915222167969 1.499998092651367 53.76562881469727 1.499998092651367 C 60.82210540771484 1.499998092651367 67.66670227050781 2.881690263748169 74.10930633544922 5.606675148010254 C 80.33289337158203 8.239028930664062 85.92253875732422 12.00778293609619 90.72301483154297 16.8082447052002 C 95.52347564697266 21.60872077941895 99.29222869873047 27.19836807250977 101.9245834350586 33.42195129394531 C 104.6495666503906 39.86455154418945 106.0312576293945 46.70915222167969 106.0312576293945 53.76562881469727 C 106.0312576293945 60.82210540771484 104.6495666503906 67.66670227050781 101.9245834350586 74.10930633544922 C 99.29222869873047 80.33289337158203 95.52347564697266 85.92253875732422 90.72301483154297 90.72301483154297 C 85.92253875732422 95.52347564697266 80.33289337158203 99.29222869873047 74.10930633544922 101.9245834350586 C 67.66670227050781 104.6495666503906 60.82210540771484 106.0312576293945 53.76562881469727 106.0312576293945 Z" stroke="none"/>
                <path d="M 53.76562881469727 2.999992370605469 C 46.91099548339844 2.999992370605469 40.26297760009766 4.341812133789062 34.00627899169922 6.988182067871094 C 27.96149444580078 9.544914245605469 22.53211212158203 13.20571136474609 17.86891174316406 17.86891174316406 C 13.20571136474609 22.53211212158203 9.544914245605469 27.96149444580078 6.988182067871094 34.00627899169922 C 4.341812133789062 40.26297760009766 2.999992370605469 46.91099548339844 2.999992370605469 53.76562881469727 C 2.999992370605469 60.62026214599609 4.341812133789062 67.26828002929688 6.988182067871094 73.52497863769531 C 9.544914245605469 79.56976318359375 13.20571136474609 84.9991455078125 17.86891174316406 89.66234588623047 C 22.53211212158203 94.32554626464844 27.96149444580078 97.98634338378906 34.00627899169922 100.5430755615234 C 40.26297760009766 103.1894454956055 46.91099548339844 104.5312652587891 53.76562881469727 104.5312652587891 C 60.62026214599609 104.5312652587891 67.26828002929688 103.1894454956055 73.52497863769531 100.5430755615234 C 79.56976318359375 97.98634338378906 84.9991455078125 94.32554626464844 89.66234588623047 89.66234588623047 C 94.32554626464844 84.9991455078125 97.98634338378906 79.56976318359375 100.5430755615234 73.52497863769531 C 103.1894454956055 67.26828002929688 104.5312652587891 60.62026214599609 104.5312652587891 53.76562881469727 C 104.5312652587891 46.91099548339844 103.1894454956055 40.26297760009766 100.5430755615234 34.00627899169922 C 97.98634338378906 27.96149444580078 94.32554626464844 22.53211212158203 89.66234588623047 17.86891174316406 C 84.9991455078125 13.20571136474609 79.56976318359375 9.544914245605469 73.52497863769531 6.988182067871094 C 67.26828002929688 4.341812133789062 60.62026214599609 2.999992370605469 53.76562881469727 2.999992370605469 M 53.76562881469727 -7.62939453125e-06 C 83.45956420898438 -7.62939453125e-06 107.5312652587891 24.07169342041016 107.5312652587891 53.76562881469727 C 107.5312652587891 83.45956420898438 83.45956420898438 107.5312652587891 53.76562881469727 107.5312652587891 C 24.07169342041016 107.5312652587891 -7.62939453125e-06 83.45956420898438 -7.62939453125e-06 53.76562881469727 C -7.62939453125e-06 24.07169342041016 24.07169342041016 -7.62939453125e-06 53.76562881469727 -7.62939453125e-06 Z" stroke="none" fill="#ffaece"/>
              </g>
            </g>
          </g>
        </g>
      </g>
      <g id="rating_1176372" transform="translate(1190.66 5629.34)">
        <path id="Path_989036" data-name="Path 989036" d="M35.347,21.424A13.924,13.924,0,1,1,21.423,7.5,13.924,13.924,0,0,1,35.347,21.424Zm0,0" transform="translate(-6.587 -6.587)" fill="#fedd60"/>
        <path id="Path_989037" data-name="Path 989037" d="M11.151,21.424a13.926,13.926,0,0,1,12.1-13.8,13.924,13.924,0,1,0-1.826,27.728,14.11,14.11,0,0,0,1.826-.119,13.926,13.926,0,0,1-12.1-13.8Zm0,0" transform="translate(-6.588 -6.588)" fill="#e6c85c"/>
        <path id="Path_989038" data-name="Path 989038" d="M302.667,21.424A13.924,13.924,0,1,1,288.743,7.5,13.924,13.924,0,0,1,302.667,21.424Zm0,0" transform="translate(-241.368 -6.587)" fill="#fc595a"/>
        <path id="Path_989039" data-name="Path 989039" d="M302.667,289.638a13.924,13.924,0,1,1-13.924-13.924A13.924,13.924,0,0,1,302.667,289.638Zm0,0" transform="translate(-241.368 -242.154)" fill="#b6d97a"/>
        <path id="Path_989040" data-name="Path 989040" d="M376.905,392.121a1.706,1.706,0,0,0-1.706,1.706v1.005a1.706,1.706,0,0,0,3.412,0v-1.005A1.706,1.706,0,0,0,376.905,392.121Zm0,0" transform="translate(-329.53 -344.392)" fill="#494a59"/>
        <path id="Path_989041" data-name="Path 989041" d="M35.347,289.638a13.924,13.924,0,1,1-13.924-13.924A13.924,13.924,0,0,1,35.347,289.638Zm0,0" transform="translate(-6.587 -242.154)" fill="#64c6fb"/>
        <path id="Path_989042" data-name="Path 989042" d="M278.471,21.424a13.926,13.926,0,0,1,12.1-13.8,13.924,13.924,0,1,0,0,27.61,13.927,13.927,0,0,1-12.1-13.8Zm0,0" transform="translate(-241.369 -6.588)" fill="#d94244"/>
        <path id="Path_989043" data-name="Path 989043" d="M11.151,289.642a13.926,13.926,0,0,1,12.1-13.8,14.1,14.1,0,0,0-1.826-.119,13.924,13.924,0,1,0,1.826,27.728,13.926,13.926,0,0,1-12.1-13.8Zm0,0" transform="translate(-6.588 -242.158)" fill="#59b1e0"/>
        <path id="Path_989044" data-name="Path 989044" d="M278.471,289.642a13.927,13.927,0,0,1,12.1-13.8,14.1,14.1,0,0,0-1.826-.119,13.924,13.924,0,1,0,1.826,27.728,13.926,13.926,0,0,1-12.1-13.8Zm0,0" transform="translate(-241.369 -242.158)" fill="#9fcc52"/>
        <path id="Path_989045" data-name="Path 989045" d="M5.213,4.734a.913.913,0,0,0-1.29.053,14.818,14.818,0,1,0,3-2.5A.913.913,0,0,0,7.9,3.827a13.026,13.026,0,1,1-2.635,2.2.913.913,0,0,0-.053-1.29Zm0,0" transform="translate(-0.001 0)"/>
        <path id="Path_989046" data-name="Path 989046" d="M56.338,108.311v-1.319a.913.913,0,0,0-1.826,0v1.319a.913.913,0,1,0,1.826,0Zm0,0" transform="translate(-47.877 -93.166)"/>
        <path id="Path_989047" data-name="Path 989047" d="M176.1,108.311v-1.319a.913.913,0,0,0-1.826,0v1.319a.913.913,0,1,0,1.826,0Zm0,0" transform="translate(-153.065 -93.166)"/>
        <path id="Path_989048" data-name="Path 989048" d="M102.325,118.785a3.293,3.293,0,0,0,2.486-1.108.913.913,0,1,0-1.375-1.2,1.519,1.519,0,0,1-2.224,0,.913.913,0,1,0-1.375,1.2,3.293,3.293,0,0,0,2.487,1.108Zm0,0" transform="translate(-87.488 -102.023)"/>
        <path id="Path_989049" data-name="Path 989049" d="M282.157,0a14.837,14.837,0,1,0,14.837,14.837A14.854,14.854,0,0,0,282.157,0Zm0,27.848a13.011,13.011,0,1,1,13.011-13.011A13.026,13.026,0,0,1,282.157,27.848Zm0,0" transform="translate(-234.782 0)"/>
        <path id="Path_989050" data-name="Path 989050" d="M369.645,123.219a3.293,3.293,0,0,0-2.487,1.108.914.914,0,0,0,.087,1.289.924.924,0,0,0,1.288-.087,1.519,1.519,0,0,1,2.224,0,.913.913,0,0,0,1.375-1.2A3.291,3.291,0,0,0,369.645,123.219Zm0,0" transform="translate(-322.269 -108.221)"/>
        <path id="Path_989051" data-name="Path 989051" d="M315.522,101.169l-2.4-.616a.913.913,0,1,0-.455,1.768l.513.132v.979a.913.913,0,1,0,1.826,0v-.51l.058.015a.9.9,0,0,0,.228.029.913.913,0,0,0,.226-1.8Zm0,0" transform="translate(-274.01 -88.288)"/>
        <path id="Path_989052" data-name="Path 989052" d="M434.832,100.553l-2.4.616a.913.913,0,0,0,.227,1.8.923.923,0,0,0,.228-.029l.058-.015v.51a.913.913,0,1,0,1.826,0v-.979l.513-.132a.913.913,0,1,0-.455-1.768Zm0,0" transform="translate(-379.197 -88.288)"/>
        <path id="Path_989053" data-name="Path 989053" d="M282.157,268.219a14.837,14.837,0,1,0,9.99,25.806.913.913,0,1,0-1.23-1.349,12.991,12.991,0,1,1,2.209-2.619.913.913,0,1,0,1.538.984,14.839,14.839,0,0,0-12.507-22.821Zm0,0" transform="translate(-234.782 -235.571)"/>
        <path id="Path_989054" data-name="Path 989054" d="M321.832,375.21v1.319a.913.913,0,1,0,1.826,0V375.21a.913.913,0,1,0-1.826,0Zm0,0" transform="translate(-282.659 -328.737)"/>
        <path id="Path_989055" data-name="Path 989055" d="M441.6,375.21v1.319a.913.913,0,1,0,1.826,0V375.21a.913.913,0,1,0-1.826,0Zm0,0" transform="translate(-387.847 -328.737)"/>
        <path id="Path_989056" data-name="Path 989056" d="M367.7,387.24v1.005a2.619,2.619,0,0,0,5.238,0V387.24a2.619,2.619,0,0,0-5.238,0Zm3.412,0v1.005a.793.793,0,0,1-1.586,0V387.24a.793.793,0,1,1,1.586,0Zm0,0" transform="translate(-322.943 -337.805)"/>
        <path id="Path_989057" data-name="Path 989057" d="M29.673,283.051a14.837,14.837,0,1,0-14.837,14.837A14.854,14.854,0,0,0,29.673,283.051ZM14.836,296.062a13.011,13.011,0,1,1,13.011-13.011A13.026,13.026,0,0,1,14.836,296.062Zm0,0" transform="translate(0 -235.567)"/>
        <path id="Path_989058" data-name="Path 989058" d="M55.425,374.3a.913.913,0,0,0-.913.913v1.319a.913.913,0,1,0,1.826,0V375.21A.913.913,0,0,0,55.425,374.3Zm0,0" transform="translate(-47.877 -328.737)"/>
        <path id="Path_989059" data-name="Path 989059" d="M175.19,374.3a.913.913,0,0,0-.913.913v1.319a.913.913,0,1,0,1.826,0V375.21A.913.913,0,0,0,175.19,374.3Zm0,0" transform="translate(-153.065 -328.737)"/>
        <path id="Path_989060" data-name="Path 989060" d="M102.324,384.379a3.293,3.293,0,0,0-2.486,1.108.913.913,0,0,0,1.375,1.2,1.519,1.519,0,0,1,2.224,0,.913.913,0,0,0,1.375-1.2A3.293,3.293,0,0,0,102.324,384.379Zm0,0" transform="translate(-87.488 -337.592)"/>
      </g>
    </g>
  </g>
</svg>
