<svg xmlns="http://www.w3.org/2000/svg" xmlns:xlink="http://www.w3.org/1999/xlink" width="99.504" height="99.504" viewBox="0 0 99.504 99.504">
  <defs>
    <filter id="Path_982547" x="0" y="0" width="99.504" height="99.504" filterUnits="userSpaceOnUse">
      <feOffset dy="3" input="SourceAlpha"/>
      <feGaussianBlur stdDeviation="3" result="blur"/>
      <feFlood flood-opacity="0.161"/>
      <feComposite operator="in" in2="blur"/>
      <feComposite in="SourceGraphic"/>
    </filter>
  </defs>
  <g id="Group_1154127" data-name="Group 1154127" transform="translate(-1034 -12023)">
    <g id="Group_1153962" data-name="Group 1153962" transform="translate(0 4)">
      <g id="Group_1152617" data-name="Group 1152617" transform="translate(-0.496 10241)">
        <g id="Group_1146973" data-name="Group 1146973" transform="translate(1043.496 1784)">
          <g id="Group_1146954" data-name="Group 1146954">
            <g transform="matrix(1, 0, 0, 1, -9, -6)" filter="url(#Path_982547)">
              <g id="Path_982547-2" data-name="Path 982547" transform="translate(9 6)" fill="#f2f8fa">
                <path d="M 40.7520751953125 80.00415802001953 C 35.45241546630859 80.00415802001953 30.31208610534668 78.96654510498047 25.47385215759277 76.92014312744141 C 20.79992294311523 74.9432373046875 16.60199356079102 72.11281585693359 12.99666309356689 68.50748443603516 C 9.391345977783203 64.90216064453125 6.560910701751709 60.70422744750977 4.584004402160645 56.03028869628906 C 2.53761625289917 51.19206237792969 1.500004649162292 46.05173492431641 1.500004649162292 40.7520751953125 C 1.500004649162292 35.45241546630859 2.53761625289917 30.31208610534668 4.584004402160645 25.47385215759277 C 6.560910701751709 20.79992294311523 9.391345977783203 16.60199356079102 12.99666309356689 12.99666309356689 C 16.60199356079102 9.391345977783203 20.79992294311523 6.560910701751709 25.47385215759277 4.584004402160645 C 30.31208610534668 2.53761625289917 35.45241546630859 1.500004649162292 40.7520751953125 1.500004649162292 C 46.05173492431641 1.500004649162292 51.19206237792969 2.53761625289917 56.03028869628906 4.584004402160645 C 60.70422744750977 6.560910701751709 64.90216064453125 9.391345977783203 68.50748443603516 12.99666309356689 C 72.11281585693359 16.60199356079102 74.9432373046875 20.79992294311523 76.92014312744141 25.47385215759277 C 78.96654510498047 30.31208610534668 80.00415802001953 35.45241546630859 80.00415802001953 40.7520751953125 C 80.00415802001953 46.05173492431641 78.96654510498047 51.19206237792969 76.92014312744141 56.03028869628906 C 74.9432373046875 60.70421600341797 72.11281585693359 64.90216064453125 68.50748443603516 68.50748443603516 C 64.90216064453125 72.11281585693359 60.70421600341797 74.9432373046875 56.03028869628906 76.92014312744141 C 51.19206237792969 78.96654510498047 46.05173492431641 80.00415802001953 40.7520751953125 80.00415802001953 Z" stroke="none"/>
                <path d="M 40.7520751953125 2.999992370605469 C 35.65426254272461 2.999992370605469 30.71051406860352 3.99774169921875 26.05818176269531 5.96551513671875 C 21.56304931640625 7.866798400878906 17.52538299560547 10.58927154541016 14.05732727050781 14.05732727050781 C 10.58927154541016 17.52538299560547 7.866798400878906 21.56304931640625 5.96551513671875 26.05818176269531 C 3.99774169921875 30.71051406860352 2.999992370605469 35.65426254272461 2.999992370605469 40.7520751953125 C 2.999992370605469 45.84988784790039 3.99774169921875 50.79363250732422 5.96551513671875 55.44596862792969 C 7.866798400878906 59.94110107421875 10.58927154541016 63.97876739501953 14.05732727050781 67.44682312011719 C 17.52538299560547 70.91487121582031 21.56304931640625 73.63735198974609 26.05818176269531 75.53863525390625 C 30.71051406860352 77.50640869140625 35.65426254272461 78.50415802001953 40.7520751953125 78.50415802001953 C 45.84988784790039 78.50415802001953 50.79363250732422 77.50640869140625 55.44596862792969 75.53863525390625 C 59.94110107421875 73.63735198974609 63.97876739501953 70.91487121582031 67.44682312011719 67.44682312011719 C 70.91487121582031 63.97876739501953 73.63735198974609 59.94110107421875 75.53863525390625 55.44596862792969 C 77.50640869140625 50.79363250732422 78.50415802001953 45.84988784790039 78.50415802001953 40.7520751953125 C 78.50415802001953 35.65426254272461 77.50640869140625 30.71051406860352 75.53863525390625 26.05818176269531 C 73.63735198974609 21.56304931640625 70.91487121582031 17.52538299560547 67.44682312011719 14.05732727050781 C 63.97876739501953 10.58927154541016 59.94110107421875 7.866798400878906 55.44596862792969 5.96551513671875 C 50.79363250732422 3.99774169921875 45.84988784790039 2.999992370605469 40.7520751953125 2.999992370605469 M 40.7520751953125 -7.62939453125e-06 C 63.25881958007812 -7.62939453125e-06 81.50415802001953 18.24532699584961 81.50415802001953 40.7520751953125 C 81.50415802001953 63.25881958007812 63.25881958007812 81.50415802001953 40.7520751953125 81.50415802001953 C 18.24532699584961 81.50415802001953 -7.62939453125e-06 63.25881958007812 -7.62939453125e-06 40.7520751953125 C -7.62939453125e-06 18.24532699584961 18.24532699584961 -7.62939453125e-06 40.7520751953125 -7.62939453125e-06 Z" stroke="none" fill="#6a7b7e"/>
              </g>
            </g>
          </g>
        </g>
      </g>
      <g id="numeros" transform="translate(1050.36 12038)">
        <path id="Path_989309" data-name="Path 989309" d="M134.52,34.3l-12.8-3.718a5.239,5.239,0,0,1-3.57-6.492l3.718-12.8a5.239,5.239,0,0,1,6.492-3.57l12.8,3.718a5.239,5.239,0,0,1,3.57,6.492l-3.718,12.8A5.239,5.239,0,0,1,134.52,34.3Z" transform="translate(-99.196 -6.69)" fill="#f26666"/>
        <path id="Path_989310" data-name="Path 989310" d="M238.315,32.517l-4.664-1.355a5.262,5.262,0,0,1,2.879,6.258L232.8,50.275a5.261,5.261,0,0,1-5.848,3.732l4.726,1.373a5.239,5.239,0,0,0,6.492-3.57l3.718-12.8A5.239,5.239,0,0,0,238.315,32.517Z" transform="translate(-196.351 -27.773)" fill="#dd5b5b"/>
        <path id="Path_989311" data-name="Path 989311" d="M35.5,291.119l-13.159,2.128a5.239,5.239,0,0,1-6.008-4.335l-2.128-13.159a5.239,5.239,0,0,1,4.335-6.008L31.7,267.617a5.239,5.239,0,0,1,6.008,4.335l2.129,13.159A5.239,5.239,0,0,1,35.5,291.119Z" transform="translate(-6.685 -238.454)" fill="#73e7e6"/>
        <path id="Path_989312" data-name="Path 989312" d="M143.481,285.112l-2.129-13.159a5.239,5.239,0,0,0-6.008-4.335l-4.917.8a5.3,5.3,0,0,1,5.412,4.445l2.151,13.3a5.3,5.3,0,0,1-2.955,5.628l4.11-.665A5.239,5.239,0,0,0,143.481,285.112Z" transform="translate(-110.326 -238.454)" fill="#65d1cb"/>
        <path id="Path_989313" data-name="Path 989313" d="M297.5,296.156h-13.33a5.239,5.239,0,0,1-5.239-5.239v-13.33a5.239,5.239,0,0,1,5.239-5.239H297.5a5.239,5.239,0,0,1,5.239,5.239v13.33A5.239,5.239,0,0,1,297.5,296.156Z" transform="translate(-242.679 -242.731)" fill="#ff9f40"/>
        <path id="Path_989314" data-name="Path 989314" d="M414.7,272.348h-4.269a5.3,5.3,0,0,1,4.074,5.158V291a5.3,5.3,0,0,1-4.074,5.158H414.7a5.239,5.239,0,0,0,5.239-5.239v-13.33A5.239,5.239,0,0,0,414.7,272.348Z" transform="translate(-359.882 -242.731)" fill="#f49138"/>
        <path id="Path_989315" data-name="Path 989315" d="M228.385,94.7a1.344,1.344,0,0,1-.37-.054c-.419-.122-.814-.443-.692-.862l2.243-7.723-.441.312-.005,0a.645.645,0,0,1-.306.079.5.5,0,0,1-.136-.018.6.6,0,0,1-.387-.369.839.839,0,0,1-.027-.537.892.892,0,0,1,.536-.573l1.912-1a.637.637,0,0,1,.313-.085.726.726,0,0,1,.2.031c.376.109.715.46.605.837l-2.774,9.552A.64.64,0,0,1,228.385,94.7Z" transform="translate(-196.665 -74.746)"/>
        <path id="Path_989316" data-name="Path 989316" d="M97.177,346.883a.74.74,0,0,1-.77-.507l-.233-1.439c-.206-1.271.922-2.412,2.012-3.516,1.059-1.072,2.059-2.084,1.885-3.157a1.412,1.412,0,0,0-1.415-1.234,1.979,1.979,0,0,0-.314.026,1.477,1.477,0,0,0-.936.489,1.332,1.332,0,0,0-.235,1.1c.056.344-.238.757-.825.852a1.16,1.16,0,0,1-.182.015c-.435,0-.7-.291-.8-.865a2.934,2.934,0,0,1,2.706-3.242,3.867,3.867,0,0,1,.614-.05,3.062,3.062,0,0,1,3.162,2.578c.307,1.9-1.169,3.335-2.356,4.49-.857.835-1.6,1.556-1.49,2.22l.074.456,4.253-.688a.461.461,0,0,1,.074-.006.774.774,0,0,1,.68.694.783.783,0,0,1-.494.921l-5.28.854A.854.854,0,0,1,97.177,346.883Z" transform="translate(-79.05 -298.885)"/>
        <path id="Path_989317" data-name="Path 989317" d="M359.808,341.193a3.7,3.7,0,0,1-2.614-.907,2.578,2.578,0,0,1-.815-1.846c0-.572.229-.785.845-.785.673,0,.935.2.935.71,0,.6.515,1.2,1.664,1.2,1.2,0,1.709-.525,1.709-1.754v-.285c0-1.029-.564-1.529-1.724-1.529-.382,0-.62-.283-.62-.74s.237-.755.62-.755c.873,0,1.454-.263,1.454-1.544,0-1-.43-1.439-1.394-1.439-1.2,0-1.454.611-1.454,1.123s-.289.755-.86.755c-.734,0-.935-.182-.935-.845,0-.983.687-2.648,3.264-2.648,2.076,0,3.129.936,3.129,2.783a2.882,2.882,0,0,1-1.066,2.5,2.408,2.408,0,0,1,1.4,2.342v.285C363.342,339.073,362.883,341.193,359.808,341.193Z" transform="translate(-311.707 -294.027)"/>
        <path id="Path_989318" data-name="Path 989318" d="M129.288,28.631a6.039,6.039,0,0,1-1.686-.241l-12.8-3.718a6.054,6.054,0,0,1-4.125-7.5l1.437-4.947a.815.815,0,1,1,1.565.455l-1.437,4.947a4.424,4.424,0,0,0,3.015,5.482l12.8,3.718a4.429,4.429,0,0,0,5.482-3.015l3.718-12.8a4.424,4.424,0,0,0-3.015-5.482l-12.8-3.718a4.424,4.424,0,0,0-5.482,3.015l-1.207,4.155a.815.815,0,1,1-1.565-.455l1.207-4.155A6.054,6.054,0,0,1,121.9.243l12.8,3.718a6.054,6.054,0,0,1,4.125,7.5l-3.718,12.8A6.065,6.065,0,0,1,129.288,28.631Z" transform="translate(-92.506 0)"/>
        <path id="Path_989319" data-name="Path 989319" d="M14.811,287.456a6.057,6.057,0,0,1-5.963-5.089l-.811-5.016a.815.815,0,1,1,1.609-.26l.811,5.016a4.424,4.424,0,0,0,5.074,3.661l13.159-2.129a4.424,4.424,0,0,0,3.661-5.074l-2.129-13.159a4.429,4.429,0,0,0-5.074-3.661l-13.159,2.129a4.424,4.424,0,0,0-3.661,5.074l.709,4.386a.815.815,0,1,1-1.609.26l-.709-4.386a6.054,6.054,0,0,1,5.01-6.943l13.159-2.129a6.061,6.061,0,0,1,6.943,5.01l2.129,13.159a6.054,6.054,0,0,1-5.01,6.943l-13.159,2.128A6.14,6.14,0,0,1,14.811,287.456Z" transform="translate(0 -231.778)"/>
        <path id="Path_989320" data-name="Path 989320" d="M290.818,290.291h-13.33a6.061,6.061,0,0,1-6.054-6.054v-5.078a.815.815,0,1,1,1.63,0v5.078a4.429,4.429,0,0,0,4.424,4.424h13.33a4.429,4.429,0,0,0,4.424-4.424v-13.33a4.429,4.429,0,0,0-4.424-4.424h-13.33a4.429,4.429,0,0,0-4.424,4.424v4.448a.815.815,0,0,1-1.63,0v-4.448a6.061,6.061,0,0,1,6.054-6.054h13.33a6.061,6.061,0,0,1,6.054,6.054v13.33A6.061,6.061,0,0,1,290.818,290.291Z" transform="translate(-235.999 -236.051)"/>
      </g>
    </g>
  </g>
</svg>
