<svg xmlns="http://www.w3.org/2000/svg" xmlns:xlink="http://www.w3.org/1999/xlink" width="101" height="101" viewBox="0 0 101 101">
  <defs>
    <filter id="Path_982547" x="0" y="0" width="101" height="101" filterUnits="userSpaceOnUse">
      <feOffset dy="3" input="SourceAlpha"/>
      <feGaussianBlur stdDeviation="3" result="blur"/>
      <feFlood flood-opacity="0.161"/>
      <feComposite operator="in" in2="blur"/>
      <feComposite in="SourceGraphic"/>
    </filter>
  </defs>
  <g id="Group_1154135" data-name="Group 1154135" transform="translate(-1327 -1331)">
    <g id="Group_1153968" data-name="Group 1153968" transform="translate(1336 1337)">
      <g id="Group_1152623" data-name="Group 1152623">
        <g id="Group_1151821" data-name="Group 1151821">
          <g id="Group_1146954" data-name="Group 1146954">
            <g transform="matrix(1, 0, 0, 1, -9, -6)" filter="url(#Path_982547)">
              <g id="Path_982547-2" data-name="Path 982547" transform="translate(9 6)" fill="#fff6f9">
                <path d="M 41.5 81.5 C 36.0993766784668 81.5 30.86109352111816 80.44261169433594 25.9306583404541 78.35720825195312 C 21.16767120361328 76.34263610839844 16.88974189758301 73.45828247070312 13.21572971343994 69.78427124023438 C 9.541717529296875 66.11026000976562 6.657364845275879 61.83232879638672 4.642788410186768 57.06933975219727 C 2.557388305664062 52.1389045715332 1.5 46.9006233215332 1.5 41.5 C 1.5 36.0993766784668 2.557388305664062 30.86109352111816 4.642788410186768 25.9306583404541 C 6.657364845275879 21.16767120361328 9.541717529296875 16.88974189758301 13.21572971343994 13.21572971343994 C 16.88974189758301 9.541717529296875 21.16767120361328 6.657364845275879 25.9306583404541 4.642788410186768 C 30.86109352111816 2.557388305664062 36.0993766784668 1.5 41.5 1.5 C 46.9006233215332 1.5 52.1389045715332 2.557388305664062 57.06933975219727 4.642788410186768 C 61.83232879638672 6.657364845275879 66.11026000976562 9.541717529296875 69.78427124023438 13.21572971343994 C 73.45828247070312 16.88974189758301 76.34263610839844 21.16767120361328 78.35720825195312 25.9306583404541 C 80.44261169433594 30.86109352111816 81.5 36.0993766784668 81.5 41.5 C 81.5 46.9006233215332 80.44261169433594 52.1389045715332 78.35720825195312 57.06933975219727 C 76.34263610839844 61.83232879638672 73.45828247070312 66.11026000976562 69.78427124023438 69.78427124023438 C 66.11026000976562 73.45828247070312 61.83232879638672 76.34263610839844 57.06933975219727 78.35720825195312 C 52.1389045715332 80.44261169433594 46.9006233215332 81.5 41.5 81.5 Z" stroke="none"/>
                <path d="M 41.5 3 C 36.30121231079102 3 31.259521484375 4.01751708984375 26.51498794555664 6.0242919921875 C 21.9307861328125 7.963241577148438 17.81313323974609 10.73965454101562 14.27639007568359 14.27639007568359 C 10.73965454101562 17.81313323974609 7.963241577148438 21.9307861328125 6.0242919921875 26.51498794555664 C 4.01751708984375 31.259521484375 3 36.30121231079102 3 41.5 C 3 46.69878768920898 4.01751708984375 51.740478515625 6.0242919921875 56.48501586914062 C 7.963241577148438 61.0692138671875 10.73965454101562 65.18686676025391 14.27639007568359 68.72361755371094 C 17.81313323974609 72.26034545898438 21.9307861328125 75.03675842285156 26.51498794555664 76.9757080078125 C 31.259521484375 78.98248291015625 36.30121231079102 80 41.5 80 C 46.69878768920898 80 51.740478515625 78.98248291015625 56.48501586914062 76.9757080078125 C 61.0692138671875 75.03675842285156 65.18686676025391 72.26034545898438 68.72361755371094 68.72361755371094 C 72.26034545898438 65.18686676025391 75.03675842285156 61.0692138671875 76.9757080078125 56.48501586914062 C 78.98248291015625 51.740478515625 80 46.69878768920898 80 41.5 C 80 36.30121231079102 78.98248291015625 31.259521484375 76.9757080078125 26.51498794555664 C 75.03675842285156 21.9307861328125 72.26034545898438 17.81313323974609 68.72361755371094 14.27639007568359 C 65.18686676025391 10.73965454101562 61.0692138671875 7.963241577148438 56.48501586914062 6.0242919921875 C 51.740478515625 4.01751708984375 46.69878768920898 3 41.5 3 M 41.5 0 C 64.41981506347656 0 83 18.58018493652344 83 41.5 C 83 64.41981506347656 64.41981506347656 83 41.5 83 C 18.58018493652344 83 0 64.41981506347656 0 41.5 C 0 18.58018493652344 18.58018493652344 0 41.5 0 Z" stroke="none" fill="#ffaece"/>
              </g>
            </g>
          </g>
        </g>
      </g>
      <g id="tdah" transform="translate(16.772 16.772)">
        <g id="Group_1153967" data-name="Group 1153967" transform="translate(0.724 0.725)">
          <path id="Path_989321" data-name="Path 989321" d="M218.322,25.792c-2.642-4.656.234-10.4,5.769-11.54,1.232-7.221,11.386-9.248,15.691-3.1h3.864V44.178H222.68l-4.361-6.97A7.633,7.633,0,0,1,218.322,25.792Z" transform="translate(-215.756 -7.506)" fill="#c9aaf2"/>
          <g id="Group_1153965" data-name="Group 1153965" transform="translate(17.278 0.001)">
            <path id="Path_989322" data-name="Path 989322" d="M33.976,35.456a3.944,3.944,0,0,1,5.243-3.433,1.123,1.123,0,0,0,1.5-1.061V17.846A8.383,8.383,0,0,1,44.3,14.92h4.038l13.8,17.613L57.294,42.547,49.006,46.41l-8.3-3.864v-2.04a1.118,1.118,0,0,0-1.487-1.062,3.94,3.94,0,0,1-5.246-3.989Z" transform="translate(-33.966 -14.205)" fill="#ffb5c0"/>
            <path id="Path_989323" data-name="Path 989323" d="M7.522,8.233c4.826-2.07,11.189.476,12.105,6.066,5.558,1.129,8.354,6.937,5.734,11.547a7.63,7.63,0,0,1-.016,11.408L15.192,35.859a36.349,36.349,0,0,0,.221-7.966A5.194,5.194,0,0,1,14.2,21.14,35.719,35.719,0,0,0,7.522,8.233Z" transform="translate(2.812 -7.518)" fill="#ff8e9e"/>
          </g>
          <g id="Group_1153966" data-name="Group 1153966" transform="translate(20.138 21.613)">
            <path id="Path_989324" data-name="Path 989324" d="M143.132,237.983h2.04a1.108,1.108,0,0,0,1.062-1.474,3.938,3.938,0,1,1,7.422,0,1.152,1.152,0,0,0,.737,1.477V256.55h-8.487a8.321,8.321,0,0,1-2.792-2.561l-3.864-6.34Z" transform="translate(-139.25 -231.253)" fill="#70dcba"/>
            <path id="Path_989325" data-name="Path 989325" d="M42.559,302.321c2.625,4.641-.219,10.413-5.785,11.547-1.016,5.869-8,8.334-12.856,5.625a35.851,35.851,0,0,0,8.487-18.567h7.767a2.768,2.768,0,0,1,2.387,1.394Z" transform="translate(-17.262 -294.197)" fill="#30cd9c"/>
          </g>
          <path id="Path_989326" data-name="Path 989326" d="M187.144,302.286l.008-.015a2.7,2.7,0,0,1,2.359-1.344H197a1.118,1.118,0,0,1,1.061,1.49,3.938,3.938,0,1,0,7.422,0,1.118,1.118,0,0,1,1.062-1.487H208.6l-.019,2.053a1.123,1.123,0,0,0,1.494,1.062,3.938,3.938,0,1,1,0,7.422,1.123,1.123,0,0,0-1.5,1.061v4.408c-4.317,6.208-14.507,4.062-15.69-3.105-5.52-1.148-8.391-6.886-5.75-11.542Z" transform="translate(-184.582 -272.585)" fill="#ffce71"/>
        </g>
        <path id="Path_989327" data-name="Path 989327" d="M0,24.724a8.357,8.357,0,0,1,2.4-5.856,8.215,8.215,0,0,1,.912-8.629.72.72,0,1,1,1.147.872,6.824,6.824,0,0,0-.537,7.541,5.8,5.8,0,0,0,9.253,1.488,4.452,4.452,0,0,0,0-6.3c-2.054-2.054-5.595-.693-5.595,1.832a2.573,2.573,0,0,0,.739,1.812A.747.747,0,0,1,8.361,18.5a.725.725,0,0,1-1.049.026,4.012,4.012,0,0,1-1.183-2.856c0-3.833,5.121-5.8,8.068-2.856a5.9,5.9,0,0,1,0,8.349,7.208,7.208,0,0,1-11.023-1,6.868,6.868,0,0,0,.049,9.161,3.469,3.469,0,0,1,2.43-.986h7.493A1.844,1.844,0,0,1,14.89,30.8a3.213,3.213,0,1,0,6.056,0,1.843,1.843,0,0,1,1.744-2.454h1.33V27.028a.4.4,0,0,0-.522-.379,4.662,4.662,0,1,1,0-8.786.4.4,0,0,0,.529-.378V4.6C20.013-.782,10.885,1.078,9.774,7.593a.724.724,0,0,1-.568.588A8.219,8.219,0,0,0,6.4,9.312a.72.72,0,1,1-.787-1.205A9.587,9.587,0,0,1,8.441,6.871C10.076-.286,19.888-2.417,24.75,3.191,29.625-2.437,39.469-.252,41.063,6.906a8.616,8.616,0,0,1,6,12.005A8.326,8.326,0,0,1,47.051,30.6c2.293,4.76-.419,10.574-6.059,12-1.644,7.106-11.414,9.29-16.266,3.644C19.87,51.886,10.012,49.7,8.415,42.562c-5.448-1.419-8.389-7.1-6.021-12A8.342,8.342,0,0,1,0,24.724Zm46.291-4.513a7.209,7.209,0,0,1-11.022,1,5.9,5.9,0,0,1,0-8.349c2.957-2.956,8.068-.962,8.068,2.856a4.012,4.012,0,0,1-1.183,2.856.724.724,0,0,1-1.024-1.024,2.573,2.573,0,0,0,.759-1.832c0-2.526-3.542-3.884-5.595-1.832a4.452,4.452,0,0,0,0,6.3,5.8,5.8,0,0,0,9.252-1.487C47.9,14.55,45.422,9.257,40.3,8.217a.724.724,0,0,1-.571-.593C38.665,1.152,29.505-.839,25.474,4.6V17.483a1.848,1.848,0,0,1-2.462,1.743,3.213,3.213,0,1,0,0,6.056,1.845,1.845,0,0,1,2.457,1.749v1.311h1.313a.384.384,0,0,0,.379-.507,4.662,4.662,0,1,1,8.787,0,.435.435,0,0,0,.189.51H43.77a3.474,3.474,0,0,1,2.453,1.021A6.862,6.862,0,0,0,46.291,20.211ZM25.45,44.832c4.007,5.463,13.078,3.478,14.207-2.931a1.9,1.9,0,0,0-1.646-2.114,1.378,1.378,0,0,0-1.538,1.19.724.724,0,0,1-.81.627c-1.5-.191-.146-3.6,2.532-3.255a3.355,3.355,0,0,1,2.873,2.729c4.635-1.439,6.658-6.4,4.46-10.261a2.056,2.056,0,0,0-1.757-1.028H36a1.74,1.74,0,0,1-1.32-.968,1.88,1.88,0,0,1-.1-1.476,3.213,3.213,0,1,0-6.056,0,1.832,1.832,0,0,1-1.744,2.441h-1.33V31.12a.4.4,0,0,0,.522.379,4.662,4.662,0,1,1,0,8.786.4.4,0,0,0-.529.378Zm-17.106-3.8a3.348,3.348,0,0,1,2.873-2.725,2.827,2.827,0,0,1,3.159,2.444.724.724,0,0,1-1.437.183,1.377,1.377,0,0,0-1.538-1.19,1.888,1.888,0,0,0-1.646,2.115C10.688,48.314,19.984,50.3,24,44.835V40.664a1.848,1.848,0,0,1,2.462-1.743,3.213,3.213,0,1,0,0-6.056A1.845,1.845,0,0,1,24,31.115V29.791H22.691a.393.393,0,0,0-.379.52,4.662,4.662,0,1,1-8.787,0,.394.394,0,0,0-.378-.523H5.654a1.986,1.986,0,0,0-1.738.991c-2.205,3.889-.158,8.806,4.428,10.252Z" transform="translate(0 0)"/>
      </g>
    </g>
  </g>
</svg>
