<svg xmlns="http://www.w3.org/2000/svg" xmlns:xlink="http://www.w3.org/1999/xlink" width="108" height="108" viewBox="0 0 108 108">
  <defs>
    <filter id="Path_982547" x="0" y="0" width="108" height="108" filterUnits="userSpaceOnUse">
      <feOffset dy="3" input="SourceAlpha"/>
      <feGaussianBlur stdDeviation="3" result="blur"/>
      <feFlood flood-opacity="0.161"/>
      <feComposite operator="in" in2="blur"/>
      <feComposite in="SourceGraphic"/>
    </filter>
  </defs>
  <g id="Group_1154092" data-name="Group 1154092" transform="translate(-195 -840)">
    <g id="Group_1153117" data-name="Group 1153117" transform="translate(0 -2)">
      <g id="Group_1149598" data-name="Group 1149598" transform="translate(21 644)">
        <g id="Group_1148770" data-name="Group 1148770" transform="translate(-27 -2583)">
          <g id="Group_1146954" data-name="Group 1146954" transform="translate(-415 -1202)">
            <g transform="matrix(1, 0, 0, 1, 616, 3983)" filter="url(#Path_982547)">
              <g id="Path_982547-2" data-name="Path 982547" transform="translate(9 6)" fill="#f2f8fa">
                <path d="M 45 88.5 C 39.12687683105469 88.5 33.43022537231445 87.35007476806641 28.06830024719238 85.08217620849609 C 22.88852500915527 82.89131164550781 18.23629951477051 79.75458526611328 14.2408504486084 75.75914764404297 C 10.24541282653809 71.76370239257812 7.108687400817871 67.11147308349609 4.917825222015381 61.93170166015625 C 2.649924993515015 56.56977462768555 1.5 50.87312316894531 1.5 45 C 1.5 39.12687683105469 2.649924993515015 33.43022537231445 4.917825222015381 28.06830024719238 C 7.108687400817871 22.88852500915527 10.24541282653809 18.23629951477051 14.2408504486084 14.2408504486084 C 18.23629951477051 10.24541282653809 22.88852500915527 7.108687400817871 28.06830024719238 4.917825222015381 C 33.43022537231445 2.649924993515015 39.12687683105469 1.5 45 1.5 C 50.87312316894531 1.5 56.56977462768555 2.649924993515015 61.93170166015625 4.917825222015381 C 67.11147308349609 7.108687400817871 71.76370239257812 10.24541282653809 75.75914764404297 14.2408504486084 C 79.75458526611328 18.23629951477051 82.89131164550781 22.88852500915527 85.08217620849609 28.06830024719238 C 87.35007476806641 33.43022537231445 88.5 39.12687683105469 88.5 45 C 88.5 50.87312316894531 87.35007476806641 56.56977462768555 85.08217620849609 61.93170166015625 C 82.89131164550781 67.11147308349609 79.75458526611328 71.76370239257812 75.75914764404297 75.75914764404297 C 71.76370239257812 79.75458526611328 67.11147308349609 82.89131164550781 61.93170166015625 85.08217620849609 C 56.56977462768555 87.35007476806641 50.87312316894531 88.5 45 88.5 Z" stroke="none"/>
                <path d="M 45 3 C 39.32871246337891 3 33.82865524291992 4.110054016113281 28.65262985229492 6.299339294433594 C 23.65165710449219 8.414573669433594 19.15968322753906 11.44334411621094 15.301513671875 15.301513671875 C 11.44334411621094 19.15968322753906 8.414573669433594 23.65165710449219 6.299339294433594 28.65262985229492 C 4.110054016113281 33.82865524291992 3 39.32871246337891 3 45 C 3 50.67128753662109 4.110054016113281 56.17134475708008 6.299339294433594 61.34737396240234 C 8.414573669433594 66.34834289550781 11.44334411621094 70.84031677246094 15.301513671875 74.698486328125 C 19.15968322753906 78.55665588378906 23.65165710449219 81.58542633056641 28.65262985229492 83.70066070556641 C 33.82865524291992 85.88994598388672 39.32871246337891 87 45 87 C 50.67128753662109 87 56.17134475708008 85.88994598388672 61.34737396240234 83.70066070556641 C 66.34834289550781 81.58542633056641 70.84031677246094 78.55665588378906 74.698486328125 74.698486328125 C 78.55665588378906 70.84031677246094 81.58542633056641 66.34834289550781 83.70066070556641 61.34737396240234 C 85.88994598388672 56.17134475708008 87 50.67128753662109 87 45 C 87 39.32871246337891 85.88994598388672 33.82865524291992 83.70066070556641 28.65262985229492 C 81.58542633056641 23.65165710449219 78.55665588378906 19.15968322753906 74.698486328125 15.301513671875 C 70.84031677246094 11.44334411621094 66.34834289550781 8.414573669433594 61.34737396240234 6.299339294433594 C 56.17134475708008 4.110054016113281 50.67128753662109 3 45 3 M 45 0 C 69.85281372070312 0 90 20.14718627929688 90 45 C 90 69.85281372070312 69.85281372070312 90 45 90 C 20.14718627929688 90 0 69.85281372070312 0 45 C 0 20.14718627929688 20.14718627929688 0 45 0 Z" stroke="none" fill="#6a7b7e"/>
              </g>
            </g>
          </g>
        </g>
      </g>
      <g id="enfermedad" transform="translate(219.221 862.005)">
        <path id="Path_987669" data-name="Path 987669" d="M52.794,46.723c5.352-9.373,7.22-15.488,6.347-23.169C57.645,10.4,46.595,3.1,33.656,2.437,19.516,1.705,5.678,9.869,6.611,24.68c.107,1.651.685,3.826.651,5.416-.074,3.433-4.787,8.253-4.974,10.045-.223,2.143,3.138,2.178,4.386,4.773a10.821,10.821,0,0,1,.765,4.33c0,4.543-.586,8.935,7.976,8.589,2.884-.116,4.97-.562,6.706,1.348a2.474,2.474,0,0,1,.263.355.943.943,0,0,0,.8.462H49.355a.937.937,0,0,0,.933-1.013,44.591,44.591,0,0,1-.2-5.269C50.214,51.511,51.347,49.256,52.794,46.723Z" transform="translate(-0.797 -0.743)" fill="#5dc7ec"/>
        <path id="Path_987670" data-name="Path 987670" d="M62.592,29.953c.131-.145,2.95-3.508-.131-6.294.351-2.346-1.3-4.927-2.8-5.222a6.064,6.064,0,0,0-2.313-4.051,6.711,6.711,0,0,0-4.814-1.358c-1.129-2.337-5.02-3.892-7.9-2.435a9.321,9.321,0,0,0-10.481-.318c-.848-.407-5.98-1.293-8.378,2.594,0,0-4.636-.061-5.587,4.4a6.718,6.718,0,0,0-3.414,7.376A6.414,6.414,0,0,0,22.078,29c.323,1.466,1.812,3.011,4.969,2.744a4.256,4.256,0,0,0,.459,3.081c1.391,2.6,6.074,2.585,8.954.276A8.58,8.58,0,0,0,41.1,36.242c.923,2.791,3.643,3.653,4.21,5.109.628,1.625,1.372,2.885,2.5,2.5,1.5-.506,1.105-2.8-1.086-6.069a2.248,2.248,0,0,0,.7.22,3.264,3.264,0,0,0,2.744-1.836c2.632,1.288,7.128,1.026,6.9-.894,3.1.5,5.8-2.875,5.526-5.315Z" transform="translate(-8.42 -4.158)" fill="#ff5581"/>
        <g id="Group_1153116" data-name="Group 1153116" transform="translate(0.779 0.995)">
          <path id="Path_987671" data-name="Path 987671" d="M17.727,68.077a.7.7,0,0,1-.5-1.2l3.01-3.011a.7.7,0,1,1,.993.993l-3.01,3.009a.7.7,0,0,1-.5.208Z" transform="translate(-9.416 -34.313)" fill="#332c44"/>
          <path id="Path_987672" data-name="Path 987672" d="M20.71,68.077a.7.7,0,0,1-.5-.206L17.2,64.862a.7.7,0,0,1,.994-1l3.009,3.009a.7.7,0,0,1-.5,1.2Z" transform="translate(-9.402 -34.314)" fill="#332c44"/>
          <circle id="Ellipse_11660" data-name="Ellipse 11660" cx="0.563" cy="0.563" r="0.563" transform="translate(34.882 24.673)" fill="#332c44"/>
          <circle id="Ellipse_11661" data-name="Ellipse 11661" cx="0.563" cy="0.563" r="0.563" transform="translate(27.36 17.704)" fill="#332c44"/>
          <circle id="Ellipse_11662" data-name="Ellipse 11662" cx="0.563" cy="0.563" r="0.563" transform="translate(31.902 13.428)" fill="#332c44"/>
          <circle id="Ellipse_11663" data-name="Ellipse 11663" cx="0.563" cy="0.563" r="0.563" transform="translate(38.684 17.944)" fill="#332c44"/>
          <circle id="Ellipse_11664" data-name="Ellipse 11664" cx="0.563" cy="0.563" r="0.563" transform="translate(10.989 16.705)" fill="#332c44"/>
          <circle id="Ellipse_11665" data-name="Ellipse 11665" cx="0.563" cy="0.563" r="0.563" transform="translate(46.316 11.854)" fill="#332c44"/>
          <circle id="Ellipse_11666" data-name="Ellipse 11666" cx="0.563" cy="0.563" r="0.563" transform="translate(22.608 26.645)" fill="#332c44"/>
          <circle id="Ellipse_11667" data-name="Ellipse 11667" cx="0.563" cy="0.563" r="0.563" transform="translate(46.879 26.429)" fill="#332c44"/>
          <circle id="Ellipse_11668" data-name="Ellipse 11668" cx="0.563" cy="0.563" r="0.563" transform="translate(16.64 20.17)" fill="#332c44"/>
          <circle id="Ellipse_11669" data-name="Ellipse 11669" cx="0.563" cy="0.563" r="0.563" transform="translate(20.089 10.069)" fill="#332c44"/>
          <path id="Path_987673" data-name="Path 987673" d="M49.58,60.007a.7.7,0,0,1-.7-.639,52.776,52.776,0,0,1-.285-6.384c.133-2.462,1.452-4.958,2.791-7.306,5.446-9.536,7.084-15.487,6.259-22.741C56.311,11.195,46.567,3.151,32.821,2.444c-8.313-.433-16.2,2.267-21.1,7.212a18.142,18.142,0,0,0-5.21,14.288c.044.669.17,1.434.3,2.245a18.733,18.733,0,0,1,.349,3.231c-.047,2.254-1.83,4.923-3.261,7.068a11.858,11.858,0,0,0-1.715,3.034c-.066.633.352.955,1.475,1.648a6.769,6.769,0,0,1,2.845,2.747,10.892,10.892,0,0,1,.828,4.47l.006.137c0,.307,0,.585,0,.862-.016,2.28-.032,4.434,1.262,5.686,1.075,1.04,3.035,1.485,5.987,1.368.395-.016.775-.038,1.14-.059,2.358-.138,4.393-.256,6.114,1.639a3.981,3.981,0,0,1,.626.99.7.7,0,1,1-1.271.6,2.616,2.616,0,0,0-.394-.644c-1.27-1.4-2.751-1.311-4.993-1.179-.375.022-.761.044-1.165.06-3.361.134-5.656-.441-7.021-1.762-1.727-1.67-1.707-4.23-1.69-6.706,0-.273,0-.547,0-.823l0-.111a10.124,10.124,0,0,0-.669-3.873,5.485,5.485,0,0,0-2.339-2.2c-1.077-.672-2.3-1.426-2.135-3,.094-.894.91-2.119,1.944-3.669,1.33-1.993,2.985-4.472,3.025-6.318a17.833,17.833,0,0,0-.331-2.972c-.133-.808-.27-1.644-.318-2.383A19.494,19.494,0,0,1,10.729,8.671C15.9,3.443,24.188.59,32.9,1.041c14.467.743,24.73,9.275,26.146,21.739.863,7.591-.821,13.768-6.435,23.6-1.532,2.684-2.5,4.738-2.608,6.683a49.725,49.725,0,0,0,.281,6.182.7.7,0,0,1-.636.763l-.065,0Z" transform="translate(-0.779 -0.995)" fill="#332c44"/>
          <path id="Path_987674" data-name="Path 987674" d="M19.946,97.91a.7.7,0,0,1-.281-.059,12.01,12.01,0,0,0-3.469-.36.718.718,0,0,1-.715-.69.7.7,0,0,1,.69-.715,13.246,13.246,0,0,1,4.053.476.7.7,0,0,1-.281,1.347Z" transform="translate(-8.596 -51.553)" fill="#332c44"/>
          <path id="Path_987675" data-name="Path 987675" d="M95.348,40.34a2.254,2.254,0,0,1-2.08-.837,2.138,2.138,0,0,1-.2-2.189.7.7,0,1,0-1.3-.533,3.553,3.553,0,0,0,.248,3.372A4.163,4.163,0,0,1,89.746,43.4a3.016,3.016,0,0,1-3.074-.024.7.7,0,1,0-.786,1.164,3.99,3.99,0,0,0,2.253.673,4.971,4.971,0,0,0,2.244-.562,5.584,5.584,0,0,0,2.843-3.372,3.7,3.7,0,0,0,1.823.483,3.747,3.747,0,0,0,.479-.03.7.7,0,1,0-.179-1.394Z" transform="translate(-45.865 -19.778)" fill="#332c44"/>
          <path id="Path_987676" data-name="Path 987676" d="M85.826,26.014a2.539,2.539,0,0,1,.821,1.945.7.7,0,0,0,.7.708h.005a.7.7,0,0,0,.7-.7,3.943,3.943,0,0,0-1.264-2.98,4.269,4.269,0,0,0-2.1-1.085,2.888,2.888,0,0,0-1-1.57.7.7,0,1,0-.831,1.132,1.579,1.579,0,0,1,.515,1.03,1.927,1.927,0,0,1-.584,1.5.7.7,0,1,0,1.041.944,3.573,3.573,0,0,0,.871-1.592,3.013,3.013,0,0,1,1.129.667Z" transform="translate(-44.265 -12.268)" fill="#332c44"/>
          <path id="Path_987677" data-name="Path 987677" d="M66.572,47.1a.7.7,0,0,0-.811.526,1.9,1.9,0,0,1-.96.693,2.147,2.147,0,0,1-1.78-.2.7.7,0,0,0-.67,1.235,3.756,3.756,0,0,0,1.8.476,3.433,3.433,0,0,0,1.485-.34,2.647,2.647,0,0,0,1.5-1.576.7.7,0,0,0-.563-.818Z" transform="translate(-33.321 -25.503)" fill="#332c44"/>
          <path id="Path_987678" data-name="Path 987678" d="M60.317,20.457a.7.7,0,0,0-.187-.975,4.96,4.96,0,0,0-7.1,1.1.7.7,0,1,0,1.154.8,3.55,3.55,0,0,1,5.161-.734.7.7,0,0,0,.976-.187Z" transform="translate(-28.491 -10.276)" fill="#332c44"/>
          <path id="Path_987679" data-name="Path 987679" d="M38.765,29.437a5.868,5.868,0,0,0-2.711.485,2.669,2.669,0,0,0-.725-1.247.7.7,0,1,0-.962,1.024,1.561,1.561,0,0,1,.4,1.144,1.54,1.54,0,0,1-.379,1.08.7.7,0,1,0,.939,1.045,2.679,2.679,0,0,0,.781-1.483,4.385,4.385,0,0,1,2.563-.646,3.474,3.474,0,0,1,2.482,1.267.7.7,0,1,0,1.068-.914A4.9,4.9,0,0,0,38.765,29.437Z" transform="translate(-18.519 -15.611)" fill="#332c44"/>
          <path id="Path_987680" data-name="Path 987680" d="M62.374,22.6a6.007,6.007,0,0,0-.584-3.013,4.873,4.873,0,0,0-2.333-2.482,6.633,6.633,0,0,0-2.5-4.072,7.467,7.467,0,0,0-4.854-1.545,6.62,6.62,0,0,0-3.465-2.576,6.788,6.788,0,0,0-4.741.069,9.267,9.267,0,0,0-5.339-1.663,10.262,10.262,0,0,0-5.3,1.387,9.268,9.268,0,0,0-5.635.27,6.586,6.586,0,0,0-3.047,2.408,6.273,6.273,0,0,0-5.807,4.623,7.426,7.426,0,0,0-2.3,2.116,7.2,7.2,0,0,0-1.194,5.9,6.967,6.967,0,0,0,5.439,4.8c.511,1.424,1.975,2.821,4.7,2.861a5.187,5.187,0,0,0,.653,2.682,5.006,5.006,0,0,0,4.656,2.355h.017a8.87,8.87,0,0,0,4.941-1.559,9.767,9.767,0,0,0,4.123,1,8.744,8.744,0,0,0,2.721,3.27,4.5,4.5,0,0,1,1.311,1.382c.367.95,1.171,3.027,2.728,3.027a2.019,2.019,0,0,0,.651-.114A1.9,1.9,0,0,0,48.471,42.5c.433-1.27-.285-3.066-1.195-4.649a4.434,4.434,0,0,0,2.395-1.581,9.985,9.985,0,0,0,3.41.595,6.79,6.79,0,0,0,2.328-.357,2.264,2.264,0,0,0,1.441-1.271h.023a5.608,5.608,0,0,0,4.092-2.014A5.742,5.742,0,0,0,62.493,29.4c1.118-1.433,2.285-4.359-.119-6.8Zm-1.521,5.924c.545.939.148,2.525-.944,3.77-.463.527-2.142,2.177-4.308,1.271a.7.7,0,1,0-.541,1.3c.094.039.185.068.277.1a1.639,1.639,0,0,1-.424.229c-1.793.68-5.424.083-6.436-1.377a.7.7,0,1,0-1.157.8,3.908,3.908,0,0,0,1.066,1.011,2.736,2.736,0,0,1-1.682.89,2.52,2.52,0,0,1-.328-.082,12.515,12.515,0,0,0-1.066-1.243.7.7,0,1,0-.963,1.022,10.907,10.907,0,0,1,.99,1.174c1.729,2.426,2.022,4.027,1.807,4.659a.515.515,0,0,1-.364.347c-.177.061-.719.243-1.62-2.09a5.34,5.34,0,0,0-1.721-1.952,8.326,8.326,0,0,1-2.125-2.323,2.631,2.631,0,0,0,.995-.395.7.7,0,1,0-.833-1.131,2.927,2.927,0,0,1-1.225.249,8.648,8.648,0,0,1-3.392-.594,6.8,6.8,0,0,0,1.035-1.431.7.7,0,0,0-1.237-.666,6.8,6.8,0,0,1-5.9,3.255h-.015A3.665,3.665,0,0,1,27.317,33.7a3.532,3.532,0,0,1-.4-2.576A4,4,0,0,1,28.952,28.7a8.623,8.623,0,0,1,6.723-.395.7.7,0,1,0,.418-1.341,10.026,10.026,0,0,0-7.828.511,5.545,5.545,0,0,0-2.549,2.8,3.776,3.776,0,0,1-3.346-1.306c.13,0,.259,0,.389-.015a.7.7,0,0,0-.11-1.4,5.805,5.805,0,0,1-6-3.872,5.8,5.8,0,0,1,.975-4.744,5.573,5.573,0,0,1,3.909-2.388.7.7,0,1,0-.127-1.4,6.073,6.073,0,0,0-.865.15,4.73,4.73,0,0,1,3.22-2.371c-.011.028-.024.052-.035.08a.7.7,0,1,0,1.311.5,5.391,5.391,0,0,1,3.113-3.231A7.868,7.868,0,0,1,31.8,9.851c-.026.027-.058.051-.083.078a.7.7,0,1,0,1.03.954,8.158,8.158,0,0,1,5.8-2.159,7.57,7.57,0,0,1,5.69,2.435.7.7,0,0,0,1.05-.937c-.054-.06-.115-.112-.17-.171a5.611,5.611,0,0,1,3.07.187,5.526,5.526,0,0,1,2.382,1.533,4.865,4.865,0,0,0-1.221.609.7.7,0,1,0,.8,1.154c1.535-1.066,4.1-.8,5.956.617A5.771,5.771,0,0,1,58.25,19.1a.7.7,0,0,0,1.4,0c0-.061-.007-.118-.007-.179a4.654,4.654,0,0,1,.873,1.272,4.022,4.022,0,0,1,.047,3.7.7.7,0,0,0,1.218.7c.057-.1.1-.2.148-.305a3.377,3.377,0,0,1,0,3.375.7.7,0,0,0-1.081.866Z" transform="translate(-8.387 -4.357)" fill="#332c44"/>
        </g>
      </g>
    </g>
  </g>
</svg>
