<svg xmlns="http://www.w3.org/2000/svg" xmlns:xlink="http://www.w3.org/1999/xlink" width="99.504" height="99.504" viewBox="0 0 99.504 99.504">
  <defs>
    <filter id="Path_982547" x="0" y="0" width="99.504" height="99.504" filterUnits="userSpaceOnUse">
      <feOffset dy="3" input="SourceAlpha"/>
      <feGaussianBlur stdDeviation="3" result="blur"/>
      <feFlood flood-opacity="0.161"/>
      <feComposite operator="in" in2="blur"/>
      <feComposite in="SourceGraphic"/>
    </filter>
  </defs>
  <g id="Group_1154125" data-name="Group 1154125" transform="translate(-194 -12023)">
    <g id="Group_1153960" data-name="Group 1153960" transform="translate(0 4)">
      <g id="Group_1152615" data-name="Group 1152615" transform="translate(-0.496 10241)">
        <g id="Group_1146971" data-name="Group 1146971" transform="translate(203.496 1784)">
          <g id="Group_1146954" data-name="Group 1146954">
            <g transform="matrix(1, 0, 0, 1, -9, -6)" filter="url(#Path_982547)">
              <g id="Path_982547-2" data-name="Path 982547" transform="translate(9 6)" fill="#f2f8fa">
                <path d="M 40.7520751953125 80.00415802001953 C 35.45241546630859 80.00415802001953 30.31208610534668 78.96654510498047 25.47385215759277 76.92014312744141 C 20.79992294311523 74.9432373046875 16.60199356079102 72.11281585693359 12.99666309356689 68.50748443603516 C 9.391345977783203 64.90216064453125 6.560910701751709 60.70422744750977 4.584004402160645 56.03028869628906 C 2.53761625289917 51.19206237792969 1.500004649162292 46.05173492431641 1.500004649162292 40.7520751953125 C 1.500004649162292 35.45241546630859 2.53761625289917 30.31208610534668 4.584004402160645 25.47385215759277 C 6.560910701751709 20.79992294311523 9.391345977783203 16.60199356079102 12.99666309356689 12.99666309356689 C 16.60199356079102 9.391345977783203 20.79992294311523 6.560910701751709 25.47385215759277 4.584004402160645 C 30.31208610534668 2.53761625289917 35.45241546630859 1.500004649162292 40.7520751953125 1.500004649162292 C 46.05173492431641 1.500004649162292 51.19206237792969 2.53761625289917 56.03028869628906 4.584004402160645 C 60.70422744750977 6.560910701751709 64.90216064453125 9.391345977783203 68.50748443603516 12.99666309356689 C 72.11281585693359 16.60199356079102 74.9432373046875 20.79992294311523 76.92014312744141 25.47385215759277 C 78.96654510498047 30.31208610534668 80.00415802001953 35.45241546630859 80.00415802001953 40.7520751953125 C 80.00415802001953 46.05173492431641 78.96654510498047 51.19206237792969 76.92014312744141 56.03028869628906 C 74.9432373046875 60.70421600341797 72.11281585693359 64.90216064453125 68.50748443603516 68.50748443603516 C 64.90216064453125 72.11281585693359 60.70421600341797 74.9432373046875 56.03028869628906 76.92014312744141 C 51.19206237792969 78.96654510498047 46.05173492431641 80.00415802001953 40.7520751953125 80.00415802001953 Z" stroke="none"/>
                <path d="M 40.7520751953125 2.999992370605469 C 35.65426254272461 2.999992370605469 30.71051406860352 3.99774169921875 26.05818176269531 5.96551513671875 C 21.56304931640625 7.866798400878906 17.52538299560547 10.58927154541016 14.05732727050781 14.05732727050781 C 10.58927154541016 17.52538299560547 7.866798400878906 21.56304931640625 5.96551513671875 26.05818176269531 C 3.99774169921875 30.71051406860352 2.999992370605469 35.65426254272461 2.999992370605469 40.7520751953125 C 2.999992370605469 45.84988784790039 3.99774169921875 50.79363250732422 5.96551513671875 55.44596862792969 C 7.866798400878906 59.94110107421875 10.58927154541016 63.97876739501953 14.05732727050781 67.44682312011719 C 17.52538299560547 70.91487121582031 21.56304931640625 73.63735198974609 26.05818176269531 75.53863525390625 C 30.71051406860352 77.50640869140625 35.65426254272461 78.50415802001953 40.7520751953125 78.50415802001953 C 45.84988784790039 78.50415802001953 50.79363250732422 77.50640869140625 55.44596862792969 75.53863525390625 C 59.94110107421875 73.63735198974609 63.97876739501953 70.91487121582031 67.44682312011719 67.44682312011719 C 70.91487121582031 63.97876739501953 73.63735198974609 59.94110107421875 75.53863525390625 55.44596862792969 C 77.50640869140625 50.79363250732422 78.50415802001953 45.84988784790039 78.50415802001953 40.7520751953125 C 78.50415802001953 35.65426254272461 77.50640869140625 30.71051406860352 75.53863525390625 26.05818176269531 C 73.63735198974609 21.56304931640625 70.91487121582031 17.52538299560547 67.44682312011719 14.05732727050781 C 63.97876739501953 10.58927154541016 59.94110107421875 7.866798400878906 55.44596862792969 5.96551513671875 C 50.79363250732422 3.99774169921875 45.84988784790039 2.999992370605469 40.7520751953125 2.999992370605469 M 40.7520751953125 -7.62939453125e-06 C 63.25881958007812 -7.62939453125e-06 81.50415802001953 18.24532699584961 81.50415802001953 40.7520751953125 C 81.50415802001953 63.25881958007812 63.25881958007812 81.50415802001953 40.7520751953125 81.50415802001953 C 18.24532699584961 81.50415802001953 -7.62939453125e-06 63.25881958007812 -7.62939453125e-06 40.7520751953125 C -7.62939453125e-06 18.24532699584961 18.24532699584961 -7.62939453125e-06 40.7520751953125 -7.62939453125e-06 Z" stroke="none" fill="#6a7b7e"/>
              </g>
            </g>
          </g>
        </g>
      </g>
      <g id="contabilidad" transform="translate(217 12039)">
        <g id="Group_1153958" data-name="Group 1153958" transform="translate(1.84 1.84)">
          <g id="Group_1153937" data-name="Group 1153937" transform="translate(8.402 26.4)">
            <path id="Path_989252" data-name="Path 989252" d="M15.361,38.949a1.685,1.685,0,0,0,1.68,1.68,1.693,1.693,0,0,0-1.68,1.68,1.685,1.685,0,0,0,1.68,1.68,1.693,1.693,0,0,0-1.68,1.68,1.685,1.685,0,0,0,1.68,1.68h1.68v1.68a1.685,1.685,0,0,1-1.68,1.68H13.68A1.685,1.685,0,0,1,12,49.031V41.469a3.359,3.359,0,0,1,1.344-2.689l1.244-.933a1.93,1.93,0,0,0,.773-1.546V35.84a1.952,1.952,0,0,0-.563-1.37,1.982,1.982,0,0,0-1.168-.555l.017-.134a11.512,11.512,0,0,0,1.714.126,11.652,11.652,0,0,0,3.361-.487v3.848h-1.68a1.693,1.693,0,0,0-1.68,1.68Z" transform="translate(-12 -33.42)" fill="#969faa"/>
          </g>
          <g id="Group_1153938" data-name="Group 1153938" transform="translate(0 3.361)">
            <path id="Path_989253" data-name="Path 989253" d="M17.124,29.039a11.652,11.652,0,0,1-3.361.487,11.512,11.512,0,0,1-1.714-.126,11.755,11.755,0,1,1,5.075-.361Z" transform="translate(-2 -6)" fill="#fcd770"/>
          </g>
          <g id="Group_1153939" data-name="Group 1153939" transform="translate(3.361 6.722)">
            <path id="Path_989254" data-name="Path 989254" d="M14.4,10a8.365,8.365,0,0,1,5.764,2.294l-.723.79-3.361,3.638-3.361-3.361L9.361,16.722,6.143,19.94A8.4,8.4,0,0,1,14.4,10Z" transform="translate(-6 -10)" fill="#69d6f4"/>
          </g>
          <g id="Group_1153940" data-name="Group 1153940" transform="translate(3.504 9.016)">
            <path id="Path_989255" data-name="Path 989255" d="M20.193,12.73l-.723.79L16.11,17.158,12.749,13.8,9.388,17.158,6.17,20.376a8.37,8.37,0,0,0,3.218,5.176v.008a8.395,8.395,0,0,0,10.083,0v-.008a8.388,8.388,0,0,0,.723-12.822Z" transform="translate(-6.17 -12.73)" fill="#ff826e"/>
          </g>
          <g id="Group_1153941" data-name="Group 1153941" transform="translate(26.887 0)">
            <path id="Path_989256" data-name="Path 989256" d="M54.166,2h-16.8A3.36,3.36,0,0,0,34,5.361V32.248a3.36,3.36,0,0,0,3.361,3.361H57.526V5.361A3.36,3.36,0,0,0,54.166,2Z" transform="translate(-34 -2)" fill="#aab2bd"/>
          </g>
          <g id="Group_1153942" data-name="Group 1153942" transform="translate(30.248 3.361)">
            <path id="Path_989257" data-name="Path 989257" d="M54.8,6.84v5.041a.843.843,0,0,1-.84.84H38.84a.843.843,0,0,1-.84-.84V6.84A.843.843,0,0,1,38.84,6H53.964A.843.843,0,0,1,54.8,6.84Z" transform="translate(-38 -6)" fill="#69d6f4"/>
          </g>
          <g id="Group_1153943" data-name="Group 1153943" transform="translate(43.692 26.887)">
            <path id="Path_989258" data-name="Path 989258" d="M57.361,34.84v2.521L54,36.521V34.84a.843.843,0,0,1,.84-.84h1.68A.843.843,0,0,1,57.361,34.84Z" transform="translate(-54 -34)" fill="#e6e9ed"/>
          </g>
          <g id="Group_1153944" data-name="Group 1153944" transform="translate(43.692 20.166)">
            <path id="Path_989259" data-name="Path 989259" d="M57.361,26.84v1.68a.843.843,0,0,1-.84.84H54.84a.843.843,0,0,1-.84-.84V26.84a.843.843,0,0,1,.84-.84h1.68A.843.843,0,0,1,57.361,26.84Z" transform="translate(-54 -26)" fill="#e6e9ed"/>
          </g>
          <g id="Group_1153945" data-name="Group 1153945" transform="translate(43.692 13.444)">
            <path id="Path_989260" data-name="Path 989260" d="M57.361,18.84v1.68a.843.843,0,0,1-.84.84H54.84a.843.843,0,0,1-.84-.84V18.84a.843.843,0,0,1,.84-.84h1.68A.843.843,0,0,1,57.361,18.84Z" transform="translate(-54 -18)" fill="#e6e9ed"/>
          </g>
          <g id="Group_1153946" data-name="Group 1153946" transform="translate(36.97 13.444)">
            <path id="Path_989261" data-name="Path 989261" d="M49.361,18.84v1.68a.843.843,0,0,1-.84.84H46.84a.843.843,0,0,1-.84-.84V18.84a.843.843,0,0,1,.84-.84h1.68A.843.843,0,0,1,49.361,18.84Z" transform="translate(-46 -18)" fill="#e6e9ed"/>
          </g>
          <g id="Group_1153947" data-name="Group 1153947" transform="translate(30.248 13.444)">
            <path id="Path_989262" data-name="Path 989262" d="M41.361,18.84v1.68a.843.843,0,0,1-.84.84H38.84a.843.843,0,0,1-.84-.84V18.84a.843.843,0,0,1,.84-.84h1.68A.843.843,0,0,1,41.361,18.84Z" transform="translate(-38 -18)" fill="#e6e9ed"/>
          </g>
          <g id="Group_1153948" data-name="Group 1153948" transform="translate(30.248 20.166)">
            <path id="Path_989263" data-name="Path 989263" d="M41.361,26.84v1.68a.843.843,0,0,1-.84.84H38.84a.843.843,0,0,1-.84-.84V26.84a.843.843,0,0,1,.84-.84h1.68A.843.843,0,0,1,41.361,26.84Z" transform="translate(-38 -26)" fill="#e6e9ed"/>
          </g>
          <g id="Group_1153949" data-name="Group 1153949" transform="translate(30.248 26.887)">
            <path id="Path_989264" data-name="Path 989264" d="M41.361,34.84v1.68a.843.843,0,0,1-.84.84H38.84a.843.843,0,0,1-.84-.84V34.84a.843.843,0,0,1,.84-.84h1.68A.843.843,0,0,1,41.361,34.84Z" transform="translate(-38 -34)" fill="#e6e9ed"/>
          </g>
          <g id="Group_1153950" data-name="Group 1153950" transform="translate(35.29 47.053)">
            <path id="Path_989265" data-name="Path 989265" d="M57.444,61.361H44A4.058,4.058,0,0,1,45.185,58.5l.5-.5H55.763l.5.5A4.058,4.058,0,0,1,57.444,61.361Z" transform="translate(-44 -58)" fill="#ff826e"/>
          </g>
          <g id="Group_1153951" data-name="Group 1153951" transform="translate(3.361 47.053)">
            <path id="Path_989266" data-name="Path 989266" d="M17.763,58l1.68,3.361H6L7.68,58Z" transform="translate(-6 -58)" fill="#ff826e"/>
          </g>
          <g id="Group_1153952" data-name="Group 1153952" transform="translate(31.929 20.165)">
            <path id="Path_989267" data-name="Path 989267" d="M57.216,36.6a1.673,1.673,0,0,1,1.269,1.63v8.688a5.021,5.021,0,0,1-1.1,3.142l-2.26,2.823H45.041l-2.26-2.823a5.021,5.021,0,0,1-1.1-3.142V43.157a5.132,5.132,0,0,0-.529-2.26l-.731-1.454-.277-.555a1.36,1.36,0,0,1,1.218-1.966,3.672,3.672,0,0,1,3.68,3.68V27.68A1.685,1.685,0,0,1,46.722,26a1.693,1.693,0,0,1,1.68,1.68V34.4l3.361.84,3.361.84Z" transform="translate(-40 -26)" fill="#f0d0b4"/>
          </g>
          <g id="Group_1153953" data-name="Group 1153953" transform="translate(1.68 26.887)">
            <path id="Path_989268" data-name="Path 989268" d="M17.444,49.124v5.041H7.361v-.84l-3.05-9.159A5.842,5.842,0,0,1,4,42.268a6.042,6.042,0,0,1,.714-2.848A6.144,6.144,0,0,1,6.68,37.252l4.394-2.924A1.886,1.886,0,0,1,12.15,34a1.619,1.619,0,0,1,.2.008,1.982,1.982,0,0,1,1.168.555,1.952,1.952,0,0,1,.563,1.37v.462a1.93,1.93,0,0,1-.773,1.546l-1.244.933a3.359,3.359,0,0,0-1.344,2.689v7.562A1.685,1.685,0,0,0,12.4,50.8h3.361A1.685,1.685,0,0,0,17.444,49.124Z" transform="translate(-4 -34)" fill="#f0d0b4"/>
          </g>
          <g id="Group_1153954" data-name="Group 1153954" transform="translate(11.763 36.97)">
            <path id="Path_989269" data-name="Path 989269" d="M21.041,46a1.685,1.685,0,0,1,1.68,1.68,1.693,1.693,0,0,1-1.68,1.68H17.68A1.685,1.685,0,0,1,16,47.68,1.693,1.693,0,0,1,17.68,46Z" transform="translate(-16 -46)" fill="#f0d0b4"/>
          </g>
          <g id="Group_1153955" data-name="Group 1153955" transform="translate(11.763 33.609)">
            <path id="Path_989270" data-name="Path 989270" d="M21.041,42a1.685,1.685,0,0,1,1.68,1.68,1.693,1.693,0,0,1-1.68,1.68H17.68A1.685,1.685,0,0,1,16,43.68,1.693,1.693,0,0,1,17.68,42Z" transform="translate(-16 -42)" fill="#f0d0b4"/>
          </g>
          <g id="Group_1153956" data-name="Group 1153956" transform="translate(11.763 30.248)">
            <path id="Path_989271" data-name="Path 989271" d="M21.041,38a1.685,1.685,0,0,1,1.68,1.68,1.693,1.693,0,0,1-1.68,1.68H17.68A1.685,1.685,0,0,1,16,39.68,1.693,1.693,0,0,1,17.68,38h3.361Z" transform="translate(-16 -38)" fill="#f0d0b4"/>
          </g>
          <g id="Group_1153957" data-name="Group 1153957" transform="translate(15.124 26.887)">
            <path id="Path_989272" data-name="Path 989272" d="M25.041,34a1.685,1.685,0,0,1,1.68,1.68,1.693,1.693,0,0,1-1.68,1.68H20V34Z" transform="translate(-20 -34)" fill="#f0d0b4"/>
          </g>
        </g>
        <g id="Group_1153959" data-name="Group 1153959" transform="translate(1 1)">
          <path id="Path_989273" data-name="Path 989273" d="M26.207,17.6a12.526,12.526,0,0,0-2.251-7.19l-1.38.96a10.906,10.906,0,1,1-3.45-3.2l.851-1.449A12.6,12.6,0,1,0,9.407,29.473l-3.67,2.448a6.863,6.863,0,0,0-2.7,7.881l3.009,9.027v.506l-2.2,4.4H20l-2.2-4.4V43.651h.84a2.51,2.51,0,0,0,1.865-4.2,2.482,2.482,0,0,0,0-3.361,2.443,2.443,0,0,0,.5-2.521h.995a2.521,2.521,0,1,0,0-5.041H19.864A12.6,12.6,0,0,0,26.207,17.6ZM19.485,37.769a.842.842,0,0,1-.84.84H15.284a.84.84,0,0,1,0-1.68h3.361A.842.842,0,0,1,19.485,37.769ZM14.2,30.177a12.7,12.7,0,0,0,1.923-.224v1.934h-.84a2.5,2.5,0,0,0-.875.166,2.832,2.832,0,0,0,.034-.292V31.3a2.75,2.75,0,0,0-.243-1.125ZM4.626,39.27a5.186,5.186,0,0,1,2.043-5.952l4.392-2.927a1.095,1.095,0,0,1,1.7.911v.459a1.1,1.1,0,0,1-.438.876l-1.243.932A4.222,4.222,0,0,0,9.4,36.929v7.562a2.524,2.524,0,0,0,2.521,2.521h3.361a2.492,2.492,0,0,0,.84-.155v1.835h-8.4v-.136ZM6.561,52.053l.84-1.68h9.044l.84,1.68Zm9.563-7.562a.842.842,0,0,1-.84.84H11.923a.842.842,0,0,1-.84-.84V36.929a2.533,2.533,0,0,1,1.008-2.017l.672-.5a2.5,2.5,0,0,0,.655,1.68,2.482,2.482,0,0,0,0,3.361,2.51,2.51,0,0,0,1.865,4.2h.84Zm2.521-2.521H15.284a.84.84,0,0,1,0-1.68h3.361a.84.84,0,0,1,0,1.68Zm.84-7.562a.842.842,0,0,1-.84.84H15.284a.84.84,0,1,1,0-1.68h3.361A.842.842,0,0,1,19.485,34.408Zm3.361-3.361a.842.842,0,0,1-.84.84H17.8v-1.68h4.2A.842.842,0,0,1,22.846,31.047Z" transform="translate(-1 -1.639)"/>
          <path id="Path_989274" data-name="Path 989274" d="M54.006,1H37.2A4.206,4.206,0,0,0,33,5.2V32.088a4.206,4.206,0,0,0,4.2,4.2h1.581l.5.991a4.231,4.231,0,0,1,.444,1.88v3.763A5.906,5.906,0,0,0,41.011,46.6L42.8,48.833a4.859,4.859,0,0,0-1.4,3.421v.84H56.526v-.84a4.863,4.863,0,0,0-1.4-3.421L56.918,46.6a5.9,5.9,0,0,0,1.289-3.673V5.2A4.206,4.206,0,0,0,54.006,1ZM34.68,32.088V5.2A2.524,2.524,0,0,1,37.2,2.68h16.8A2.524,2.524,0,0,1,56.526,5.2V31.873c-.076-.027-.15-.058-.229-.078l-1.452-.363V29.568a1.682,1.682,0,0,0-1.68-1.68h-1.68a1.682,1.682,0,0,0-1.68,1.68v.6l-1.68-.42V23.686a2.521,2.521,0,1,0-5.041,0v9.436a4.482,4.482,0,0,0-1.963-.944,1.666,1.666,0,0,0,.282-.929v-1.68a1.682,1.682,0,0,0-1.68-1.68h-1.68a1.682,1.682,0,0,0-1.68,1.68v1.68a1.682,1.682,0,0,0,1.68,1.68h.484a1.961,1.961,0,0,0-.446,1.68H37.2a2.524,2.524,0,0,1-2.521-2.521Zm18.485-1.076-1.68-.42V29.568h1.68Zm-15.124.236v-1.68h1.68v1.68Zm5.151,20.166a3.2,3.2,0,0,1,.832-1.434l.246-.246h9.387l.246.246a3.2,3.2,0,0,1,.832,1.434Zm13.334-8.49a4.217,4.217,0,0,1-.921,2.625l-2,2.5H44.326l-2-2.5a4.221,4.221,0,0,1-.92-2.624V39.161a5.908,5.908,0,0,0-.621-2.631l-1-2.009a.52.52,0,0,1,.465-.752,2.845,2.845,0,0,1,2.842,2.842v3.88h1.68v-16.8a.84.84,0,0,1,1.68,0v16.8h1.68V31.484l1.68.42v8.586h1.68V32.325l1.68.42v7.746h1.68V33.165l1.044.261a.839.839,0,0,1,.637.815v8.683Z" transform="translate(-6.113 -1)"/>
          <path id="Path_989275" data-name="Path 989275" d="M38.68,13.4H53.8a1.682,1.682,0,0,0,1.68-1.68V6.68A1.682,1.682,0,0,0,53.8,5H38.68A1.682,1.682,0,0,0,37,6.68v5.041A1.682,1.682,0,0,0,38.68,13.4Zm0-6.722H53.8v5.041H38.68Z" transform="translate(-6.752 -1.639)"/>
          <path id="Path_989276" data-name="Path 989276" d="M38.68,22.041h1.68a1.682,1.682,0,0,0,1.68-1.68V18.68A1.682,1.682,0,0,0,40.361,17H38.68A1.682,1.682,0,0,0,37,18.68v1.68A1.682,1.682,0,0,0,38.68,22.041Zm0-3.361h1.68v1.68H38.68Z" transform="translate(-6.752 -3.556)"/>
          <path id="Path_989277" data-name="Path 989277" d="M48.361,17H46.68A1.682,1.682,0,0,0,45,18.68v1.68a1.682,1.682,0,0,0,1.68,1.68h1.68a1.682,1.682,0,0,0,1.68-1.68V18.68A1.682,1.682,0,0,0,48.361,17Zm-1.68,3.361V18.68h1.68v1.68Z" transform="translate(-8.03 -3.556)"/>
          <path id="Path_989278" data-name="Path 989278" d="M56.361,17H54.68A1.682,1.682,0,0,0,53,18.68v1.68a1.682,1.682,0,0,0,1.68,1.68h1.68a1.682,1.682,0,0,0,1.68-1.68V18.68A1.682,1.682,0,0,0,56.361,17Zm-1.68,3.361V18.68h1.68v1.68Z" transform="translate(-9.308 -3.556)"/>
          <path id="Path_989279" data-name="Path 989279" d="M38.68,30.041h1.68a1.682,1.682,0,0,0,1.68-1.68V26.68A1.682,1.682,0,0,0,40.361,25H38.68A1.682,1.682,0,0,0,37,26.68v1.68A1.682,1.682,0,0,0,38.68,30.041Zm0-3.361h1.68v1.68H38.68Z" transform="translate(-6.752 -4.835)"/>
          <path id="Path_989280" data-name="Path 989280" d="M56.361,25H54.68A1.682,1.682,0,0,0,53,26.68v1.68a1.682,1.682,0,0,0,1.68,1.68h1.68a1.682,1.682,0,0,0,1.68-1.68V26.68A1.682,1.682,0,0,0,56.361,25Zm-1.68,3.361V26.68h1.68v1.68Z" transform="translate(-9.308 -4.835)"/>
          <path id="Path_989281" data-name="Path 989281" d="M21.8,5.68h2.282L15.9,14.551l-3.337-3.337L6.7,17.077a7.559,7.559,0,0,1,10.612-6.548l.683-1.535a9.244,9.244,0,1,0,4.279,3.873l-1.459.834a7.549,7.549,0,0,1-.691,8.485V12.45L25.166,6.99V9.041h1.68V4H21.8ZM10.041,16.111l1.68-1.68V24.565a7.494,7.494,0,0,1-1.68-.838ZM6.906,19.246l1.454-1.454v4.394A7.542,7.542,0,0,1,6.906,19.246Zm6.5,5.71V14.431l1.68,1.68v8.845a7.145,7.145,0,0,1-1.68,0Zm5.041-1.229a7.566,7.566,0,0,1-1.68.838V16.091l1.68-1.821Z" transform="translate(-1.639 -1.479)"/>
        </g>
      </g>
    </g>
  </g>
</svg>
