<svg xmlns="http://www.w3.org/2000/svg" xmlns:xlink="http://www.w3.org/1999/xlink" width="99.504" height="99.504" viewBox="0 0 99.504 99.504">
  <defs>
    <filter id="Path_982547" x="0" y="0" width="99.504" height="99.504" filterUnits="userSpaceOnUse">
      <feOffset dy="3" input="SourceAlpha"/>
      <feGaussianBlur stdDeviation="3" result="blur"/>
      <feFlood flood-opacity="0.161"/>
      <feComposite operator="in" in2="blur"/>
      <feComposite in="SourceGraphic"/>
    </filter>
  </defs>
  <g id="Group_1154108" data-name="Group 1154108" transform="translate(-194 -6766)">
    <g id="Group_1153877" data-name="Group 1153877" transform="translate(0 59)">
      <g id="Group_1152581" data-name="Group 1152581" transform="translate(-0.496 4929)">
        <g id="Group_1146971" data-name="Group 1146971" transform="translate(203.496 1784)">
          <g id="Group_1146954" data-name="Group 1146954">
            <g transform="matrix(1, 0, 0, 1, -9, -6)" filter="url(#Path_982547)">
              <g id="Path_982547-2" data-name="Path 982547" transform="translate(9 6)" fill="#f2f8fa">
                <path d="M 40.7520751953125 80.00415802001953 C 35.45241546630859 80.00415802001953 30.31208610534668 78.96654510498047 25.47385215759277 76.92014312744141 C 20.79992294311523 74.9432373046875 16.60199356079102 72.11281585693359 12.99666309356689 68.50748443603516 C 9.391345977783203 64.90216064453125 6.560910701751709 60.70422744750977 4.584004402160645 56.03028869628906 C 2.53761625289917 51.19206237792969 1.500004649162292 46.05173492431641 1.500004649162292 40.7520751953125 C 1.500004649162292 35.45241546630859 2.53761625289917 30.31208610534668 4.584004402160645 25.47385215759277 C 6.560910701751709 20.79992294311523 9.391345977783203 16.60199356079102 12.99666309356689 12.99666309356689 C 16.60199356079102 9.391345977783203 20.79992294311523 6.560910701751709 25.47385215759277 4.584004402160645 C 30.31208610534668 2.53761625289917 35.45241546630859 1.500004649162292 40.7520751953125 1.500004649162292 C 46.05173492431641 1.500004649162292 51.19206237792969 2.53761625289917 56.03028869628906 4.584004402160645 C 60.70422744750977 6.560910701751709 64.90216064453125 9.391345977783203 68.50748443603516 12.99666309356689 C 72.11281585693359 16.60199356079102 74.9432373046875 20.79992294311523 76.92014312744141 25.47385215759277 C 78.96654510498047 30.31208610534668 80.00415802001953 35.45241546630859 80.00415802001953 40.7520751953125 C 80.00415802001953 46.05173492431641 78.96654510498047 51.19206237792969 76.92014312744141 56.03028869628906 C 74.9432373046875 60.70421600341797 72.11281585693359 64.90216064453125 68.50748443603516 68.50748443603516 C 64.90216064453125 72.11281585693359 60.70421600341797 74.9432373046875 56.03028869628906 76.92014312744141 C 51.19206237792969 78.96654510498047 46.05173492431641 80.00415802001953 40.7520751953125 80.00415802001953 Z" stroke="none"/>
                <path d="M 40.7520751953125 2.999992370605469 C 35.65426254272461 2.999992370605469 30.71051406860352 3.99774169921875 26.05818176269531 5.96551513671875 C 21.56304931640625 7.866798400878906 17.52538299560547 10.58927154541016 14.05732727050781 14.05732727050781 C 10.58927154541016 17.52538299560547 7.866798400878906 21.56304931640625 5.96551513671875 26.05818176269531 C 3.99774169921875 30.71051406860352 2.999992370605469 35.65426254272461 2.999992370605469 40.7520751953125 C 2.999992370605469 45.84988784790039 3.99774169921875 50.79363250732422 5.96551513671875 55.44596862792969 C 7.866798400878906 59.94110107421875 10.58927154541016 63.97876739501953 14.05732727050781 67.44682312011719 C 17.52538299560547 70.91487121582031 21.56304931640625 73.63735198974609 26.05818176269531 75.53863525390625 C 30.71051406860352 77.50640869140625 35.65426254272461 78.50415802001953 40.7520751953125 78.50415802001953 C 45.84988784790039 78.50415802001953 50.79363250732422 77.50640869140625 55.44596862792969 75.53863525390625 C 59.94110107421875 73.63735198974609 63.97876739501953 70.91487121582031 67.44682312011719 67.44682312011719 C 70.91487121582031 63.97876739501953 73.63735198974609 59.94110107421875 75.53863525390625 55.44596862792969 C 77.50640869140625 50.79363250732422 78.50415802001953 45.84988784790039 78.50415802001953 40.7520751953125 C 78.50415802001953 35.65426254272461 77.50640869140625 30.71051406860352 75.53863525390625 26.05818176269531 C 73.63735198974609 21.56304931640625 70.91487121582031 17.52538299560547 67.44682312011719 14.05732727050781 C 63.97876739501953 10.58927154541016 59.94110107421875 7.866798400878906 55.44596862792969 5.96551513671875 C 50.79363250732422 3.99774169921875 45.84988784790039 2.999992370605469 40.7520751953125 2.999992370605469 M 40.7520751953125 -7.62939453125e-06 C 63.25881958007812 -7.62939453125e-06 81.50415802001953 18.24532699584961 81.50415802001953 40.7520751953125 C 81.50415802001953 63.25881958007812 63.25881958007812 81.50415802001953 40.7520751953125 81.50415802001953 C 18.24532699584961 81.50415802001953 -7.62939453125e-06 63.25881958007812 -7.62939453125e-06 40.7520751953125 C -7.62939453125e-06 18.24532699584961 18.24532699584961 -7.62939453125e-06 40.7520751953125 -7.62939453125e-06 Z" stroke="none" fill="#6a7b7e"/>
              </g>
            </g>
          </g>
        </g>
      </g>
      <g id="Page-1" transform="translate(219 6728)">
        <g id="_002---Pen-and-Paper" data-name="002---Pen-and-Paper" transform="translate(0 0)">
          <path id="Shape" d="M37.479,2.7V48.508a1.7,1.7,0,0,1-1.7,1.7H2.7a1.7,1.7,0,0,1-1.7-1.7V13.581a1.687,1.687,0,0,1,.288-.942l.56.238h8.484a2.545,2.545,0,0,0,2.545-2.545V1.848l-.5-.348a1.7,1.7,0,0,1,1.2-.5h22.2a1.7,1.7,0,0,1,1.7,1.7Z" transform="translate(-0.152 -0.152)" fill="#f5f5f5"/>
          <path id="Shape-2" data-name="Shape" d="M41.545,1H39a1.7,1.7,0,0,1,1.7,1.7V48.508A1.7,1.7,0,0,1,39,50.2h2.545a1.7,1.7,0,0,0,1.7-1.7V2.7A1.7,1.7,0,0,0,41.545,1Z" transform="translate(-5.914 -0.152)" fill="#cfd8dc"/>
          <path id="Shape-3" data-name="Shape" d="M12.929,1.938v8.484a2.545,2.545,0,0,1-2.545,2.545H1.9l-.56-.238a1.6,1.6,0,0,1,.212-.263L12.428,1.59Z" transform="translate(-0.203 -0.241)" fill="#cfd8dc"/>
          <path id="Shape-4" data-name="Shape" d="M55.974,25.493l-4.887,3.385L46.26,21.9l4.887-3.376a2.545,2.545,0,0,1,3.538.645l1.934,2.791a2.545,2.545,0,0,1-.645,3.538Z" transform="translate(-7.015 -2.74)" fill="#e91e63"/>
          <path id="Shape-5" data-name="Shape" d="M57.334,21.957,55.4,19.166a2.537,2.537,0,0,0-3.359-.743,2.5,2.5,0,0,1,.814.743l1.934,2.791a2.545,2.545,0,0,1-.645,3.538l-3.165,2.193.824,1.188,4.887-3.385a2.545,2.545,0,0,0,.645-3.533Z" transform="translate(-7.731 -2.741)" fill="#ad1457"/>
          <path id="Shape-6" data-name="Shape" d="M43.967,32.4,27.348,43.889a.855.855,0,0,1-.2.1l-.076-.212-4.539-6.566-.238-.076a.908.908,0,0,1,.221-.221L39.14,25.42Z" transform="translate(-3.382 -3.855)" fill="#f44335"/>
          <path id="Shape-7" data-name="Shape" d="M39.871,25.42,38.15,26.608l4,5.794L27.124,42.789l.684.989.076.212a.855.855,0,0,0,.2-.1L44.7,32.4Z" transform="translate(-4.113 -3.855)" fill="#c81e1e"/>
          <path id="Rectangle-path" d="M0,0H4.238V8.488H0Z" transform="translate(35.761 21.589) rotate(-34.612)" fill="#ffdc00"/>
          <path id="Shape-8" data-name="Shape" d="M45.952,22.58,44.23,23.77l4,5.792L46.47,30.781l.823,1.19,3.487-2.409Z" transform="translate(-6.707 -3.424)" fill="#fec108"/>
          <path id="Shape-9" data-name="Shape" d="M26.613,46.085c-.025.008-.051.017-.085.025l-5.209,1.264-.042-.161L18.884,43.76l-.144-.1,3.02-4.428.238.076,4.539,6.566Z" transform="translate(-2.842 -5.949)" fill="#ffe0b2"/>
          <path id="Shape-10" data-name="Shape" d="M26.867,45.873l-4.539-6.566-.238-.076-1.172,1.719,3.4,4.92.076.212c-.025.008-.051.017-.085.025l-2.969.721.265.382.042.161,5.209-1.264c.034-.008.059-.017.085-.025Z" transform="translate(-3.172 -5.949)" fill="#dfc49c"/>
          <path id="Shape-11" data-name="Shape" d="M20.881,48.166l-3.979.967a.848.848,0,0,1-.9-1.306l2.3-3.376.144.1L20.839,48Z" transform="translate(-2.404 -6.74)" fill="#545c60"/>
          <g id="Group_1153876" data-name="Group 1153876">
            <path id="Shape-12" data-name="Shape" d="M2.545,50.9H35.631a2.545,2.545,0,0,0,2.545-2.545V34.783a.848.848,0,1,0-1.7,0V48.356a.848.848,0,0,1-.848.848H2.545a.848.848,0,0,1-.848-.848V13.574H10.18a3.393,3.393,0,0,0,3.393-3.393V1.7H35.631a.848.848,0,0,1,.848.848V16.119a.848.848,0,1,0,1.7,0V2.545A2.545,2.545,0,0,0,35.631,0h-22.2a2.526,2.526,0,0,0-1.8.746L.746,11.628A2.526,2.526,0,0,0,0,13.429V48.356A2.545,2.545,0,0,0,2.545,50.9ZM11.877,2.9V10.18a1.7,1.7,0,0,1-1.7,1.7H2.9Z" transform="translate(0 0)"/>
            <path id="Shape-13" data-name="Shape" d="M6,20.848a.848.848,0,0,0,.848.848h26.3a.848.848,0,1,0,0-1.7H6.848A.848.848,0,0,0,6,20.848Z" transform="translate(-0.91 -3.033)"/>
            <path id="Shape-14" data-name="Shape" d="M6.848,26.7H27.014a.848.848,0,1,0,0-1.7H6.848a.848.848,0,0,0,0,1.7Z" transform="translate(-0.91 -3.791)"/>
            <path id="Shape-15" data-name="Shape" d="M6.848,31.7H20.872a.848.848,0,0,0,0-1.7H6.848a.848.848,0,1,0,0,1.7Z" transform="translate(-0.91 -4.549)"/>
            <path id="Shape-16" data-name="Shape" d="M6.848,40.7h6.38a.848.848,0,0,0,0-1.7H6.848a.848.848,0,0,0,0,1.7Z" transform="translate(-0.91 -5.914)"/>
            <path id="Shape-17" data-name="Shape" d="M6.848,45.7h3.487a.848.848,0,1,0,0-1.7H6.848a.848.848,0,1,0,0,1.7Z" transform="translate(-0.91 -6.672)"/>
            <path id="Shape-18" data-name="Shape" d="M36.185,23.458,19.569,34.95a1.7,1.7,0,0,0-.437.44L13.8,43.2a1.7,1.7,0,0,0-.3.957H6.848a.848.848,0,0,0,0,1.7H15.2a1.717,1.717,0,0,0,.406-.049l9.184-2.228a1.676,1.676,0,0,0,.568-.255L41.97,31.833l3.488-2.413,4.884-3.377a3.4,3.4,0,0,0,.861-4.721L49.273,18.53a3.393,3.393,0,0,0-4.721-.861l-4.884,3.378Zm3.756-.534L43.8,28.505l-2.094,1.449-3.86-5.582Zm.372,7.995L24.962,41.535,21.1,35.954,36.456,25.338ZM19.926,37.235l3.421,4.946-3.534.857-1.935-2.8Zm-3.073,4.506,1.194,1.727-2.84.69ZM45.522,19.064a1.7,1.7,0,0,1,2.361.431l1.93,2.791a1.7,1.7,0,0,1-.431,2.359l-4.188,2.9-3.861-5.582Z" transform="translate(-0.91 -2.588)"/>
            <path id="Shape-19" data-name="Shape" d="M37.242,48.848v3.393H33.848a.848.848,0,0,0,0,1.7H38.09a.848.848,0,0,0,.848-.848V48.848a.848.848,0,0,0-1.7,0Z" transform="translate(-5.004 -7.279)"/>
            <path id="Shape-20" data-name="Shape" d="M37.635,5H30.848a.848.848,0,1,0,0,1.7h6.787a.848.848,0,1,0,0-1.7Z" transform="translate(-4.549 -0.758)"/>
            <path id="Shape-21" data-name="Shape" d="M38.09,9H33.848a.848.848,0,0,0,0,1.7H38.09a.848.848,0,1,0,0-1.7Z" transform="translate(-5.004 -1.365)"/>
          </g>
        </g>
      </g>
    </g>
  </g>
</svg>
