<svg xmlns="http://www.w3.org/2000/svg" xmlns:xlink="http://www.w3.org/1999/xlink" width="108" height="108" viewBox="0 0 108 108">
  <defs>
    <filter id="Path_982547" x="0" y="0" width="108" height="108" filterUnits="userSpaceOnUse">
      <feOffset dy="3" input="SourceAlpha"/>
      <feGaussianBlur stdDeviation="3" result="blur"/>
      <feFlood flood-opacity="0.161"/>
      <feComposite operator="in" in2="blur"/>
      <feComposite in="SourceGraphic"/>
    </filter>
  </defs>
  <g id="Group_1154119" data-name="Group 1154119" transform="translate(-201 -9678)">
    <g id="Group_1153934" data-name="Group 1153934" transform="translate(0 4)">
      <g id="Group_1152607" data-name="Group 1152607" transform="translate(0 9241)">
        <g id="Group_1146955" data-name="Group 1146955" transform="translate(210 439)">
          <g id="Group_1146954" data-name="Group 1146954">
            <g transform="matrix(1, 0, 0, 1, -9, -6)" filter="url(#Path_982547)">
              <g id="Path_982547-2" data-name="Path 982547" transform="translate(9 6)" fill="#fff6f9">
                <path d="M 45 88.5 C 39.12687683105469 88.5 33.43022537231445 87.35007476806641 28.06830024719238 85.08217620849609 C 22.88852500915527 82.89131164550781 18.23629951477051 79.75458526611328 14.2408504486084 75.75914764404297 C 10.24541282653809 71.76370239257812 7.108687400817871 67.11147308349609 4.917825222015381 61.93170166015625 C 2.649924993515015 56.56977462768555 1.5 50.87312316894531 1.5 45 C 1.5 39.12687683105469 2.649924993515015 33.43022537231445 4.917825222015381 28.06830024719238 C 7.108687400817871 22.88852500915527 10.24541282653809 18.23629951477051 14.2408504486084 14.2408504486084 C 18.23629951477051 10.24541282653809 22.88852500915527 7.108687400817871 28.06830024719238 4.917825222015381 C 33.43022537231445 2.649924993515015 39.12687683105469 1.5 45 1.5 C 50.87312316894531 1.5 56.56977462768555 2.649924993515015 61.93170166015625 4.917825222015381 C 67.11147308349609 7.108687400817871 71.76370239257812 10.24541282653809 75.75914764404297 14.2408504486084 C 79.75458526611328 18.23629951477051 82.89131164550781 22.88852500915527 85.08217620849609 28.06830024719238 C 87.35007476806641 33.43022537231445 88.5 39.12687683105469 88.5 45 C 88.5 50.87312316894531 87.35007476806641 56.56977462768555 85.08217620849609 61.93170166015625 C 82.89131164550781 67.11147308349609 79.75458526611328 71.76370239257812 75.75914764404297 75.75914764404297 C 71.76370239257812 79.75458526611328 67.11147308349609 82.89131164550781 61.93170166015625 85.08217620849609 C 56.56977462768555 87.35007476806641 50.87312316894531 88.5 45 88.5 Z" stroke="none"/>
                <path d="M 45 3 C 39.32871246337891 3 33.82865524291992 4.110054016113281 28.65262985229492 6.299339294433594 C 23.65165710449219 8.414573669433594 19.15968322753906 11.44334411621094 15.301513671875 15.301513671875 C 11.44334411621094 19.15968322753906 8.414573669433594 23.65165710449219 6.299339294433594 28.65262985229492 C 4.110054016113281 33.82865524291992 3 39.32871246337891 3 45 C 3 50.67128753662109 4.110054016113281 56.17134475708008 6.299339294433594 61.34737396240234 C 8.414573669433594 66.34834289550781 11.44334411621094 70.84031677246094 15.301513671875 74.698486328125 C 19.15968322753906 78.55665588378906 23.65165710449219 81.58542633056641 28.65262985229492 83.70066070556641 C 33.82865524291992 85.88994598388672 39.32871246337891 87 45 87 C 50.67128753662109 87 56.17134475708008 85.88994598388672 61.34737396240234 83.70066070556641 C 66.34834289550781 81.58542633056641 70.84031677246094 78.55665588378906 74.698486328125 74.698486328125 C 78.55665588378906 70.84031677246094 81.58542633056641 66.34834289550781 83.70066070556641 61.34737396240234 C 85.88994598388672 56.17134475708008 87 50.67128753662109 87 45 C 87 39.32871246337891 85.88994598388672 33.82865524291992 83.70066070556641 28.65262985229492 C 81.58542633056641 23.65165710449219 78.55665588378906 19.15968322753906 74.698486328125 15.301513671875 C 70.84031677246094 11.44334411621094 66.34834289550781 8.414573669433594 61.34737396240234 6.299339294433594 C 56.17134475708008 4.110054016113281 50.67128753662109 3 45 3 M 45 0 C 69.85281372070312 0 90 20.14718627929688 90 45 C 90 69.85281372070312 69.85281372070312 90 45 90 C 20.14718627929688 90 0 69.85281372070312 0 45 C 0 20.14718627929688 20.14718627929688 0 45 0 Z" stroke="none" fill="#ffaece"/>
              </g>
            </g>
          </g>
        </g>
      </g>
      <g id="dislexia" transform="translate(228 9702)">
        <g id="Group_1153932" data-name="Group 1153932" transform="translate(0.814 0.814)">
          <g id="Group_1153926" data-name="Group 1153926">
            <path id="Path_989229" data-name="Path 989229" d="M127.775,94.1H111.652L89.2,71.652,111.652,49.2h2.567a7.1,7.1,0,0,1,2.825.587l6.387,10.27,10.27,6.514a6.5,6.5,0,0,1,.587,2.7V87.59A6.514,6.514,0,0,1,127.775,94.1Z" transform="translate(-80.33 -49.2)" fill="#efedff"/>
            <g id="Group_1153925" data-name="Group 1153925" transform="translate(0 0)">
              <path id="Path_989230" data-name="Path 989230" d="M352.055,319.581a6.407,6.407,0,0,1-6.387-6.514V302.8a5.959,5.959,0,0,1,1.781,1.321L361,317.673a6.509,6.509,0,0,1,1.321,1.908Z" transform="translate(-308.953 -302.21)" fill="#d4d4ff"/>
              <path id="Path_989231" data-name="Path 989231" d="M29.55,72.931A31.637,31.637,0,0,0,38.823,94.1H14.014A6.514,6.514,0,0,1,7.5,87.59V55.714A6.514,6.514,0,0,1,14.014,49.2H38.823a31.611,31.611,0,0,0-8.982,17.959,31.932,31.932,0,0,0-.291,5.772Z" transform="translate(-7.5 -49.2)" fill="#d4d4ff"/>
            </g>
          </g>
          <g id="Group_1153927" data-name="Group 1153927" transform="translate(3.148 10.09)">
            <path id="Path_989232" data-name="Path 989232" d="M81.305,192.776a1.628,1.628,0,0,1-2.1-.942l-1.272-3.341h-9.48v-3.257h8.239l-3.048-8v-2.009h2.72l5.884,15.45A1.629,1.629,0,0,1,81.305,192.776Z" transform="translate(-64.983 -171.751)" fill="#ff8e9e"/>
            <path id="Path_989233" data-name="Path 989233" d="M47.877,178.7a2.85,2.85,0,0,0-2.72,2.009l-5.508,14.6a1.629,1.629,0,0,1-3.047-1.15l6.652-17.626a2.035,2.035,0,0,1,3.8,0Z" transform="translate(-36.496 -175.225)" fill="#ea5b70"/>
          </g>
          <g id="Group_1153929" data-name="Group 1153929" transform="translate(20.873 3.073)">
            <path id="Path_989234" data-name="Path 989234" d="M246.379,404.191a1.629,1.629,0,0,1-1.629-1.629v-.434a1.629,1.629,0,0,1,3.257,0v.434A1.629,1.629,0,0,1,246.379,404.191Z" transform="translate(-239.864 -400.5)" fill="#18c08b"/>
            <path id="Path_989235" data-name="Path 989235" d="M253.714,236.1a6.533,6.533,0,0,1-6.372,6.169l-1.661-1.661,1.6-1.6a3.256,3.256,0,0,0,2.294-5.5,3.228,3.228,0,0,0-2.362-1.016v-3.048h1.629a6.545,6.545,0,0,1,3.1,1.821A6.462,6.462,0,0,1,253.714,236.1Z" transform="translate(-240.694 -220.011)" fill="#70dcba"/>
            <g id="Group_1153928" data-name="Group 1153928" transform="translate(0 6.297)">
              <path id="Path_989236" data-name="Path 989236" d="M246.379,325.639a1.629,1.629,0,0,1-1.629-1.629v-2.937a1.629,1.629,0,0,1,3.257,0v1.518A3.667,3.667,0,0,0,246.379,325.639Z" transform="translate(-239.864 -319.444)" fill="#18c08b"/>
              <path id="Path_989237" data-name="Path 989237" d="M206.4,237.585a6.515,6.515,0,0,1-6.648-6.513,1.629,1.629,0,1,1,3.257,0,3.252,3.252,0,0,0,3.325,3.256,2.258,2.258,0,0,0,.065,3.256Z" transform="translate(-199.75 -221.62)" fill="#18c08b"/>
            </g>
          </g>
          <g id="Group_1153931" data-name="Group 1153931" transform="translate(36.719 20.114)">
            <path id="Path_989238" data-name="Path 989238" d="M385.792,136.953l-1.628-1.629,1.628-1.629a5,5,0,0,0,0-10l-1.628-1.629,1.628-1.629a8.257,8.257,0,0,1,0,16.514Z" transform="translate(-379.987 -119.896)" fill="#7ce3ff"/>
            <g id="Group_1153930" data-name="Group 1153930" transform="translate(0 0)">
              <path id="Path_989239" data-name="Path 989239" d="M355.361,124.828a8.218,8.218,0,0,1-4.618-1.411,1.629,1.629,0,1,1,1.823-2.7,4.973,4.973,0,0,0,2.794.853,2.3,2.3,0,0,0,0,3.257Z" transform="translate(-349.557 -107.772)" fill="#2ed0fc"/>
              <path id="Path_989240" data-name="Path 989240" d="M348.577,234.852a1.629,1.629,0,1,1-2.5-2.092,6.9,6.9,0,0,1,5.424-2.454,2.3,2.3,0,0,0,0,3.257A3.648,3.648,0,0,0,348.577,234.852Z" transform="translate(-345.7 -230.306)" fill="#2ed0fc"/>
            </g>
          </g>
        </g>
        <g id="Group_1153933" data-name="Group 1153933" transform="translate(0 0)">
          <path id="Path_989241" data-name="Path 989241" d="M48.26,88.233H15.688a.814.814,0,1,1,0-1.629H48.26a5.707,5.707,0,0,0,5.7-5.7V62.584a5.707,5.707,0,0,0-.318-1.884H43.917a7.337,7.337,0,0,1-7.329-7.329V47.183a.814.814,0,0,1,1.629,0v6.189a5.707,5.707,0,0,0,5.7,5.7h8.831a5.806,5.806,0,0,0-.458-.518L38.735,45A5.663,5.663,0,0,0,34.7,43.329H7.329a5.706,5.706,0,0,0-5.7,5.7V80.905a5.706,5.706,0,0,0,5.7,5.7h5.1a.814.814,0,1,1,0,1.629h-5.1A7.336,7.336,0,0,1,0,80.905V49.029A7.337,7.337,0,0,1,7.329,41.7H34.7a7.281,7.281,0,0,1,5.182,2.147L53.442,57.4a7.281,7.281,0,0,1,2.146,5.182V80.9a7.337,7.337,0,0,1-7.329,7.329Z" transform="translate(0 -41.7)"/>
          <path id="Path_989242" data-name="Path 989242" d="M43.266,188.909l-1.073-2.816H34.78L33.72,188.9a2.443,2.443,0,0,1-4.571-1.725L35.8,169.552a2.848,2.848,0,0,1,5.318-.006l6.713,17.625a2.443,2.443,0,1,1-4.566,1.739Zm2.573-.108a.814.814,0,0,0,.471-1.051c-6.993-18.362-6.71-17.62-6.72-17.644a1.219,1.219,0,0,0-2.256,0l-6.661,17.649a.814.814,0,0,0,1.524.575l1.259-3.336a.814.814,0,0,1,.762-.527h8.537a.814.814,0,0,1,.761.524l1.272,3.341A.813.813,0,0,0,45.839,188.8Z" transform="translate(-25.843 -157.633)"/>
          <path id="Path_989243" data-name="Path 989243" d="M87.827,247.791H81.76a.815.815,0,0,1-.762-1.1l3.02-8a.814.814,0,0,1,1.523,0l3.048,8A.814.814,0,0,1,87.827,247.791Zm-3.044-6.519-1.846,4.891h3.709Z" transform="translate(-72.156 -222.588)"/>
          <path id="Path_989244" data-name="Path 989244" d="M192.25,232.209a2.443,2.443,0,0,1,4.886,0,2.443,2.443,0,1,0,2.443-2.443,2.446,2.446,0,0,1-2.443-2.443v-2.937a2.443,2.443,0,0,1,4.886,0v.917a7.327,7.327,0,1,1-9.771,6.906Zm7.446,5.7a5.716,5.716,0,0,0,5.575-5.4A5.659,5.659,0,0,0,201,226.692a.814.814,0,0,1-.609-.788v-1.518a.814.814,0,0,0-1.629,0v2.937a.815.815,0,0,0,.814.814,4.071,4.071,0,0,1,4.066,4.289,4.072,4.072,0,0,1-8.137-.218.814.814,0,0,0-1.629,0A5.7,5.7,0,0,0,199.7,237.908Z" transform="translate(-171.377 -212.574)"/>
          <path id="Path_989245" data-name="Path 989245" d="M239.693,398.32a2.446,2.446,0,0,1-2.443-2.443v-.434a2.443,2.443,0,1,1,4.886,0v.434A2.446,2.446,0,0,1,239.693,398.32Zm.814-2.877a.814.814,0,1,0-1.629,0v.434a.814.814,0,1,0,1.629,0Z" transform="translate(-211.492 -389.927)"/>
          <path id="Path_989246" data-name="Path 989246" d="M342.525,118.784a2.443,2.443,0,1,1-3.744-3.139c4.773-5.691,15.119-2.023,15.119,6.327a9.085,9.085,0,0,1-14.145,7.521,2.443,2.443,0,1,1,2.735-4.048,4.193,4.193,0,0,0,6.524-3.472C349.014,118.189,344.384,116.567,342.525,118.784Zm8.118,3.188a5.824,5.824,0,0,1-9.064,4.822.814.814,0,0,0-.911,1.35,7.456,7.456,0,0,0,11.6-6.171c0-6.795-8.419-9.84-12.243-5.28a.814.814,0,1,0,1.248,1.046C344.125,114.341,350.643,116.7,350.643,121.972Z" transform="translate(-301.491 -92.244)"/>
          <path id="Path_989247" data-name="Path 989247" d="M312.577,113.292v1.3a.814.814,0,1,1-1.629,0v-1.3a.814.814,0,0,1,1.629,0Z" transform="translate(-277.188 -76.561)"/>
          <path id="Path_989248" data-name="Path 989248" d="M177.663,103.7a1.581,1.581,0,0,0-1.6,0,.814.814,0,0,1-.839-1.4,3.166,3.166,0,0,1,.9-.365.809.809,0,0,1-.079-.348v-1.3a.814.814,0,1,1,1.629,0v1.3a.809.809,0,0,1-.079.348,3.167,3.167,0,0,1,.9.365.814.814,0,0,1-.839,1.4Z" transform="translate(-155.851 -63.559)"/>
          <path id="Path_989249" data-name="Path 989249" d="M232.862,127.683h.012a9.645,9.645,0,0,0,3.242-.419.814.814,0,0,1,.616,1.508,10.831,10.831,0,0,1-3.856.54h-.027a.814.814,0,0,1,0-1.629Z" transform="translate(-206.843 -92.061)"/>
        </g>
      </g>
    </g>
  </g>
</svg>
