<svg xmlns="http://www.w3.org/2000/svg" xmlns:xlink="http://www.w3.org/1999/xlink" width="99.504" height="99.504" viewBox="0 0 99.504 99.504">
  <defs>
    <filter id="Path_982547" x="0" y="0" width="99.504" height="99.504" filterUnits="userSpaceOnUse">
      <feOffset dy="3" input="SourceAlpha"/>
      <feGaussianBlur stdDeviation="3" result="blur"/>
      <feFlood flood-opacity="0.161"/>
      <feComposite operator="in" in2="blur"/>
      <feComposite in="SourceGraphic"/>
    </filter>
  </defs>
  <g id="Group_1154126" data-name="Group 1154126" transform="translate(-614 -12023)">
    <g id="Group_1153961" data-name="Group 1153961" transform="translate(0 4)">
      <g id="Group_1152616" data-name="Group 1152616" transform="translate(-0.496 10241)">
        <g id="Group_1146972" data-name="Group 1146972" transform="translate(623.496 1784)">
          <g id="Group_1146954" data-name="Group 1146954">
            <g transform="matrix(1, 0, 0, 1, -9, -6)" filter="url(#Path_982547)">
              <g id="Path_982547-2" data-name="Path 982547" transform="translate(9 6)" fill="#f2f8fa">
                <path d="M 40.7520751953125 80.00415802001953 C 35.45241546630859 80.00415802001953 30.31208610534668 78.96654510498047 25.47385215759277 76.92014312744141 C 20.79992294311523 74.9432373046875 16.60199356079102 72.11281585693359 12.99666309356689 68.50748443603516 C 9.391345977783203 64.90216064453125 6.560910701751709 60.70422744750977 4.584004402160645 56.03028869628906 C 2.53761625289917 51.19206237792969 1.500004649162292 46.05173492431641 1.500004649162292 40.7520751953125 C 1.500004649162292 35.45241546630859 2.53761625289917 30.31208610534668 4.584004402160645 25.47385215759277 C 6.560910701751709 20.79992294311523 9.391345977783203 16.60199356079102 12.99666309356689 12.99666309356689 C 16.60199356079102 9.391345977783203 20.79992294311523 6.560910701751709 25.47385215759277 4.584004402160645 C 30.31208610534668 2.53761625289917 35.45241546630859 1.500004649162292 40.7520751953125 1.500004649162292 C 46.05173492431641 1.500004649162292 51.19206237792969 2.53761625289917 56.03028869628906 4.584004402160645 C 60.70422744750977 6.560910701751709 64.90216064453125 9.391345977783203 68.50748443603516 12.99666309356689 C 72.11281585693359 16.60199356079102 74.9432373046875 20.79992294311523 76.92014312744141 25.47385215759277 C 78.96654510498047 30.31208610534668 80.00415802001953 35.45241546630859 80.00415802001953 40.7520751953125 C 80.00415802001953 46.05173492431641 78.96654510498047 51.19206237792969 76.92014312744141 56.03028869628906 C 74.9432373046875 60.70421600341797 72.11281585693359 64.90216064453125 68.50748443603516 68.50748443603516 C 64.90216064453125 72.11281585693359 60.70421600341797 74.9432373046875 56.03028869628906 76.92014312744141 C 51.19206237792969 78.96654510498047 46.05173492431641 80.00415802001953 40.7520751953125 80.00415802001953 Z" stroke="none"/>
                <path d="M 40.7520751953125 2.999992370605469 C 35.65426254272461 2.999992370605469 30.71051406860352 3.99774169921875 26.05818176269531 5.96551513671875 C 21.56304931640625 7.866798400878906 17.52538299560547 10.58927154541016 14.05732727050781 14.05732727050781 C 10.58927154541016 17.52538299560547 7.866798400878906 21.56304931640625 5.96551513671875 26.05818176269531 C 3.99774169921875 30.71051406860352 2.999992370605469 35.65426254272461 2.999992370605469 40.7520751953125 C 2.999992370605469 45.84988784790039 3.99774169921875 50.79363250732422 5.96551513671875 55.44596862792969 C 7.866798400878906 59.94110107421875 10.58927154541016 63.97876739501953 14.05732727050781 67.44682312011719 C 17.52538299560547 70.91487121582031 21.56304931640625 73.63735198974609 26.05818176269531 75.53863525390625 C 30.71051406860352 77.50640869140625 35.65426254272461 78.50415802001953 40.7520751953125 78.50415802001953 C 45.84988784790039 78.50415802001953 50.79363250732422 77.50640869140625 55.44596862792969 75.53863525390625 C 59.94110107421875 73.63735198974609 63.97876739501953 70.91487121582031 67.44682312011719 67.44682312011719 C 70.91487121582031 63.97876739501953 73.63735198974609 59.94110107421875 75.53863525390625 55.44596862792969 C 77.50640869140625 50.79363250732422 78.50415802001953 45.84988784790039 78.50415802001953 40.7520751953125 C 78.50415802001953 35.65426254272461 77.50640869140625 30.71051406860352 75.53863525390625 26.05818176269531 C 73.63735198974609 21.56304931640625 70.91487121582031 17.52538299560547 67.44682312011719 14.05732727050781 C 63.97876739501953 10.58927154541016 59.94110107421875 7.866798400878906 55.44596862792969 5.96551513671875 C 50.79363250732422 3.99774169921875 45.84988784790039 2.999992370605469 40.7520751953125 2.999992370605469 M 40.7520751953125 -7.62939453125e-06 C 63.25881958007812 -7.62939453125e-06 81.50415802001953 18.24532699584961 81.50415802001953 40.7520751953125 C 81.50415802001953 63.25881958007812 63.25881958007812 81.50415802001953 40.7520751953125 81.50415802001953 C 18.24532699584961 81.50415802001953 -7.62939453125e-06 63.25881958007812 -7.62939453125e-06 40.7520751953125 C -7.62939453125e-06 18.24532699584961 18.24532699584961 -7.62939453125e-06 40.7520751953125 -7.62939453125e-06 Z" stroke="none" fill="#6a7b7e"/>
              </g>
            </g>
          </g>
        </g>
      </g>
      <g id="Mathematics-Calculator-Book-Hand-Maths" transform="translate(639 12040)">
        <rect id="Rectangle_407978" data-name="Rectangle 407978" width="43.43" height="35.675" rx="2" transform="translate(2.776 2.776)" fill="#ee8700"/>
        <path id="Path_989282" data-name="Path 989282" d="M25.613,7V36.47H7.776A.776.776,0,0,1,7,35.695V7.776A.776.776,0,0,1,7.776,7Z" transform="translate(-1.122 -1.122)" fill="#f1f2f2"/>
        <path id="Path_989283" data-name="Path 989283" d="M49.613,7.776V35.695a.776.776,0,0,1-.776.776H31V7H48.837A.776.776,0,0,1,49.613,7.776Z" transform="translate(-6.509 -1.122)" fill="#e6e7e8"/>
        <path id="Path_989284" data-name="Path 989284" d="M50.1,7v4.653L48.551,10.1,47,11.653V7Z" transform="translate(-10.101 -1.122)" fill="#ff6243"/>
        <rect id="Rectangle_407979" data-name="Rectangle 407979" width="20.164" height="29.47" rx="2" transform="translate(27.593 18.286)" fill="#5aaae7"/>
        <rect id="Rectangle_407980" data-name="Rectangle 407980" width="13.96" height="6.204" rx="1" transform="translate(32.246 22.939)" fill="#3d9ae2"/>
        <path id="Path_989285" data-name="Path 989285" d="M54.184,41H41.776a.776.776,0,0,0-.776.776V54.184a.776.776,0,0,0,.776.776H54.184a.776.776,0,0,0,.776-.776V41.776A.776.776,0,0,0,54.184,41Z" transform="translate(-8.754 -8.754)" fill="#3d9ae2"/>
        <path id="Path_989286" data-name="Path 989286" d="M51,45h4.653v4.653H51Z" transform="translate(-10.999 -9.652)" fill="#329bed"/>
        <path id="Path_989287" data-name="Path 989287" d="M55.653,51v3.878a.776.776,0,0,1-.776.776H51V51Z" transform="translate(-10.999 -10.999)" fill="#158be6"/>
        <path id="Path_989288" data-name="Path 989288" d="M39,45h4.653v4.653H39Z" transform="translate(-8.305 -9.652)" fill="#329bed"/>
        <path id="Path_989289" data-name="Path 989289" d="M45,39h4.653v4.653H45Z" transform="translate(-9.652 -8.305)" fill="#329bed"/>
        <path id="Path_989290" data-name="Path 989290" d="M43.653,51v4.653H39.776A.776.776,0,0,1,39,54.878V51Z" transform="translate(-8.305 -10.999)" fill="#158be6"/>
        <path id="Path_989291" data-name="Path 989291" d="M45,45h4.653v4.653H45Z" transform="translate(-9.652 -9.652)" fill="#158be6"/>
        <path id="Path_989292" data-name="Path 989292" d="M45,51h4.653v4.653H45Z" transform="translate(-9.652 -10.999)" fill="#329bed"/>
        <path id="Path_989293" data-name="Path 989293" d="M55.653,39.776v3.878H51V39h3.878A.776.776,0,0,1,55.653,39.776Z" transform="translate(-10.999 -8.305)" fill="#158be6"/>
        <path id="Path_989294" data-name="Path 989294" d="M43.653,39v4.653H39V39.776A.776.776,0,0,1,39.776,39Z" transform="translate(-8.305 -8.305)" fill="#158be6"/>
        <rect id="Rectangle_407981" data-name="Rectangle 407981" width="13.96" height="6.204" rx="1" transform="translate(30.695 21.388)" fill="#c2dff6"/>
        <path id="Path_989295" data-name="Path 989295" d="M21.02,50.755a1.551,1.551,0,0,1,3.1,0v6.98H10.372l-2.893-5.01A1.551,1.551,0,0,1,8.045,50.6a1.525,1.525,0,0,1,.768-.209,1.551,1.551,0,0,1,1.349.783l1.551,2.683V44.551a1.551,1.551,0,0,1,3.1,0V49.2a1.608,1.608,0,0,1,1.551-1.551A1.563,1.563,0,0,1,17.918,49.2v.776a1.551,1.551,0,0,1,3.1,0Z" transform="translate(-1.182 -9.203)" fill="#ffc477"/>
        <path id="Path_989296" data-name="Path 989296" d="M51.96,38H39.551A1.551,1.551,0,0,0,38,39.551V51.96a1.551,1.551,0,0,0,1.551,1.551H51.96a1.551,1.551,0,0,0,1.551-1.551V39.551A1.551,1.551,0,0,0,51.96,38Zm0,4.653h-3.1v-3.1h3.1ZM44.2,47.306V44.2h3.1v3.1Zm3.1,1.551v3.1H44.2v-3.1Zm-4.653-1.551h-3.1V44.2h3.1ZM44.2,42.653v-3.1h3.1v3.1ZM48.858,44.2h3.1v3.1h-3.1Zm-6.2-4.653v3.1h-3.1v-3.1Zm-3.1,9.306h3.1v3.1h-3.1Zm9.306,3.1v-3.1h3.1v3.1Z" transform="translate(-8.081 -8.081)"/>
        <path id="Path_989297" data-name="Path 989297" d="M46.981,17.65V4.327A2.334,2.334,0,0,0,44.654,2H4.327A2.334,2.334,0,0,0,2,4.327V36.9a2.334,2.334,0,0,0,2.327,2.327H9.755v2.536l-.1-.178A2.328,2.328,0,0,0,5.622,43.91l2.893,5.01,1.342-.776-2.893-5.01a.783.783,0,0,1,.287-1.062.768.768,0,0,1,1.055.287l1.551,2.683a.793.793,0,0,0,.876.364.776.776,0,0,0,.574-.752V35.348a.776.776,0,1,1,1.551,0v6.98a.776.776,0,0,0,1.551,0V40a.833.833,0,0,1,.776-.776A.776.776,0,0,1,15.96,40v2.327a.776.776,0,0,0,1.551,0V40.777a.776.776,0,0,1,1.551,0V43.1a.776.776,0,0,0,1.551,0V41.552a.776.776,0,1,1,1.551,0v6.98h1.551v-6.98a2.334,2.334,0,0,0-2.327-2.327,2.275,2.275,0,0,0-1.14.3,1.912,1.912,0,0,0-.248-.3h6.817v6.98a2.334,2.334,0,0,0,2.327,2.327H46.206a2.334,2.334,0,0,0,2.327-2.327V19.837A2.334,2.334,0,0,0,46.981,17.65ZM25.266,3.551H44.654a.776.776,0,0,1,.776.776V17.511H43.879V6.653A1.556,1.556,0,0,0,42.328,5.1H25.266Zm13.96,3.1V8.662L39,8.429a.786.786,0,0,0-1.1,0l-.225.233V6.653ZM23.715,37.675H14.409V36.124h9.306Zm0-26.368H22.164v1.551h1.551v3.1H22.164v1.551h1.551v3.1H22.164v1.551h1.551v3.1H22.164v1.551h1.551v3.1H22.164V31.47h1.551v3.1H14.269a2.317,2.317,0,0,0-4.374,0H6.653V6.653H23.715Zm0-6.2H6.653A1.556,1.556,0,0,0,5.1,6.653V34.573a1.556,1.556,0,0,0,1.551,1.551h3.1v1.551H4.327a.776.776,0,0,1-.776-.776V4.327a.776.776,0,0,1,.776-.776H23.715Zm3.1,32.573H25.266V36.124h1.551Zm0-3.1H25.266v-3.1h1.551Zm0-4.653H25.266v-3.1h1.551Zm0-4.653H25.266v-3.1h1.551Zm0-5.429v.776H25.266v-3.1h1.551V15.96H25.266v-3.1h1.551V11.306H25.266V6.653H36.124v3.878a.765.765,0,0,0,.481.713.776.776,0,0,0,.845-.163l1-1.008,1,1.008a.781.781,0,0,0,.551.225.65.65,0,0,0,.295-.062.765.765,0,0,0,.481-.713V6.653h1.551V17.511H29.144a2.334,2.334,0,0,0-2.327,2.327ZM46.981,46.206a.776.776,0,0,1-.776.776H29.144a.776.776,0,0,1-.776-.776V19.837a.776.776,0,0,1,.776-.776H46.206a.776.776,0,0,1,.776.776Z" transform="translate(0 0)"/>
        <path id="Path_989298" data-name="Path 989298" d="M51.96,26H39.551A1.551,1.551,0,0,0,38,27.551V32.2a1.551,1.551,0,0,0,1.551,1.551H51.96A1.551,1.551,0,0,0,53.511,32.2V27.551A1.551,1.551,0,0,0,51.96,26Zm0,6.2H39.551V27.551H51.96Z" transform="translate(-8.081 -5.387)"/>
        <path id="Path_989299" data-name="Path 989299" d="M51,30h1.551v1.551H51Z" transform="translate(-10.999 -6.285)"/>
        <path id="Path_989300" data-name="Path 989300" d="M47,30h1.551v1.551H47Z" transform="translate(-10.101 -6.285)"/>
        <path id="Path_989301" data-name="Path 989301" d="M43,30h1.551v1.551H43Z" transform="translate(-9.203 -6.285)"/>
        <path id="Path_989302" data-name="Path 989302" d="M10,26H20.858v1.551H10Z" transform="translate(-1.796 -5.387)"/>
        <path id="Path_989303" data-name="Path 989303" d="M10,34H20.858v1.551H10Z" transform="translate(-1.796 -7.183)"/>
        <path id="Path_989304" data-name="Path 989304" d="M10,38H20.858v1.551H10Z" transform="translate(-1.796 -8.081)"/>
        <path id="Path_989305" data-name="Path 989305" d="M10,30h7.755v1.551H10Z" transform="translate(-1.796 -6.285)"/>
        <path id="Path_989306" data-name="Path 989306" d="M22,30h1.551v1.551H22Z" transform="translate(-4.489 -6.285)"/>
        <path id="Path_989307" data-name="Path 989307" d="M12.457,20.961a.776.776,0,0,0,.645.345.8.8,0,0,0,.114-.009.776.776,0,0,0,.629-.543l2.161-7.2h6.4V12h-6.98a.776.776,0,0,0-.743.553l-1.853,6.176-.637-.955a.776.776,0,0,0-.645-.345H10V18.98h1.136Z" transform="translate(-1.796 -2.245)"/>
        <path id="Path_989308" data-name="Path 989308" d="M21.851,16.465,20.207,18.11l-1.645-1.645-1.1,1.1,1.645,1.645-1.645,1.645,1.1,1.1L20.207,20.3l1.645,1.645,1.1-1.1L21.3,19.207l1.645-1.645Z" transform="translate(-3.471 -3.247)"/>
      </g>
    </g>
  </g>
</svg>
