<svg xmlns="http://www.w3.org/2000/svg" xmlns:xlink="http://www.w3.org/1999/xlink" width="99.504" height="99.504" viewBox="0 0 99.504 99.504">
  <defs>
    <filter id="Path_982547" x="0" y="0" width="99.504" height="99.504" filterUnits="userSpaceOnUse">
      <feOffset dy="3" input="SourceAlpha"/>
      <feGaussianBlur stdDeviation="3" result="blur"/>
      <feFlood flood-opacity="0.161"/>
      <feComposite operator="in" in2="blur"/>
      <feComposite in="SourceGraphic"/>
    </filter>
  </defs>
  <g id="Group_1154109" data-name="Group 1154109" transform="translate(-614 -6766)">
    <g id="Group_1153880" data-name="Group 1153880" transform="translate(0 59)">
      <g id="Group_1152582" data-name="Group 1152582" transform="translate(-0.496 4929)">
        <g id="Group_1146972" data-name="Group 1146972" transform="translate(623.496 1784)">
          <g id="Group_1146954" data-name="Group 1146954">
            <g transform="matrix(1, 0, 0, 1, -9, -6)" filter="url(#Path_982547)">
              <g id="Path_982547-2" data-name="Path 982547" transform="translate(9 6)" fill="#f2f8fa">
                <path d="M 40.7520751953125 80.00415802001953 C 35.45241546630859 80.00415802001953 30.31208610534668 78.96654510498047 25.47385215759277 76.92014312744141 C 20.79992294311523 74.9432373046875 16.60199356079102 72.11281585693359 12.99666309356689 68.50748443603516 C 9.391345977783203 64.90216064453125 6.560910701751709 60.70422744750977 4.584004402160645 56.03028869628906 C 2.53761625289917 51.19206237792969 1.500004649162292 46.05173492431641 1.500004649162292 40.7520751953125 C 1.500004649162292 35.45241546630859 2.53761625289917 30.31208610534668 4.584004402160645 25.47385215759277 C 6.560910701751709 20.79992294311523 9.391345977783203 16.60199356079102 12.99666309356689 12.99666309356689 C 16.60199356079102 9.391345977783203 20.79992294311523 6.560910701751709 25.47385215759277 4.584004402160645 C 30.31208610534668 2.53761625289917 35.45241546630859 1.500004649162292 40.7520751953125 1.500004649162292 C 46.05173492431641 1.500004649162292 51.19206237792969 2.53761625289917 56.03028869628906 4.584004402160645 C 60.70422744750977 6.560910701751709 64.90216064453125 9.391345977783203 68.50748443603516 12.99666309356689 C 72.11281585693359 16.60199356079102 74.9432373046875 20.79992294311523 76.92014312744141 25.47385215759277 C 78.96654510498047 30.31208610534668 80.00415802001953 35.45241546630859 80.00415802001953 40.7520751953125 C 80.00415802001953 46.05173492431641 78.96654510498047 51.19206237792969 76.92014312744141 56.03028869628906 C 74.9432373046875 60.70421600341797 72.11281585693359 64.90216064453125 68.50748443603516 68.50748443603516 C 64.90216064453125 72.11281585693359 60.70421600341797 74.9432373046875 56.03028869628906 76.92014312744141 C 51.19206237792969 78.96654510498047 46.05173492431641 80.00415802001953 40.7520751953125 80.00415802001953 Z" stroke="none"/>
                <path d="M 40.7520751953125 2.999992370605469 C 35.65426254272461 2.999992370605469 30.71051406860352 3.99774169921875 26.05818176269531 5.96551513671875 C 21.56304931640625 7.866798400878906 17.52538299560547 10.58927154541016 14.05732727050781 14.05732727050781 C 10.58927154541016 17.52538299560547 7.866798400878906 21.56304931640625 5.96551513671875 26.05818176269531 C 3.99774169921875 30.71051406860352 2.999992370605469 35.65426254272461 2.999992370605469 40.7520751953125 C 2.999992370605469 45.84988784790039 3.99774169921875 50.79363250732422 5.96551513671875 55.44596862792969 C 7.866798400878906 59.94110107421875 10.58927154541016 63.97876739501953 14.05732727050781 67.44682312011719 C 17.52538299560547 70.91487121582031 21.56304931640625 73.63735198974609 26.05818176269531 75.53863525390625 C 30.71051406860352 77.50640869140625 35.65426254272461 78.50415802001953 40.7520751953125 78.50415802001953 C 45.84988784790039 78.50415802001953 50.79363250732422 77.50640869140625 55.44596862792969 75.53863525390625 C 59.94110107421875 73.63735198974609 63.97876739501953 70.91487121582031 67.44682312011719 67.44682312011719 C 70.91487121582031 63.97876739501953 73.63735198974609 59.94110107421875 75.53863525390625 55.44596862792969 C 77.50640869140625 50.79363250732422 78.50415802001953 45.84988784790039 78.50415802001953 40.7520751953125 C 78.50415802001953 35.65426254272461 77.50640869140625 30.71051406860352 75.53863525390625 26.05818176269531 C 73.63735198974609 21.56304931640625 70.91487121582031 17.52538299560547 67.44682312011719 14.05732727050781 C 63.97876739501953 10.58927154541016 59.94110107421875 7.866798400878906 55.44596862792969 5.96551513671875 C 50.79363250732422 3.99774169921875 45.84988784790039 2.999992370605469 40.7520751953125 2.999992370605469 M 40.7520751953125 -7.62939453125e-06 C 63.25881958007812 -7.62939453125e-06 81.50415802001953 18.24532699584961 81.50415802001953 40.7520751953125 C 81.50415802001953 63.25881958007812 63.25881958007812 81.50415802001953 40.7520751953125 81.50415802001953 C 18.24532699584961 81.50415802001953 -7.62939453125e-06 63.25881958007812 -7.62939453125e-06 40.7520751953125 C -7.62939453125e-06 18.24532699584961 18.24532699584961 -7.62939453125e-06 40.7520751953125 -7.62939453125e-06 Z" stroke="none" fill="#6a7b7e"/>
              </g>
            </g>
          </g>
        </g>
      </g>
      <g id="dictado" transform="translate(639 6729)">
        <g id="Group_1153878" data-name="Group 1153878" transform="translate(0.977 0.977)">
          <path id="Path_989080" data-name="Path 989080" d="M26.9,42.237l-9.28-5.861H11.954A1.954,1.954,0,0,1,10,34.422V11.954A1.954,1.954,0,0,1,11.954,10H44.191a1.954,1.954,0,0,1,1.954,1.954V34.422a1.954,1.954,0,0,1-1.954,1.954H26.9Z" transform="translate(-10 -10)" fill="#bfdbff"/>
          <path id="Path_989081" data-name="Path 989081" d="M0,0H24.422V35.168H0Z" transform="translate(45.229 48.062) rotate(180)" fill="#faf7f5"/>
          <path id="Path_989082" data-name="Path 989082" d="M455.417,221.85l3.541,1.651.826-1.771a1.954,1.954,0,0,0-3.541-1.651Z" transform="translate(-411.905 -198.539)" fill="#ff9eb1"/>
          <path id="Path_989083" data-name="Path 989083" d="M0,0H3.908V3.908H0Z" transform="matrix(-0.906, -0.423, 0.423, -0.906, 45.425, 28.495)" fill="#c5d3de"/>
          <path id="Path_989084" data-name="Path 989084" d="M371.738,298.869l.656,3.314,2.885-1.662,6.523-13.989-3.541-1.651Z" transform="translate(-336.401 -258.029)" fill="#ffda8f"/>
        </g>
        <g id="Group_1153879" data-name="Group 1153879" transform="translate(0)">
          <path id="Path_989085" data-name="Path 989085" d="M62.5,212H50.977a.977.977,0,0,0,0,1.954H62.5a.977.977,0,0,0,0-1.954Z" transform="translate(-45.116 -191.29)"/>
          <path id="Path_989086" data-name="Path 989086" d="M50.977,173.954h5.861a.977.977,0,1,0,0-1.954H50.977a.977.977,0,1,0,0,1.954Z" transform="translate(-45.116 -155.198)"/>
          <path id="Path_989087" data-name="Path 989087" d="M50.977,133.954h5.861a.977.977,0,1,0,0-1.954H50.977a.977.977,0,1,0,0,1.954Z" transform="translate(-45.116 -119.105)"/>
          <path id="Path_989088" data-name="Path 989088" d="M161.838,92h-5.861a.977.977,0,1,0,0,1.954h5.861a.977.977,0,0,0,0-1.954Z" transform="translate(-139.858 -83.013)"/>
          <path id="Path_989089" data-name="Path 989089" d="M266.838,92h-5.861a.977.977,0,1,0,0,1.954h5.861a.977.977,0,0,0,0-1.954Z" transform="translate(-234.601 -83.013)"/>
          <path id="Path_989090" data-name="Path 989090" d="M50.977,93.954h5.861a.977.977,0,0,0,0-1.954H50.977a.977.977,0,0,0,0,1.954Z" transform="translate(-45.116 -83.013)"/>
          <path id="Path_989091" data-name="Path 989091" d="M50.977,53.954H62.5A.977.977,0,1,0,62.5,52H50.977a.977.977,0,0,0,0,1.954Z" transform="translate(-45.116 -46.92)"/>
          <path id="Path_989092" data-name="Path 989092" d="M213.977,53.954h10.453a.977.977,0,1,0,0-1.954H213.977a.977.977,0,1,0,0,1.954Z" transform="translate(-192.193 -46.92)"/>
          <ellipse id="Ellipse_11687" data-name="Ellipse 11687" cx="1" cy="1.5" rx="1" ry="1.5" transform="translate(45 37)"/>
          <path id="Path_989093" data-name="Path 989093" d="M260.131,341h-6.154a.977.977,0,1,0,0,1.954h6.154a.977.977,0,1,0,0-1.954Z" transform="translate(-228.285 -307.689)"/>
          <path id="Path_989094" data-name="Path 989094" d="M260.131,301h-6.154a.977.977,0,1,0,0,1.954h6.154a.977.977,0,1,0,0-1.954Z" transform="translate(-228.285 -271.596)"/>
          <path id="Path_989095" data-name="Path 989095" d="M260.131,421h-6.154a.977.977,0,1,0,0,1.954h6.154a.977.977,0,1,0,0-1.954Z" transform="translate(-228.285 -379.874)"/>
          <path id="Path_989096" data-name="Path 989096" d="M260.131,381h-6.154a.977.977,0,1,0,0,1.954h6.154a.977.977,0,1,0,0-1.954Z" transform="translate(-228.285 -343.781)"/>
          <path id="Path_989097" data-name="Path 989097" d="M286.908,177.954a.977.977,0,0,0,0-1.954h-2.931a.977.977,0,0,0-.977.977v7.815a.977.977,0,0,0,.977.977h2.931a.977.977,0,0,0,0-1.954h-1.954v-1.954h1.954a.977.977,0,0,0,0-1.954h-1.954v-1.954Z" transform="translate(-255.354 -158.807)"/>
          <path id="Path_989098" data-name="Path 989098" d="M357.884,176a.977.977,0,0,0-.977.977v3.677l-2.057-4.114a.977.977,0,0,0-1.851.437v7.815a.977.977,0,1,0,1.954,0v-3.677l2.057,4.114a1.144,1.144,0,0,0,.986.527.978.978,0,0,0,.865-.964v-7.815A.977.977,0,0,0,357.884,176Z" transform="translate(-318.516 -158.807)"/>
          <path id="Path_989099" data-name="Path 989099" d="M48.324,20.687a2.927,2.927,0,0,0-1.14-.274V13.872a.977.977,0,0,0-.977-.977H38.1V2.931A2.934,2.934,0,0,0,35.168,0H2.931A2.934,2.934,0,0,0,0,2.931V25.4a2.934,2.934,0,0,0,2.931,2.931H8.314l9.041,5.71a.977.977,0,0,0,1.5-.826V28.329h1.954v20.71a.977.977,0,0,0,.977.977H46.207a.978.978,0,0,0,.977-.977V42.592a.977.977,0,0,0-1.954,0v5.473H22.761V14.849H45.23v6.225a2.919,2.919,0,0,0-.8,1.031l-3.4,7.3H36.242a.977.977,0,0,0,0,1.954h3.872L39.2,33.311H36.242a.977.977,0,0,0,0,1.954h2.05l-.911,1.954H36.243a.977.977,0,0,0,0,1.954h.228L35.429,41.4a.978.978,0,0,0-.073.6l.656,3.314a.977.977,0,0,0,1.446.657l2.885-1.662a.977.977,0,0,0,.4-.434l4.547-9.752a.976.976,0,0,0,1.895-.331V30.067l2.558-5.486a2.934,2.934,0,0,0-1.418-3.895ZM17.877,26.376a.977.977,0,0,0-.977.977v4.089L9.118,26.526a.977.977,0,0,0-.522-.151H2.931a.978.978,0,0,1-.977-.977V2.931a.978.978,0,0,1,.977-.977H35.168a.978.978,0,0,1,.977.977v9.964H16.119a.977.977,0,1,0,0,1.954h4.689V16.8H16.119a.977.977,0,1,0,0,1.954h4.689v7.62Zm30.094-2.62-.413.885-1.771-.826.413-.885a.977.977,0,1,1,1.771.826Zm-2.064,4.427-1.771-.826.826-1.771,1.771.826ZM39.1,42.777l-1.437.828-.329-1.663L43.31,29.128l1.771.826Z" transform="translate(0)"/>
        </g>
      </g>
    </g>
  </g>
</svg>
