<svg xmlns="http://www.w3.org/2000/svg" xmlns:xlink="http://www.w3.org/1999/xlink" width="99.504" height="99.504" viewBox="0 0 99.504 99.504">
  <defs>
    <filter id="Path_982547" x="0" y="0" width="99.504" height="99.504" filterUnits="userSpaceOnUse">
      <feOffset dy="3" input="SourceAlpha"/>
      <feGaussianBlur stdDeviation="3" result="blur"/>
      <feFlood flood-opacity="0.161"/>
      <feComposite operator="in" in2="blur"/>
      <feComposite in="SourceGraphic"/>
    </filter>
  </defs>
  <g id="Group_1154110" data-name="Group 1154110" transform="translate(-1034 -6766)">
    <g id="Group_1153881" data-name="Group 1153881" transform="translate(0 59)">
      <g id="Group_1152583" data-name="Group 1152583" transform="translate(-0.496 4929)">
        <g id="Group_1146973" data-name="Group 1146973" transform="translate(1043.496 1784)">
          <g id="Group_1146954" data-name="Group 1146954">
            <g transform="matrix(1, 0, 0, 1, -9, -6)" filter="url(#Path_982547)">
              <g id="Path_982547-2" data-name="Path 982547" transform="translate(9 6)" fill="#f2f8fa">
                <path d="M 40.7520751953125 80.00415802001953 C 35.45241546630859 80.00415802001953 30.31208610534668 78.96654510498047 25.47385215759277 76.92014312744141 C 20.79992294311523 74.9432373046875 16.60199356079102 72.11281585693359 12.99666309356689 68.50748443603516 C 9.391345977783203 64.90216064453125 6.560910701751709 60.70422744750977 4.584004402160645 56.03028869628906 C 2.53761625289917 51.19206237792969 1.500004649162292 46.05173492431641 1.500004649162292 40.7520751953125 C 1.500004649162292 35.45241546630859 2.53761625289917 30.31208610534668 4.584004402160645 25.47385215759277 C 6.560910701751709 20.79992294311523 9.391345977783203 16.60199356079102 12.99666309356689 12.99666309356689 C 16.60199356079102 9.391345977783203 20.79992294311523 6.560910701751709 25.47385215759277 4.584004402160645 C 30.31208610534668 2.53761625289917 35.45241546630859 1.500004649162292 40.7520751953125 1.500004649162292 C 46.05173492431641 1.500004649162292 51.19206237792969 2.53761625289917 56.03028869628906 4.584004402160645 C 60.70422744750977 6.560910701751709 64.90216064453125 9.391345977783203 68.50748443603516 12.99666309356689 C 72.11281585693359 16.60199356079102 74.9432373046875 20.79992294311523 76.92014312744141 25.47385215759277 C 78.96654510498047 30.31208610534668 80.00415802001953 35.45241546630859 80.00415802001953 40.7520751953125 C 80.00415802001953 46.05173492431641 78.96654510498047 51.19206237792969 76.92014312744141 56.03028869628906 C 74.9432373046875 60.70421600341797 72.11281585693359 64.90216064453125 68.50748443603516 68.50748443603516 C 64.90216064453125 72.11281585693359 60.70421600341797 74.9432373046875 56.03028869628906 76.92014312744141 C 51.19206237792969 78.96654510498047 46.05173492431641 80.00415802001953 40.7520751953125 80.00415802001953 Z" stroke="none"/>
                <path d="M 40.7520751953125 2.999992370605469 C 35.65426254272461 2.999992370605469 30.71051406860352 3.99774169921875 26.05818176269531 5.96551513671875 C 21.56304931640625 7.866798400878906 17.52538299560547 10.58927154541016 14.05732727050781 14.05732727050781 C 10.58927154541016 17.52538299560547 7.866798400878906 21.56304931640625 5.96551513671875 26.05818176269531 C 3.99774169921875 30.71051406860352 2.999992370605469 35.65426254272461 2.999992370605469 40.7520751953125 C 2.999992370605469 45.84988784790039 3.99774169921875 50.79363250732422 5.96551513671875 55.44596862792969 C 7.866798400878906 59.94110107421875 10.58927154541016 63.97876739501953 14.05732727050781 67.44682312011719 C 17.52538299560547 70.91487121582031 21.56304931640625 73.63735198974609 26.05818176269531 75.53863525390625 C 30.71051406860352 77.50640869140625 35.65426254272461 78.50415802001953 40.7520751953125 78.50415802001953 C 45.84988784790039 78.50415802001953 50.79363250732422 77.50640869140625 55.44596862792969 75.53863525390625 C 59.94110107421875 73.63735198974609 63.97876739501953 70.91487121582031 67.44682312011719 67.44682312011719 C 70.91487121582031 63.97876739501953 73.63735198974609 59.94110107421875 75.53863525390625 55.44596862792969 C 77.50640869140625 50.79363250732422 78.50415802001953 45.84988784790039 78.50415802001953 40.7520751953125 C 78.50415802001953 35.65426254272461 77.50640869140625 30.71051406860352 75.53863525390625 26.05818176269531 C 73.63735198974609 21.56304931640625 70.91487121582031 17.52538299560547 67.44682312011719 14.05732727050781 C 63.97876739501953 10.58927154541016 59.94110107421875 7.866798400878906 55.44596862792969 5.96551513671875 C 50.79363250732422 3.99774169921875 45.84988784790039 2.999992370605469 40.7520751953125 2.999992370605469 M 40.7520751953125 -7.62939453125e-06 C 63.25881958007812 -7.62939453125e-06 81.50415802001953 18.24532699584961 81.50415802001953 40.7520751953125 C 81.50415802001953 63.25881958007812 63.25881958007812 81.50415802001953 40.7520751953125 81.50415802001953 C 18.24532699584961 81.50415802001953 -7.62939453125e-06 63.25881958007812 -7.62939453125e-06 40.7520751953125 C -7.62939453125e-06 18.24532699584961 18.24532699584961 -7.62939453125e-06 40.7520751953125 -7.62939453125e-06 Z" stroke="none" fill="#6a7b7e"/>
              </g>
            </g>
          </g>
        </g>
      </g>
      <g id="_035---Creative-Writing" data-name="035---Creative-Writing" transform="translate(1065 6722)">
        <g id="Icons" transform="translate(1 7)">
          <rect id="Rectangle-path" width="34" height="41" rx="3" transform="translate(0 11)" fill="#dfc49c"/>
          <rect id="Rectangle-path-2" data-name="Rectangle-path" width="31" height="41" rx="3" transform="translate(0 11)" fill="#ffe0b2"/>
          <path id="Shape" d="M21,15v4H13c0-3.517.007-3.879-.01-4Z" fill="#9e9e9e"/>
          <path id="Shape-2" data-name="Shape" d="M22.37,11.49A5.475,5.475,0,0,0,21,15H12.99a6.115,6.115,0,0,0-1.44-3.6,7,7,0,1,1,10.82.09Z" fill="#ffdc00"/>
          <path id="Shape-3" data-name="Shape" d="M21,19v2a2.006,2.006,0,0,1-2,2H15a2.006,2.006,0,0,1-2-2V19Z" fill="#707070"/>
          <path id="Shape-4" data-name="Shape" d="M19,23v2a2,2,0,0,1-4,0V23Z" fill="#37474f"/>
          <path id="Shape-5" data-name="Shape" d="M22.37,11.49A5.475,5.475,0,0,0,21,15H18a5.475,5.475,0,0,1,1.37-3.51A7.011,7.011,0,0,0,15.49.16a7.012,7.012,0,0,1,6.88,11.33Z" fill="#fec108"/>
          <path id="Shape-6" data-name="Shape" d="M40.59,27.49,24.32,43.76,18.67,38.1,34.93,21.84Z" fill="#02a9f4"/>
          <path id="Shape-7" data-name="Shape" d="M24.32,43.76c-8.1,3.47-9.72,4.12-9.89,4.23l4.24-9.89Z" fill="#9e9e9e"/>
          <path id="Shape-8" data-name="Shape" d="M44.83,23.25l-4.24,4.24-5.66-5.65,4.24-4.25a4,4,0,0,1,5.66,5.66Z" fill="#02a9f4"/>
          <path id="Shape-9" data-name="Shape" d="M40.59,27.49,24.32,43.76l-1.99-2L38.59,25.5Z" fill="#0377bc"/>
          <path id="Shape-10" data-name="Shape" d="M24.32,43.76c-8.1,3.47-9.72,4.12-9.89,4.23l1.5-3.49c1.47-.63,3.52-1.51,6.39-2.73Z" fill="#707070"/>
          <path id="Shape-11" data-name="Shape" d="M44.83,23.25l-4.24,4.24-2-1.99,4.24-4.24a4,4,0,0,0,.81-4.48,4,4,0,0,1,1.19,6.47Z" fill="#0377bc"/>
        </g>
        <g id="Outline">
          <path id="Shape-12" data-name="Shape" d="M10.591,17H4a4,4,0,0,0-4,4V56a4,4,0,0,0,4,4H32a4,4,0,0,0,4-4V46.73a1,1,0,0,0-2,0V56a2,2,0,0,1-2,2H4a2,2,0,0,1-2-2V21a2,2,0,0,1,2-2h7.755A5.11,5.11,0,0,1,13,22.2V28a3,3,0,0,0,2,2.816c0,1.277-.131,2.313.874,3.292A3,3,0,0,0,21,32V30.816A3,3,0,0,0,23,28V22.01A4.636,4.636,0,0,1,24.238,19H32a2,2,0,0,1,2,2,1,1,0,0,0,1,1c2.092,0,.814-5-3-5H25.417a8,8,0,1,0-14.826,0ZM21,23v2H15V23ZM18,33a1.008,1.008,0,0,1-1-1V31h2v1A1,1,0,0,1,18,33Zm3-5a1,1,0,0,1-1,1H16a1,1,0,0,1-1-1V27h6ZM14,9.525a6,6,0,0,1,8.605,8.323A6.68,6.68,0,0,0,21.1,21H19V16a1,1,0,0,0-2,0v5H14.88C14.255,17.769,12,17.462,12,14a6.009,6.009,0,0,1,2-4.475Z"/>
          <path id="Shape-13" data-name="Shape" d="M19,3V1a1,1,0,0,0-2,0V3a1,1,0,0,0,2,0Z"/>
          <path id="Shape-14" data-name="Shape" d="M29,15h2a1,1,0,0,0,0-2H29a1,1,0,0,0,0,2Z"/>
          <path id="Shape-15" data-name="Shape" d="M7,13H5a1,1,0,0,0,0,2H7a1,1,0,0,0,0-2Z"/>
          <path id="Shape-16" data-name="Shape" d="M27.9,22.485l-1.414-1.414a1,1,0,1,0-1.414,1.414L26.485,23.9A1,1,0,0,0,27.9,22.485Z"/>
          <path id="Shape-17" data-name="Shape" d="M9.515,6.929a1,1,0,1,0,1.414-1.414L9.515,4.1A1,1,0,1,0,8.1,5.515Z"/>
          <path id="Shape-18" data-name="Shape" d="M9.515,23.9l1.414-1.414a1,1,0,1,0-1.414-1.414L8.1,22.485A1,1,0,0,0,9.515,23.9Z"/>
          <path id="Shape-19" data-name="Shape" d="M26.485,4.1,25.071,5.515a1,1,0,0,0,1.414,1.414L27.9,5.515A1,1,0,0,0,26.485,4.1Z"/>
          <path id="Shape-20" data-name="Shape" d="M5,27a1,1,0,0,0,1,1h4a1,1,0,0,0,0-2H6A1,1,0,0,0,5,27Z"/>
          <path id="Shape-21" data-name="Shape" d="M27,26H26a1,1,0,0,0,0,2h1a1,1,0,0,0,0-2Z"/>
          <path id="Shape-22" data-name="Shape" d="M6,33h4a1,1,0,0,0,0-2H6a1,1,0,0,0,0,2Z"/>
          <path id="Shape-23" data-name="Shape" d="M6,43H17.11a1,1,0,1,0,0-2H6a1,1,0,0,0,0,2Z"/>
          <path id="Shape-24" data-name="Shape" d="M15.5,47a1,1,0,0,0-1-1H6a1,1,0,0,0,0,2h8.5A1,1,0,0,0,15.5,47Z"/>
          <path id="Shape-25" data-name="Shape" d="M6,51a1,1,0,0,0,0,2h6.36a1,1,0,1,0,0-2Z"/>
          <path id="Shape-26" data-name="Shape" d="M6,38H22.11a1,1,0,1,0,0-2H6a1,1,0,0,0,0,2Z"/>
          <path id="Shape-27" data-name="Shape" d="M43,22.423c-2.389,0-3.436,1.365-4.95,2.879l-.707-.707a3,3,0,0,0-4.242,0l-6.364,6.363a1,1,0,0,0,1.414,1.415l6.364-6.364a1,1,0,0,1,1.414,0l.707.707c-18.829,18.827-17.767,17.7-17.9,18.008-.4.805,1.431-3.34-4.235,9.882A1,1,0,0,0,15.423,56c.293,0-.475.288,10.293-4.324.406-.174.229-.123,20.819-20.718A5.008,5.008,0,0,0,43,22.423ZM17.327,53.1,20,46.852l3.568,3.568Zm8-3.753L21.08,45.1,35.929,30.25l4.243,4.243Zm19.8-19.8L41.586,33.08l-4.243-4.243L40.879,25.3a3.072,3.072,0,0,1,4.242,0,3,3,0,0,1,0,4.244Z"/>
        </g>
      </g>
    </g>
  </g>
</svg>
