<svg xmlns="http://www.w3.org/2000/svg" xmlns:xlink="http://www.w3.org/1999/xlink" width="125.531" height="125.531" viewBox="0 0 125.531 125.531">
  <defs>
    <filter id="Path_982547" x="0" y="0" width="125.531" height="125.531" filterUnits="userSpaceOnUse">
      <feOffset dy="3" input="SourceAlpha"/>
      <feGaussianBlur stdDeviation="3" result="blur"/>
      <feFlood flood-opacity="0.161"/>
      <feComposite operator="in" in2="blur"/>
      <feComposite in="SourceGraphic"/>
    </filter>
  </defs>
  <g id="Group_1154102" data-name="Group 1154102" transform="translate(-319.734 -5600.734)">
    <g id="Group_1153871" data-name="Group 1153871" transform="translate(-6.266 79.734)">
      <g id="Group_1152576" data-name="Group 1152576" transform="translate(335 5527)">
        <g id="Group_1148633" data-name="Group 1148633">
          <g id="Group_1148525" data-name="Group 1148525" transform="translate(0)">
            <g transform="matrix(1, 0, 0, 1, -9, -6)" filter="url(#Path_982547)">
              <g id="Path_982547-2" data-name="Path 982547" transform="translate(9 6)" fill="#fff6f9">
                <path d="M 53.76562881469727 106.0312576293945 C 46.70915222167969 106.0312576293945 39.86455154418945 104.6495666503906 33.42195129394531 101.9245834350586 C 27.19836807250977 99.29222869873047 21.60872077941895 95.52347564697266 16.8082447052002 90.72301483154297 C 12.00778293609619 85.92253875732422 8.239028930664062 80.33289337158203 5.606675148010254 74.10930633544922 C 2.881690263748169 67.66670227050781 1.499998092651367 60.82210540771484 1.499998092651367 53.76562881469727 C 1.499998092651367 46.70915222167969 2.881690263748169 39.86455154418945 5.606675148010254 33.42195129394531 C 8.239028930664062 27.19836807250977 12.00778293609619 21.60872077941895 16.8082447052002 16.8082447052002 C 21.60872077941895 12.00778293609619 27.19836807250977 8.239028930664062 33.42195129394531 5.606675148010254 C 39.86455154418945 2.881690263748169 46.70915222167969 1.499998092651367 53.76562881469727 1.499998092651367 C 60.82210540771484 1.499998092651367 67.66670227050781 2.881690263748169 74.10930633544922 5.606675148010254 C 80.33289337158203 8.239028930664062 85.92253875732422 12.00778293609619 90.72301483154297 16.8082447052002 C 95.52347564697266 21.60872077941895 99.29222869873047 27.19836807250977 101.9245834350586 33.42195129394531 C 104.6495666503906 39.86455154418945 106.0312576293945 46.70915222167969 106.0312576293945 53.76562881469727 C 106.0312576293945 60.82210540771484 104.6495666503906 67.66670227050781 101.9245834350586 74.10930633544922 C 99.29222869873047 80.33289337158203 95.52347564697266 85.92253875732422 90.72301483154297 90.72301483154297 C 85.92253875732422 95.52347564697266 80.33289337158203 99.29222869873047 74.10930633544922 101.9245834350586 C 67.66670227050781 104.6495666503906 60.82210540771484 106.0312576293945 53.76562881469727 106.0312576293945 Z" stroke="none"/>
                <path d="M 53.76562881469727 2.999992370605469 C 46.91099548339844 2.999992370605469 40.26297760009766 4.341812133789062 34.00627899169922 6.988182067871094 C 27.96149444580078 9.544914245605469 22.53211212158203 13.20571136474609 17.86891174316406 17.86891174316406 C 13.20571136474609 22.53211212158203 9.544914245605469 27.96149444580078 6.988182067871094 34.00627899169922 C 4.341812133789062 40.26297760009766 2.999992370605469 46.91099548339844 2.999992370605469 53.76562881469727 C 2.999992370605469 60.62026214599609 4.341812133789062 67.26828002929688 6.988182067871094 73.52497863769531 C 9.544914245605469 79.56976318359375 13.20571136474609 84.9991455078125 17.86891174316406 89.66234588623047 C 22.53211212158203 94.32554626464844 27.96149444580078 97.98634338378906 34.00627899169922 100.5430755615234 C 40.26297760009766 103.1894454956055 46.91099548339844 104.5312652587891 53.76562881469727 104.5312652587891 C 60.62026214599609 104.5312652587891 67.26828002929688 103.1894454956055 73.52497863769531 100.5430755615234 C 79.56976318359375 97.98634338378906 84.9991455078125 94.32554626464844 89.66234588623047 89.66234588623047 C 94.32554626464844 84.9991455078125 97.98634338378906 79.56976318359375 100.5430755615234 73.52497863769531 C 103.1894454956055 67.26828002929688 104.5312652587891 60.62026214599609 104.5312652587891 53.76562881469727 C 104.5312652587891 46.91099548339844 103.1894454956055 40.26297760009766 100.5430755615234 34.00627899169922 C 97.98634338378906 27.96149444580078 94.32554626464844 22.53211212158203 89.66234588623047 17.86891174316406 C 84.9991455078125 13.20571136474609 79.56976318359375 9.544914245605469 73.52497863769531 6.988182067871094 C 67.26828002929688 4.341812133789062 60.62026214599609 2.999992370605469 53.76562881469727 2.999992370605469 M 53.76562881469727 -7.62939453125e-06 C 83.45956420898438 -7.62939453125e-06 107.5312652587891 24.07169342041016 107.5312652587891 53.76562881469727 C 107.5312652587891 83.45956420898438 83.45956420898438 107.5312652587891 53.76562881469727 107.5312652587891 C 24.07169342041016 107.5312652587891 -7.62939453125e-06 83.45956420898438 -7.62939453125e-06 53.76562881469727 C -7.62939453125e-06 24.07169342041016 24.07169342041016 -7.62939453125e-06 53.76562881469727 -7.62939453125e-06 Z" stroke="none" fill="#ffaece"/>
              </g>
            </g>
          </g>
        </g>
      </g>
      <g id="depresion" transform="translate(351.979 5543.979)">
        <g id="Group_1153869" data-name="Group 1153869" transform="translate(1.098 1.097)">
          <path id="Path_988993" data-name="Path 988993" d="M80.281,94.8a5.6,5.6,0,0,1-5.621,5.621H13.121A5.6,5.6,0,0,1,7.5,94.8,5.513,5.513,0,0,1,13.013,89.4a2.337,2.337,0,0,0,2.642-1.468,7.724,7.724,0,0,1,7.282-5.15,8.309,8.309,0,0,1,6.617,3.309H58.226a8.309,8.309,0,0,1,6.617-3.309,7.724,7.724,0,0,1,7.282,5.15c.516,1.465,1.731,1.468,2.642,1.468A5.513,5.513,0,0,1,80.281,94.8Z" transform="translate(-7.499 -71.754)" fill="#5ad6ff"/>
          <path id="Path_988994" data-name="Path 988994" d="M41.74,86.478v13.948H13.121A5.6,5.6,0,0,1,7.5,94.8,5.513,5.513,0,0,1,13.013,89.4a2.337,2.337,0,0,0,2.642-1.468,7.724,7.724,0,0,1,7.282-5.15,8.309,8.309,0,0,1,6.617,3.309H41.7Z" transform="translate(-7.499 -71.754)" fill="#00c5fd"/>
          <path id="Path_988995" data-name="Path 988995" d="M138.838,175.771a5.578,5.578,0,0,1-5.611,5.469h-37.3a5.578,5.578,0,0,1-5.611-5.469,5.514,5.514,0,0,1,3.169-5.037,2.193,2.193,0,0,0,1.245-1.888,5.57,5.57,0,0,1,4.391-5.153,2.189,2.189,0,0,0,1.591-1.227,5.518,5.518,0,0,1,7.66-2.623,2.084,2.084,0,0,0,.974.252,2.211,2.211,0,0,0,1.522-.58,5.516,5.516,0,0,1,7.42,0,2.18,2.18,0,0,0,2.5.328,5.518,5.518,0,0,1,7.66,2.623,2.2,2.2,0,0,0,1.592,1.229,5.571,5.571,0,0,1,4.391,5.153,2.188,2.188,0,0,0,1.245,1.886A5.516,5.516,0,0,1,138.838,175.771Z" transform="translate(-78.185 -136.025)" fill="#7888af"/>
          <path id="Path_988996" data-name="Path 988996" d="M103.954,187.668H95.926a5.578,5.578,0,0,1-5.611-5.469,5.513,5.513,0,0,1,3.169-5.037,2.193,2.193,0,0,0,1.245-1.888,5.569,5.569,0,0,1,4.391-5.153,2.189,2.189,0,0,0,1.591-1.227,5.518,5.518,0,0,1,7.66-2.623,2.083,2.083,0,0,0,.974.252C106.823,171.2,103.649,178.912,103.954,187.668Z" transform="translate(-78.185 -142.453)" fill="#5972a5"/>
          <path id="Path_988997" data-name="Path 988997" d="M96.023,309.959H87.2a4.411,4.411,0,0,1,0-8.822h8.822Z" transform="translate(-71.763 -258.129)" fill="#ffbbae"/>
          <path id="Path_988998" data-name="Path 988998" d="M338.79,309.959h8.822a4.411,4.411,0,0,0,0-8.822H338.79Z" transform="translate(-290.268 -258.129)" fill="#ffcbbe"/>
          <path id="Path_988999" data-name="Path 988999" d="M176.109,385.443v1.112a2.2,2.2,0,0,1-2.2,2.2H145.223a2.2,2.2,0,0,1-2.2-2.2v-1.112a16.542,16.542,0,0,1,33.083,0Z" transform="translate(-123.176 -315.968)" fill="#60daa8"/>
          <path id="Path_989000" data-name="Path 989000" d="M157.418,382.829a5.74,5.74,0,0,0-.27,6.733H145.223a2.2,2.2,0,0,1-2.2-2.2v-1.112a16.543,16.543,0,0,1,14.392-16.4Z" transform="translate(-123.176 -316.779)" fill="#00ce8e"/>
          <path id="Path_989001" data-name="Path 989001" d="M162.356,252.081a19.86,19.86,0,0,1-22,19.734l-11.742-5.557h0a19.813,19.813,0,0,1-5.181-8.663l-.4-8.822a2.23,2.23,0,0,1,1.941-1.224,6.2,6.2,0,0,0,5.4-3.187,9.1,9.1,0,0,1,2.4-2.648c3.379-2.5,7.992-2.393,9.725-.661,2.206-2.206,9.075-1.784,12.13,3.309a6.2,6.2,0,0,0,5.4,3.187,2.213,2.213,0,0,1,2.15,1.91A20.105,20.105,0,0,1,162.356,252.081Z" transform="translate(-106.114 -205.765)" fill="#ffddcf"/>
          <path id="Path_989002" data-name="Path 989002" d="M138.136,283.042a19.85,19.85,0,0,1-17.7-19.734,20.112,20.112,0,0,1,.171-2.622,2.213,2.213,0,0,1,2.15-1.91,6.2,6.2,0,0,0,5.4-3.187,9.1,9.1,0,0,1,2.4-2.648A33.16,33.16,0,0,0,138.136,283.042Z" transform="translate(-103.895 -216.992)" fill="#ffcbbe"/>
          <path id="Path_989003" data-name="Path 989003" d="M201.32,82.864,189.632,94.553a2.2,2.2,0,0,0,1.554,3.75h4.233a2.2,2.2,0,0,1,2.167,2.558l-1.144,6.862a1.1,1.1,0,0,0,1.91.9l9.7-11.091a2.2,2.2,0,0,0-1.653-3.644h-4.579a2.2,2.2,0,0,1-2.149-2.652l1.789-8.456" transform="translate(-162.403 -71.756)" fill="#eedb00"/>
          <path id="Path_989004" data-name="Path 989004" d="M164.36,19.569a5.606,5.606,0,0,1-5.615,5.567H133.591a5.6,5.6,0,0,1-5.621-5.621,5.513,5.513,0,0,1,5.513-5.406c.144,0,.286.006.425.016a2.195,2.195,0,0,0,2.217-1.484,7.716,7.716,0,0,1,12.608-3.019,2.2,2.2,0,0,0,2.282.492,6.626,6.626,0,0,1,8.208,3.18,2.157,2.157,0,0,0,1.283,1.068,5.515,5.515,0,0,1,3.855,5.207Z" transform="translate(-110.325 -7.492)" fill="#a4e7ff"/>
          <path id="Path_989005" data-name="Path 989005" d="M144.588,25.135h-11a5.6,5.6,0,0,1-5.621-5.621,5.513,5.513,0,0,1,5.513-5.406c.144,0,.286.006.425.016a2.195,2.195,0,0,0,2.217-1.484,7.729,7.729,0,0,1,9.133-4.926c-1.421,2.493-5.053,10.178-.671,17.42Z" transform="translate(-110.325 -7.491)" fill="#5ad6ff"/>
          <g id="Group_1153868" data-name="Group 1153868" transform="translate(20.44 45.965)">
            <g id="Group_1153867" data-name="Group 1153867">
              <ellipse id="Ellipse_11685" data-name="Ellipse 11685" cx="4.299" cy="3.424" rx="4.299" ry="3.424" fill="#ffa1ac"/>
              <ellipse id="Ellipse_11686" data-name="Ellipse 11686" cx="4.299" cy="3.424" rx="4.299" ry="3.424" transform="translate(23.304)" fill="#ffa1ac"/>
            </g>
          </g>
        </g>
        <g id="Group_1153870" data-name="Group 1153870" transform="translate(0 0)">
          <path id="Path_989006" data-name="Path 989006" d="M72.821,19.37a6.571,6.571,0,0,0-4.963-1.705,1.1,1.1,0,0,1-1.1-.754,8.838,8.838,0,0,0-10.792-5.54,6.591,6.591,0,0,0-4.359-4.449,1.059,1.059,0,0,1-.636-.522A7.721,7.721,0,0,0,41.4,2.694a1.1,1.1,0,0,1-1.138-.259,8.827,8.827,0,0,0-14.4,3.448,1.1,1.1,0,0,1-1.1.754,6.608,6.608,0,0,0-6.782,4.509,8.828,8.828,0,0,0-9.762,5.765,1.1,1.1,0,0,1-1.1.753A6.588,6.588,0,0,0,1.89,28.835,6.809,6.809,0,0,0,6.72,30.87H17.438a6.558,6.558,0,0,0-.893,3,1.092,1.092,0,0,1-.615.945,6.585,6.585,0,0,0-2.83,9.4,5.506,5.506,0,0,0,3.436,9.812h1.072c.16.481.336.958.531,1.427a1.1,1.1,0,0,0,2.028-.845A18.817,18.817,0,0,1,18.9,44.937a1.113,1.113,0,0,1,1.093-.955,7.309,7.309,0,0,0,6.309-3.72,8.572,8.572,0,0,1,7.86-4.021l-.107.645a2.195,2.195,0,0,0,3.82,1.807L39.9,36.379a8.53,8.53,0,0,1,8.779,3.883,7.31,7.31,0,0,0,6.31,3.72,1.113,1.113,0,0,1,1.091.955A18.754,18.754,0,0,1,22.6,58.811a1.1,1.1,0,0,0-1.745,1.335q.645.843,1.362,1.606a17.571,17.571,0,0,0-2.365,8.822v1.112a3.3,3.3,0,0,0,3.3,3.3H51.834a3.3,3.3,0,0,0,3.3-3.3V70.574a17.578,17.578,0,0,0-2.367-8.826,20.9,20.9,0,0,0,4.6-7.72h1.08a5.507,5.507,0,0,0,3.439-9.811,6.59,6.59,0,0,0-2.83-9.4,1.087,1.087,0,0,1-.616-.942,6.551,6.551,0,0,0-.893-3h3.982a1.1,1.1,0,1,0,0-2.2H55.489a6.437,6.437,0,0,0-2.322-.98,1.105,1.105,0,0,1-.807-.6,6.646,6.646,0,0,0-4.759-3.81,3.258,3.258,0,0,0-2.5-1.15H40.52a1.1,1.1,0,0,1-1.074-1.325l.205-.969h9.868a6.717,6.717,0,0,0,6.7-6.254,6.648,6.648,0,0,1,8.467,4.053,3.294,3.294,0,0,0,3.334,2.214,4.391,4.391,0,0,1,3.5,7.441,4.6,4.6,0,0,1-3.262,1.376H66.651a1.1,1.1,0,0,0,0,2.2h1.608a6.808,6.808,0,0,0,4.83-2.035,6.556,6.556,0,0,0-.269-9.466ZM52.933,71.685a1.1,1.1,0,0,1-1.1,1.1H23.145a1.1,1.1,0,0,1-1.1-1.1V70.574a15.387,15.387,0,0,1,1.806-7.247,20.956,20.956,0,0,0,27.27-.01,15.393,15.393,0,0,1,1.811,7.258Zm-36.4-19.855a3.315,3.315,0,1,1,.122-6.627,21.116,21.116,0,0,0,.353,6.627Zm7.881-12.7a5.079,5.079,0,0,1-4.487,2.654,3.329,3.329,0,0,0-2.5,1.223,8.174,8.174,0,0,0-2.367.2,4.392,4.392,0,0,1,1.8-6.406A3.284,3.284,0,0,0,18.74,33.97a4.455,4.455,0,0,1,3.511-4.126,3.294,3.294,0,0,0,2.378-1.86,4.434,4.434,0,0,1,1.981-2.115,3.272,3.272,0,0,0,3.272,2.875h4.233A1.1,1.1,0,0,1,35.2,30.023l-.675,4.046A10.762,10.762,0,0,0,24.417,39.131Zm34.025,12.7h-.48a21.031,21.031,0,0,0,.36-6.627,3.315,3.315,0,1,1,.12,6.627ZM50.351,27.986a3.3,3.3,0,0,0,2.377,1.859,4.452,4.452,0,0,1,3.512,4.125A3.278,3.278,0,0,0,58.115,36.8a4.389,4.389,0,0,1,1.8,6.406,8.159,8.159,0,0,0-2.366-.2,3.327,3.327,0,0,0-2.5-1.223,5.079,5.079,0,0,1-4.489-2.654,10.7,10.7,0,0,0-8.612-5.1L47.578,27.6a3.286,3.286,0,0,0,.786-1.736A4.436,4.436,0,0,1,50.351,27.986ZM40.52,24.332H45.1a1.056,1.056,0,0,1,.938.528,1.072,1.072,0,0,1-.115,1.3l-9.7,11.087,1.144-6.861a3.3,3.3,0,0,0-3.251-3.837H29.881a1.1,1.1,0,0,1-.777-1.874l4.831-4.831h3.471l-.109.513a3.294,3.294,0,0,0,3.223,3.978Zm12.236-8.048a4.591,4.591,0,0,1-3.237,1.36l-25.213-.013a4.888,4.888,0,0,1-.966-.106,1.1,1.1,0,1,0-.5,2.139,6.684,6.684,0,0,0,1.528.177h6.462L27.4,23.282a6.648,6.648,0,0,0-4.779,3.813,1.1,1.1,0,0,1-.8.6,6.433,6.433,0,0,0-2.326.981H6.72A4.6,4.6,0,0,1,3.459,27.3a4.355,4.355,0,0,1,.18-6.3,4.4,4.4,0,0,1,3.314-1.138,3.294,3.294,0,0,0,3.338-2.213,6.639,6.639,0,0,1,7.352-4.325,6.49,6.49,0,0,0,.489,2.371,1.1,1.1,0,0,0,2.032-.836A4.4,4.4,0,0,1,24.6,8.828a3.3,3.3,0,0,0,3.336-2.213,6.629,6.629,0,0,1,10.813-2.59,3.313,3.313,0,0,0,3.425.726A5.523,5.523,0,0,1,49.019,7.4a3.24,3.24,0,0,0,1.931,1.614,4.376,4.376,0,0,1,1.806,7.267Z" transform="translate(0 -0.002)"/>
          <path id="Path_989007" data-name="Path 989007" d="M208.8,30.108a5.516,5.516,0,0,0-5.51,5.51,1.1,1.1,0,0,0,2.2,0A3.316,3.316,0,0,1,208.8,32.3a1.1,1.1,0,0,0,0-2.2Z" transform="translate(-173.514 -25.699)"/>
          <path id="Path_989008" data-name="Path 989008" d="M278.906,81.844a3.316,3.316,0,0,1-4.685,0,1.1,1.1,0,0,0-1.553,1.554,5.516,5.516,0,0,0,7.792,0,1.1,1.1,0,0,0-1.553-1.554Z" transform="translate(-232.458 -69.582)"/>
          <path id="Path_989009" data-name="Path 989009" d="M223.063,332.806a1.1,1.1,0,0,0,.9-.471,3.414,3.414,0,0,1,5.957,0,1.1,1.1,0,1,0,1.8-1.255,5.6,5.6,0,0,0-9.563,0A1.1,1.1,0,0,0,223.063,332.806Z" transform="translate(-189.455 -280.297)"/>
          <path id="Path_989010" data-name="Path 989010" d="M173.717,310.516a1.1,1.1,0,0,0-1.656-1.443,2.208,2.208,0,0,1-3.335,0,1.1,1.1,0,1,0-1.656,1.443A4.408,4.408,0,0,0,173.717,310.516Z" transform="translate(-142.369 -263.484)"/>
          <path id="Path_989011" data-name="Path 989011" d="M302.972,310.516a1.1,1.1,0,1,0-1.656-1.443,2.208,2.208,0,0,1-3.335,0,1.1,1.1,0,1,0-1.656,1.443A4.407,4.407,0,0,0,302.972,310.516Z" transform="translate(-252.693 -263.484)"/>
        </g>
      </g>
    </g>
  </g>
</svg>
