<svg xmlns="http://www.w3.org/2000/svg" xmlns:xlink="http://www.w3.org/1999/xlink" width="108" height="108" viewBox="0 0 108 108">
  <defs>
    <filter id="Path_982547" x="0" y="0" width="108" height="108" filterUnits="userSpaceOnUse">
      <feOffset dy="3" input="SourceAlpha"/>
      <feGaussianBlur stdDeviation="3" result="blur"/>
      <feFlood flood-opacity="0.161"/>
      <feComposite operator="in" in2="blur"/>
      <feComposite in="SourceGraphic"/>
    </filter>
  </defs>
  <g id="Group_1154147" data-name="Group 1154147" transform="translate(-201 -1515)">
    <g id="Group_1153982" data-name="Group 1153982" transform="translate(0 -80)">
      <g id="Group_1152646" data-name="Group 1152646" transform="translate(0 -484)">
        <g id="Group_1146977" data-name="Group 1146977" transform="translate(210 2085)">
          <g id="Group_1146954" data-name="Group 1146954">
            <g transform="matrix(1, 0, 0, 1, -9, -6)" filter="url(#Path_982547)">
              <g id="Path_982547-2" data-name="Path 982547" transform="translate(9 6)" fill="#f2f8fa">
                <path d="M 45 88.5 C 39.12687683105469 88.5 33.43022537231445 87.35007476806641 28.06830024719238 85.08217620849609 C 22.88852500915527 82.89131164550781 18.23629951477051 79.75458526611328 14.2408504486084 75.75914764404297 C 10.24541282653809 71.76370239257812 7.108687400817871 67.11147308349609 4.917825222015381 61.93170166015625 C 2.649924993515015 56.56977462768555 1.5 50.87312316894531 1.5 45 C 1.5 39.12687683105469 2.649924993515015 33.43022537231445 4.917825222015381 28.06830024719238 C 7.108687400817871 22.88852500915527 10.24541282653809 18.23629951477051 14.2408504486084 14.2408504486084 C 18.23629951477051 10.24541282653809 22.88852500915527 7.108687400817871 28.06830024719238 4.917825222015381 C 33.43022537231445 2.649924993515015 39.12687683105469 1.5 45 1.5 C 50.87312316894531 1.5 56.56977462768555 2.649924993515015 61.93170166015625 4.917825222015381 C 67.11147308349609 7.108687400817871 71.76370239257812 10.24541282653809 75.75914764404297 14.2408504486084 C 79.75458526611328 18.23629951477051 82.89131164550781 22.88852500915527 85.08217620849609 28.06830024719238 C 87.35007476806641 33.43022537231445 88.5 39.12687683105469 88.5 45 C 88.5 50.87312316894531 87.35007476806641 56.56977462768555 85.08217620849609 61.93170166015625 C 82.89131164550781 67.11147308349609 79.75458526611328 71.76370239257812 75.75914764404297 75.75914764404297 C 71.76370239257812 79.75458526611328 67.11147308349609 82.89131164550781 61.93170166015625 85.08217620849609 C 56.56977462768555 87.35007476806641 50.87312316894531 88.5 45 88.5 Z" stroke="none"/>
                <path d="M 45 3 C 39.32871246337891 3 33.82865524291992 4.110054016113281 28.65262985229492 6.299339294433594 C 23.65165710449219 8.414573669433594 19.15968322753906 11.44334411621094 15.301513671875 15.301513671875 C 11.44334411621094 19.15968322753906 8.414573669433594 23.65165710449219 6.299339294433594 28.65262985229492 C 4.110054016113281 33.82865524291992 3 39.32871246337891 3 45 C 3 50.67128753662109 4.110054016113281 56.17134475708008 6.299339294433594 61.34737396240234 C 8.414573669433594 66.34834289550781 11.44334411621094 70.84031677246094 15.301513671875 74.698486328125 C 19.15968322753906 78.55665588378906 23.65165710449219 81.58542633056641 28.65262985229492 83.70066070556641 C 33.82865524291992 85.88994598388672 39.32871246337891 87 45 87 C 50.67128753662109 87 56.17134475708008 85.88994598388672 61.34737396240234 83.70066070556641 C 66.34834289550781 81.58542633056641 70.84031677246094 78.55665588378906 74.698486328125 74.698486328125 C 78.55665588378906 70.84031677246094 81.58542633056641 66.34834289550781 83.70066070556641 61.34737396240234 C 85.88994598388672 56.17134475708008 87 50.67128753662109 87 45 C 87 39.32871246337891 85.88994598388672 33.82865524291992 83.70066070556641 28.65262985229492 C 81.58542633056641 23.65165710449219 78.55665588378906 19.15968322753906 74.698486328125 15.301513671875 C 70.84031677246094 11.44334411621094 66.34834289550781 8.414573669433594 61.34737396240234 6.299339294433594 C 56.17134475708008 4.110054016113281 50.67128753662109 3 45 3 M 45 0 C 69.85281372070312 0 90 20.14718627929688 90 45 C 90 69.85281372070312 69.85281372070312 90 45 90 C 20.14718627929688 90 0 69.85281372070312 0 45 C 0 20.14718627929688 20.14718627929688 0 45 0 Z" stroke="none" fill="#6a7b7e"/>
              </g>
            </g>
          </g>
        </g>
      </g>
      <g id="tdah_1_" data-name="tdah (1)" transform="translate(161.863 1610.792)">
        <g id="Group_1153980" data-name="Group 1153980" transform="translate(68.197 1.031)">
          <g id="Group_1153970" data-name="Group 1153970" transform="translate(1.922)">
            <path id="Path_989329" data-name="Path 989329" d="M163.93,11.01l-2.9-2.9a2.069,2.069,0,0,0-2.926,0,2.07,2.07,0,0,0-.138,2.774,21.55,21.55,0,0,0-17.009,21.038l2.035,1.65,2.1-1.65A17.406,17.406,0,0,1,157.5,15.268a2.068,2.068,0,0,0,3.527,1.573c3.315-3.315,2.873-2.873,2.911-2.911A2.069,2.069,0,0,0,163.93,11.01Z" transform="translate(-133.759 -7.5)" fill="#70dcba"/>
            <path id="Path_989330" data-name="Path 989330" d="M94.939,42.943a2.065,2.065,0,0,0-3.371-2.233l-2.321,2.321a2.063,2.063,0,0,0,0,2.917l2.321,2.321a2.063,2.063,0,0,0,3.469-1,13.5,13.5,0,0,1,9.147,12.764l1.86,1.375,2.266-1.375A17.634,17.634,0,0,0,94.939,42.943Z" transform="translate(-88.643 -35.613)" fill="#fce3a0"/>
            <g id="Group_1153969" data-name="Group 1153969" transform="translate(23.018 10.653)">
              <path id="Path_989331" data-name="Path 989331" d="M261.854,110.84a2.064,2.064,0,0,0-2.918,0l-2.321,2.321a2.061,2.061,0,0,0,1.717,3.5v3.86l1.973,1.375,2.153-1.375v-3.86a2.081,2.081,0,0,0,.258.018,2.063,2.063,0,0,0,1.459-3.522Z" transform="translate(-256.011 -106.76)" fill="#55dafe"/>
              <path id="Path_989332" data-name="Path 989332" d="M354.728,88.313l-2.75-2.75a2.063,2.063,0,0,0-2.917,2.917l.048.048a11.03,11.03,0,0,0-6.853,10.2l2.312,1.375,1.813-1.375a6.873,6.873,0,0,1,2.351-5.176,2.06,2.06,0,0,0,3.247.434l2.75-2.75A2.066,2.066,0,0,0,354.728,88.313Z" transform="translate(-330.394 -84.958)" fill="#ff8e9e"/>
            </g>
          </g>
          <g id="Group_1153972" data-name="Group 1153972" transform="translate(8.721 49.659)">
            <g id="Group_1153971" data-name="Group 1153971" transform="translate(0 2.042)">
              <path id="Path_989333" data-name="Path 989333" d="M213.97,384.395a16.591,16.591,0,0,0-5.6-.969l-7.574,3.2v13.451h20.331a3.436,3.436,0,0,0,3.324-4.321A16.725,16.725,0,0,0,213.97,384.395Z" transform="translate(-192.173 -383.426)" fill="#70dcba"/>
              <path id="Path_989334" data-name="Path 989334" d="M158.811,384.054a16.652,16.652,0,0,0-20.617,11.7,3.437,3.437,0,0,0,3.323,4.325H146.7a16.539,16.539,0,0,1,1.977-7.854h0A16.73,16.73,0,0,1,158.811,384.054Z" transform="translate(-138.074 -383.425)" fill="#30cd9c"/>
            </g>
            <path id="Path_989335" data-name="Path 989335" d="M220.766,368.578l-5.6,3.011a11.6,11.6,0,0,0,5.6,6.036,11.6,11.6,0,0,0,5.6-6.036Z" transform="translate(-204.565 -368.578)" fill="#ffcbbe"/>
          </g>
          <g id="Group_1153975" data-name="Group 1153975" transform="translate(0 24.418)">
            <g id="Group_1153973" data-name="Group 1153973" transform="translate(0 4.126)">
              <circle id="Ellipse_11710" data-name="Ellipse 11710" cx="4.962" cy="4.962" r="4.962" fill="#ffcbbe"/>
              <circle id="Ellipse_11711" data-name="Ellipse 11711" cx="4.962" cy="4.962" r="4.962" transform="translate(39.919)" fill="#ffcbbe"/>
            </g>
            <g id="Group_1153974" data-name="Group 1153974" transform="translate(4.962)">
              <path id="Path_989336" data-name="Path 989336" d="M149.467,187.315a3.442,3.442,0,0,0-3.233-2.267H119.547l-8.8,9.088,12.962,16.527a8.251,8.251,0,0,0,6.493,3.158h3.813a19.976,19.976,0,0,0,15.455-26.507Z" transform="translate(-110.745 -185.048)" fill="#ffddcf"/>
              <path id="Path_989337" data-name="Path 989337" d="M117.361,194.136a19.873,19.873,0,0,1,2.185-9.088h-4.372a3.442,3.442,0,0,0-3.234,2.267,19.973,19.973,0,0,0,22.071,26.507A19.965,19.965,0,0,1,117.361,194.136Z" transform="translate(-110.745 -185.048)" fill="#ffcbbe"/>
            </g>
          </g>
          <g id="Group_1153979" data-name="Group 1153979" transform="translate(9.943 36.404)">
            <g id="Group_1153978" data-name="Group 1153978">
              <g id="Group_1153976" data-name="Group 1153976">
                <ellipse id="Ellipse_11712" data-name="Ellipse 11712" cx="4.037" cy="3.215" rx="4.037" ry="3.215" fill="#ff8e9e"/>
              </g>
              <g id="Group_1153977" data-name="Group 1153977" transform="translate(21.883)">
                <ellipse id="Ellipse_11713" data-name="Ellipse 11713" cx="4.037" cy="3.215" rx="4.037" ry="3.215" fill="#ff8e9e"/>
              </g>
            </g>
          </g>
        </g>
        <g id="Group_1153981" data-name="Group 1153981" transform="translate(67.166 0)">
          <path id="Path_989338" data-name="Path 989338" d="M113.243,28.549c-.53-1.765-1.184-3.454-3.018-3.981a5.862,5.862,0,0,1,1.238-2.8,3.1,3.1,0,0,0,3.988-.333l2.75-2.75a3.1,3.1,0,0,0,0-4.377l-2.75-2.75a3.091,3.091,0,0,0-5.088,3.255,12,12,0,0,0-6.35,9.6h-3.4V22.544a3.1,3.1,0,0,0,1.415-5.187L99.71,15.035a3.093,3.093,0,0,0-4.376,0l-2.321,2.321a3.1,3.1,0,0,0,1.415,5.187v1.874H90.789a18.382,18.382,0,0,0-3.776-10.241,16.342,16.342,0,0,1,6.068-4.027,3.1,3.1,0,0,0,5.035.952l2.922-2.923a3.1,3.1,0,0,0-.017-4.367l-2.9-2.9A3.1,3.1,0,0,0,92.882,3.7a22.747,22.747,0,0,0-10.4,6.236,18.663,18.663,0,0,0-4.877-2.317c0-.02,0-.04,0-.06A3.106,3.106,0,0,0,72.316,5.4L69.995,7.721a3.093,3.093,0,0,0,0,4.376l2.321,2.321a3.1,3.1,0,0,0,4.733-.425,12.45,12.45,0,0,1,1.831.967A22.5,22.5,0,0,0,76.3,24.513a4.106,4.106,0,0,0-2.918,2.851q-.214.589-.392,1.185a5.991,5.991,0,0,0,0,11.977,21.138,21.138,0,0,0,11.765,13.28,17.7,17.7,0,0,0-3.507,2.483,1.031,1.031,0,1,0,1.386,1.528,15.585,15.585,0,0,1,4.338-2.792,12.94,12.94,0,0,0,5.659,5.623,1.032,1.032,0,0,0,.973,0,12.934,12.934,0,0,0,5.657-5.623A15.655,15.655,0,0,1,108.2,65.331a2.4,2.4,0,0,1-2.329,3.021h-1.951V63.284a1.031,1.031,0,1,0-2.063,0v5.068H84.376V63.284a1.031,1.031,0,1,0-2.063,0v5.068H80.361a2.4,2.4,0,0,1-2.327-3.025,15.527,15.527,0,0,1,2.081-4.585A1.032,1.032,0,0,0,78.4,59.6a17.588,17.588,0,0,0-2.357,5.193,4.467,4.467,0,0,0,4.319,5.625h25.515a4.465,4.465,0,0,0,4.32-5.621,17.716,17.716,0,0,0-8.72-10.991,21.161,21.161,0,0,0,11.778-13.278,5.991,5.991,0,0,0-.01-11.977ZM72.474,38.41a3.932,3.932,0,0,1,0-7.745A20.657,20.657,0,0,0,72.474,38.41Zm39.769-22.2a1.032,1.032,0,0,0,.339-1.684,1.033,1.033,0,1,1,1.411-1.507l2.75,2.75a1.034,1.034,0,0,1,0,1.459l-2.75,2.75a1.031,1.031,0,0,1-1.744-.55,1.031,1.031,0,0,0-2.03.369c.013.071.03.141.048.211a7.929,7.929,0,0,0-2.105,4.411h-2.078a9.956,9.956,0,0,1,6.16-8.21ZM94.471,18.816l2.321-2.322a1.031,1.031,0,0,1,1.459,0l2.321,2.321a1.031,1.031,0,0,1-.86,1.751,1.032,1.032,0,0,0-1.159,1.023v2.828H96.491V21.59a1.032,1.032,0,0,0-1.16-1.023A1.03,1.03,0,0,1,94.471,18.816Zm.067-13.4a1.032,1.032,0,0,0,.582-1.663,1.038,1.038,0,0,1,.813-1.694,1.063,1.063,0,0,1,.724.3l2.72,2.714a1.308,1.308,0,0,1,.166,1.677c-.071.074-2.808,2.808-2.886,2.886a1.037,1.037,0,0,1-1.768-.79,1.032,1.032,0,0,0-1.326-1.042,18.373,18.373,0,0,0-7.9,4.792,18.762,18.762,0,0,0-1.515-1.42A20.62,20.62,0,0,1,94.538,5.42ZM76.846,11.709a1.032,1.032,0,0,0-1.338.75,1.031,1.031,0,0,1-1.733.5l-2.334-2.346a.9.9,0,0,1-.29-.7,1.025,1.025,0,0,1,.3-.729l2.321-2.321A1.033,1.033,0,0,1,75.46,7.975a1.032,1.032,0,0,0,.708,1.388A16.57,16.57,0,0,1,88.723,24.418H86.656a14.516,14.516,0,0,0-9.809-12.709Zm7.739,12.709H82.517a16.073,16.073,0,0,1,.883-4.36A12.409,12.409,0,0,1,84.585,24.418Zm-4.041-8.187a12.465,12.465,0,0,1,1.513,1.643,18.127,18.127,0,0,0-1.607,6.544H78.374a20.438,20.438,0,0,1,2.169-8.187ZM94.906,53.384a1.031,1.031,0,1,0,.19,2.054q.845-.078,1.675-.225a11.178,11.178,0,0,1-3.652,3.342,11.189,11.189,0,0,1-3.654-3.341q.648.113,1.307.186A1.031,1.031,0,1,0,91,53.35,18.9,18.9,0,0,1,75.325,28.069c.512-1.407,1.258-1.588,1.852-1.588h31.948c.628,0,1.28.192,1.788,1.588A18.967,18.967,0,0,1,94.906,53.384Zm18.865-14.975a20.649,20.649,0,0,0-.009-7.743,3.932,3.932,0,0,1,.009,7.743Z" transform="translate(-67.166 0)"/>
          <path id="Path_989339" data-name="Path 989339" d="M311.853,253.572a1.031,1.031,0,0,0-1.031,1.031v1.65a1.031,1.031,0,1,0,2.063,0V254.6A1.031,1.031,0,0,0,311.853,253.572Z" transform="translate(-277.312 -218.698)"/>
          <path id="Path_989340" data-name="Path 989340" d="M178.292,240.717a2,2,0,0,1-2.023,0,1.031,1.031,0,0,0-1.063,1.768,4.012,4.012,0,0,0,1.143.463,1.025,1.025,0,0,0-.1.441v1.65a1.031,1.031,0,1,0,2.063,0v-1.65a1.025,1.025,0,0,0-.1-.441,4.012,4.012,0,0,0,1.143-.463,1.031,1.031,0,0,0-1.062-1.768Z" transform="translate(-159.916 -207.484)"/>
          <path id="Path_989341" data-name="Path 989341" d="M237.859,268.981a13.719,13.719,0,0,0-4.885-.684h-.034a1.032,1.032,0,1,0,.032,2.063,12.217,12.217,0,0,1,4.107.531,1.031,1.031,0,0,0,.781-1.909Z" transform="translate(-209.252 -231.398)"/>
        </g>
      </g>
    </g>
  </g>
</svg>
