<svg xmlns="http://www.w3.org/2000/svg" xmlns:xlink="http://www.w3.org/1999/xlink" width="108" height="108" viewBox="0 0 108 108">
  <defs>
    <filter id="Path_982547" x="0" y="0" width="108" height="108" filterUnits="userSpaceOnUse">
      <feOffset dy="3" input="SourceAlpha"/>
      <feGaussianBlur stdDeviation="3" result="blur"/>
      <feFlood flood-opacity="0.161"/>
      <feComposite operator="in" in2="blur"/>
      <feComposite in="SourceGraphic"/>
    </filter>
  </defs>
  <g id="Group_1154137" data-name="Group 1154137" transform="translate(-201 -1969)">
    <g id="Group_1154085" data-name="Group 1154085" transform="translate(0 592)">
      <g id="Group_1152623" data-name="Group 1152623" transform="translate(0 -4207)">
        <g id="Group_1151821" data-name="Group 1151821" transform="translate(210 5590)">
          <g id="Group_1146954" data-name="Group 1146954">
            <g transform="matrix(1, 0, 0, 1, -9, -6)" filter="url(#Path_982547)">
              <g id="Path_982547-2" data-name="Path 982547" transform="translate(9 6)" fill="#fff6f9">
                <path d="M 45 88.5 C 39.12687683105469 88.5 33.43022537231445 87.35007476806641 28.06830024719238 85.08217620849609 C 22.88852500915527 82.89131164550781 18.23629951477051 79.75458526611328 14.2408504486084 75.75914764404297 C 10.24541282653809 71.76370239257812 7.108687400817871 67.11147308349609 4.917825222015381 61.93170166015625 C 2.649924993515015 56.56977462768555 1.5 50.87312316894531 1.5 45 C 1.5 39.12687683105469 2.649924993515015 33.43022537231445 4.917825222015381 28.06830024719238 C 7.108687400817871 22.88852500915527 10.24541282653809 18.23629951477051 14.2408504486084 14.2408504486084 C 18.23629951477051 10.24541282653809 22.88852500915527 7.108687400817871 28.06830024719238 4.917825222015381 C 33.43022537231445 2.649924993515015 39.12687683105469 1.5 45 1.5 C 50.87312316894531 1.5 56.56977462768555 2.649924993515015 61.93170166015625 4.917825222015381 C 67.11147308349609 7.108687400817871 71.76370239257812 10.24541282653809 75.75914764404297 14.2408504486084 C 79.75458526611328 18.23629951477051 82.89131164550781 22.88852500915527 85.08217620849609 28.06830024719238 C 87.35007476806641 33.43022537231445 88.5 39.12687683105469 88.5 45 C 88.5 50.87312316894531 87.35007476806641 56.56977462768555 85.08217620849609 61.93170166015625 C 82.89131164550781 67.11147308349609 79.75458526611328 71.76370239257812 75.75914764404297 75.75914764404297 C 71.76370239257812 79.75458526611328 67.11147308349609 82.89131164550781 61.93170166015625 85.08217620849609 C 56.56977462768555 87.35007476806641 50.87312316894531 88.5 45 88.5 Z" stroke="none"/>
                <path d="M 45 3 C 39.32871246337891 3 33.82865524291992 4.110054016113281 28.65262985229492 6.299339294433594 C 23.65165710449219 8.414573669433594 19.15968322753906 11.44334411621094 15.301513671875 15.301513671875 C 11.44334411621094 19.15968322753906 8.414573669433594 23.65165710449219 6.299339294433594 28.65262985229492 C 4.110054016113281 33.82865524291992 3 39.32871246337891 3 45 C 3 50.67128753662109 4.110054016113281 56.17134475708008 6.299339294433594 61.34737396240234 C 8.414573669433594 66.34834289550781 11.44334411621094 70.84031677246094 15.301513671875 74.698486328125 C 19.15968322753906 78.55665588378906 23.65165710449219 81.58542633056641 28.65262985229492 83.70066070556641 C 33.82865524291992 85.88994598388672 39.32871246337891 87 45 87 C 50.67128753662109 87 56.17134475708008 85.88994598388672 61.34737396240234 83.70066070556641 C 66.34834289550781 81.58542633056641 70.84031677246094 78.55665588378906 74.698486328125 74.698486328125 C 78.55665588378906 70.84031677246094 81.58542633056641 66.34834289550781 83.70066070556641 61.34737396240234 C 85.88994598388672 56.17134475708008 87 50.67128753662109 87 45 C 87 39.32871246337891 85.88994598388672 33.82865524291992 83.70066070556641 28.65262985229492 C 81.58542633056641 23.65165710449219 78.55665588378906 19.15968322753906 74.698486328125 15.301513671875 C 70.84031677246094 11.44334411621094 66.34834289550781 8.414573669433594 61.34737396240234 6.299339294433594 C 56.17134475708008 4.110054016113281 50.67128753662109 3 45 3 M 45 0 C 69.85281372070312 0 90 20.14718627929688 90 45 C 90 69.85281372070312 69.85281372070312 90 45 90 C 20.14718627929688 90 0 69.85281372070312 0 45 C 0 20.14718627929688 20.14718627929688 0 45 0 Z" stroke="none" fill="#ffaece"/>
              </g>
            </g>
          </g>
        </g>
      </g>
      <g id="tdah" transform="translate(224 1397)">
        <g id="Group_1153967" data-name="Group 1153967" transform="translate(0.897 0.895)">
          <path id="Path_989321" data-name="Path 989321" d="M247.02,30.081c3.261-5.748-.289-12.844-7.122-14.247C238.378,6.92,225.842,4.417,220.527,12h-4.771V52.779h25.885l5.384-8.605A9.424,9.424,0,0,0,247.02,30.081Z" transform="translate(-190.924 -7.506)" fill="#c9aaf2"/>
          <g id="Group_1153965" data-name="Group 1153965" transform="translate(0 0.001)">
            <path id="Path_989322" data-name="Path 989322" d="M68.735,40.273a4.869,4.869,0,0,0-6.473-4.239,1.386,1.386,0,0,1-1.846-1.31V18.532a10.349,10.349,0,0,0-4.426-3.612H51L33.966,36.664l5.981,12.363L50.18,53.8l10.243-4.77V46.508A1.38,1.38,0,0,1,62.258,45.2a4.864,4.864,0,0,0,6.476-4.924Z" transform="translate(-30.813 -14.037)" fill="#ffb5c0"/>
            <path id="Path_989323" data-name="Path 989323" d="M32.7,8.4c-5.958-2.555-13.813.587-14.945,7.488-6.861,1.394-10.314,8.564-7.078,14.256a9.419,9.419,0,0,0,.02,14.083L23.23,42.507a44.875,44.875,0,0,1-.273-9.835,6.412,6.412,0,0,0,1.5-8.338A44.1,44.1,0,0,1,32.7,8.4Z" transform="translate(-7.522 -7.518)" fill="#ff8e9e"/>
          </g>
          <g id="Group_1153966" data-name="Group 1153966" transform="translate(1.955 26.682)">
            <path id="Path_989324" data-name="Path 989324" d="M153.151,239.562h-2.518a1.367,1.367,0,0,1-1.311-1.82,4.861,4.861,0,1,0-9.163,0,1.422,1.422,0,0,1-.909,1.823v22.922h10.478a10.273,10.273,0,0,0,3.446-3.161l4.77-7.827Z" transform="translate(-125.497 -231.253)" fill="#70dcba"/>
            <path id="Path_989325" data-name="Path 989325" d="M25.136,302.648c-3.241,5.729.271,12.856,7.141,14.256,1.255,7.246,9.877,10.289,15.872,6.945a44.26,44.26,0,0,1-10.478-22.922H28.083a3.417,3.417,0,0,0-2.947,1.721Z" transform="translate(-23.918 -292.618)" fill="#30cd9c"/>
          </g>
          <path id="Path_989326" data-name="Path 989326" d="M220.951,302.605l-.01-.018a3.337,3.337,0,0,0-2.912-1.659h-9.251a1.38,1.38,0,0,0-1.31,1.839,4.861,4.861,0,1,1-9.163,0,1.38,1.38,0,0,0-1.311-1.836H194.46l.024,2.534a1.386,1.386,0,0,1-1.844,1.311,4.861,4.861,0,1,0,0,9.163,1.386,1.386,0,0,1,1.846,1.31v5.442c5.33,7.664,17.91,5.015,19.37-3.834,6.815-1.418,10.36-8.5,7.1-14.249Z" transform="translate(-164.85 -265.937)" fill="#ffce71"/>
        </g>
        <path id="Path_989327" data-name="Path 989327" d="M61.056,30.523a10.318,10.318,0,0,0-2.961-7.229A10.142,10.142,0,0,0,56.968,12.64a.889.889,0,1,0-1.416,1.076,8.425,8.425,0,0,1,.663,9.31,7.158,7.158,0,0,1-11.423,1.837,5.5,5.5,0,0,1,0-7.778c2.536-2.536,6.907-.856,6.907,2.261a3.176,3.176,0,0,1-.913,2.237.922.922,0,0,0-.054,1.258.9.9,0,0,0,1.295.032,4.954,4.954,0,0,0,1.461-3.526c0-4.732-6.322-7.164-9.96-3.526a7.284,7.284,0,0,0,0,10.308A8.9,8.9,0,0,0,57.137,24.9a8.479,8.479,0,0,1-.061,11.309,4.282,4.282,0,0,0-3-1.217h-9.25a2.276,2.276,0,0,0-2.152,3.033,3.967,3.967,0,1,1-7.477,0,2.275,2.275,0,0,0-2.154-3.03H31.4V33.367a.487.487,0,0,1,.645-.468,5.755,5.755,0,1,0,0-10.847.492.492,0,0,1-.653-.467V5.682C36.349-.965,47.617,1.331,48.989,9.374a.894.894,0,0,0,.7.726,10.147,10.147,0,0,1,3.465,1.4.889.889,0,1,0,.971-1.488,11.836,11.836,0,0,0-3.492-1.525C48.616-.353,36.5-2.984,30.5,3.94,24.482-3.009,12.33-.311,10.362,8.526,3.456,10.28.1,17.463,2.949,23.347a10.279,10.279,0,0,0,.02,14.433c-2.83,5.876.517,13.055,7.481,14.82,2.03,8.773,14.091,11.469,20.081,4.5,5.995,6.957,18.165,4.263,20.136-4.554,6.726-1.752,10.357-8.76,7.433-14.81a10.3,10.3,0,0,0,2.956-7.212ZM3.907,24.951A8.9,8.9,0,0,0,17.515,26.18a7.284,7.284,0,0,0,0-10.307c-3.65-3.65-9.96-1.188-9.96,3.526a4.954,4.954,0,0,0,1.461,3.526A.894.894,0,0,0,10.28,21.66,3.177,3.177,0,0,1,9.343,19.4c0-3.119,4.373-4.795,6.907-2.261a5.5,5.5,0,0,1,0,7.778A7.155,7.155,0,0,1,4.828,23.079c-2.909-5.117.152-11.651,6.479-12.936a.894.894,0,0,0,.7-.732c1.31-7.99,12.618-10.448,17.6-3.728v15.9a2.282,2.282,0,0,0,3.04,2.152,3.967,3.967,0,1,1,0,7.477,2.277,2.277,0,0,0-3.033,2.159V34.99H27.99a.474.474,0,0,1-.468-.626,5.755,5.755,0,1,0-10.848,0,.537.537,0,0,1-.234.63H7.02a4.289,4.289,0,0,0-3.028,1.26,8.471,8.471,0,0,1-.084-11.3Zm25.729,30.4c-4.947,6.744-16.146,4.294-17.539-3.618a2.349,2.349,0,0,1,2.032-2.61,1.7,1.7,0,0,1,1.9,1.47.894.894,0,0,0,1,.774c1.849-.236.18-4.44-3.126-4.018a4.142,4.142,0,0,0-3.547,3.369C4.634,48.939,2.137,42.81,4.85,38.048a2.538,2.538,0,0,1,2.17-1.269h9.588a2.149,2.149,0,0,0,1.629-1.195,2.321,2.321,0,0,0,.123-1.822,3.967,3.967,0,1,1,7.477,0,2.262,2.262,0,0,0,2.154,3.014h1.643v1.64a.487.487,0,0,1-.645.468,5.755,5.755,0,1,0,0,10.847.492.492,0,0,1,.653.467ZM50.755,50.66A4.133,4.133,0,0,0,47.208,47.3a3.49,3.49,0,0,0-3.9,3.018.894.894,0,0,0,1.774.226,1.7,1.7,0,0,1,1.9-1.47,2.33,2.33,0,0,1,2.032,2.611c-1.152,7.966-12.629,10.415-17.588,3.67V50.2a2.281,2.281,0,0,0-3.04-2.152,3.967,3.967,0,1,1,0-7.477,2.277,2.277,0,0,0,3.033-2.159V36.779h1.621a.485.485,0,0,1,.468.642,5.755,5.755,0,1,0,10.848,0,.486.486,0,0,1,.467-.646h9.25A2.452,2.452,0,0,1,56.222,38c2.722,4.8.2,10.872-5.467,12.657Z"/>
      </g>
    </g>
  </g>
</svg>
