<svg xmlns="http://www.w3.org/2000/svg" xmlns:xlink="http://www.w3.org/1999/xlink" width="108" height="108" viewBox="0 0 108 108">
  <defs>
    <filter id="Path_982547" x="0" y="0" width="108" height="108" filterUnits="userSpaceOnUse">
      <feOffset dy="3" input="SourceAlpha"/>
      <feGaussianBlur stdDeviation="3" result="blur"/>
      <feFlood flood-opacity="0.161"/>
      <feComposite operator="in" in2="blur"/>
      <feComposite in="SourceGraphic"/>
    </filter>
  </defs>
  <g id="Group_1154106" data-name="Group 1154106" transform="translate(-203 -6355)">
    <g id="Group_1153875" data-name="Group 1153875" transform="translate(0 81)">
      <g id="Group_1152580" data-name="Group 1152580" transform="translate(2 690)">
        <g id="Group_1151821" data-name="Group 1151821" transform="translate(210 5590)">
          <g id="Group_1146954" data-name="Group 1146954">
            <g transform="matrix(1, 0, 0, 1, -9, -6)" filter="url(#Path_982547)">
              <g id="Path_982547-2" data-name="Path 982547" transform="translate(9 6)" fill="#fffbf8">
                <path d="M 45 88.5 C 39.12687683105469 88.5 33.43022537231445 87.35007476806641 28.06830024719238 85.08217620849609 C 22.88852500915527 82.89131164550781 18.23629951477051 79.75458526611328 14.2408504486084 75.75914764404297 C 10.24541282653809 71.76370239257812 7.108687400817871 67.11147308349609 4.917825222015381 61.93170166015625 C 2.649924993515015 56.56977462768555 1.5 50.87312316894531 1.5 45 C 1.5 39.12687683105469 2.649924993515015 33.43022537231445 4.917825222015381 28.06830024719238 C 7.108687400817871 22.88852500915527 10.24541282653809 18.23629951477051 14.2408504486084 14.2408504486084 C 18.23629951477051 10.24541282653809 22.88852500915527 7.108687400817871 28.06830024719238 4.917825222015381 C 33.43022537231445 2.649924993515015 39.12687683105469 1.5 45 1.5 C 50.87312316894531 1.5 56.56977462768555 2.649924993515015 61.93170166015625 4.917825222015381 C 67.11147308349609 7.108687400817871 71.76370239257812 10.24541282653809 75.75914764404297 14.2408504486084 C 79.75458526611328 18.23629951477051 82.89131164550781 22.88852500915527 85.08217620849609 28.06830024719238 C 87.35007476806641 33.43022537231445 88.5 39.12687683105469 88.5 45 C 88.5 50.87312316894531 87.35007476806641 56.56977462768555 85.08217620849609 61.93170166015625 C 82.89131164550781 67.11147308349609 79.75458526611328 71.76370239257812 75.75914764404297 75.75914764404297 C 71.76370239257812 79.75458526611328 67.11147308349609 82.89131164550781 61.93170166015625 85.08217620849609 C 56.56977462768555 87.35007476806641 50.87312316894531 88.5 45 88.5 Z" stroke="none"/>
                <path d="M 45 3 C 39.32871246337891 3 33.82865524291992 4.110054016113281 28.65262985229492 6.299339294433594 C 23.65165710449219 8.414573669433594 19.15968322753906 11.44334411621094 15.301513671875 15.301513671875 C 11.44334411621094 19.15968322753906 8.414573669433594 23.65165710449219 6.299339294433594 28.65262985229492 C 4.110054016113281 33.82865524291992 3 39.32871246337891 3 45 C 3 50.67128753662109 4.110054016113281 56.17134475708008 6.299339294433594 61.34737396240234 C 8.414573669433594 66.34834289550781 11.44334411621094 70.84031677246094 15.301513671875 74.698486328125 C 19.15968322753906 78.55665588378906 23.65165710449219 81.58542633056641 28.65262985229492 83.70066070556641 C 33.82865524291992 85.88994598388672 39.32871246337891 87 45 87 C 50.67128753662109 87 56.17134475708008 85.88994598388672 61.34737396240234 83.70066070556641 C 66.34834289550781 81.58542633056641 70.84031677246094 78.55665588378906 74.698486328125 74.698486328125 C 78.55665588378906 70.84031677246094 81.58542633056641 66.34834289550781 83.70066070556641 61.34737396240234 C 85.88994598388672 56.17134475708008 87 50.67128753662109 87 45 C 87 39.32871246337891 85.88994598388672 33.82865524291992 83.70066070556641 28.65262985229492 C 81.58542633056641 23.65165710449219 78.55665588378906 19.15968322753906 74.698486328125 15.301513671875 C 70.84031677246094 11.44334411621094 66.34834289550781 8.414573669433594 61.34737396240234 6.299339294433594 C 56.17134475708008 4.110054016113281 50.67128753662109 3 45 3 M 45 0 C 69.85281372070312 0 90 20.14718627929688 90 45 C 90 69.85281372070312 69.85281372070312 90 45 90 C 20.14718627929688 90 0 69.85281372070312 0 45 C 0 20.14718627929688 20.14718627929688 0 45 0 Z" stroke="none" fill="#8b8379"/>
              </g>
            </g>
          </g>
        </g>
      </g>
      <g id="herramienta-de-escritura" transform="translate(225 6301.501)">
        <path id="Path_989061" data-name="Path 989061" d="M134.851,163.758h-2a4.836,4.836,0,0,0-2.785.883,5.651,5.651,0,0,1-2.7,1l-7.5.738-7.206-7.889L122.9,148.207h11.953v15.551Zm0,0" transform="translate(-98.499 -129.146)" fill="#e89776"/>
        <path id="Path_989062" data-name="Path 989062" d="M43.6,140.449l-8.278,3.457a1.021,1.021,0,0,0-.45.367l-4.694,6.869a.766.766,0,0,0,.138,1.017l.652.551a2.166,2.166,0,0,0,2.759.03l6.2-5.016,7.3-3.1Zm0,0" transform="translate(-26.271 -122.363)" fill="#e8916f"/>
        <path id="Path_989063" data-name="Path 989063" d="M31.71,43.895l-2.844-2.841a.5.5,0,0,1,0-.711L60.5,8.735a2.512,2.512,0,1,1,3.551,3.555L32.42,43.895a.5.5,0,0,1-.71,0Zm0,0" transform="translate(-25.11 -6.558)" fill="#50536e"/>
        <path id="Path_989064" data-name="Path 989064" d="M31.71,252.864l-2.844-2.841a.5.5,0,0,1,0-.711L31.176,247l3.555,3.551-2.311,2.309a.5.5,0,0,1-.71,0Zm0,0" transform="translate(-25.11 -215.527)" fill="#ffd659"/>
        <path id="Path_989065" data-name="Path 989065" d="M7.5,276.58c.57-4.739,2.877-5.025,2.877-5.025l2.71,2.708s-.285,2.3-5.029,2.874A.5.5,0,0,1,7.5,276.58Zm0,0" transform="translate(-6.557 -236.992)" fill="#d8d5ed"/>
        <path id="Path_989066" data-name="Path 989066" d="M114.109,91.777l-6.821-3.11a1.561,1.561,0,0,0-1.279-.007L95.555,93.28a1.571,1.571,0,0,0-.723,2.227,4.651,4.651,0,0,0,5.3,2.134l3.831-1.1a1.721,1.721,0,0,1,1.715.462l5.374,5.592a11.192,11.192,0,0,0,5.579,3.155l2.449.558v-14H116.6a6.009,6.009,0,0,1-2.492-.541Zm0,0" transform="translate(-82.728 -76.964)" fill="#ebad88"/>
        <path id="Path_989067" data-name="Path 989067" d="M298.644,126.164h-8.193a1.181,1.181,0,0,1-1.182-1.182V104.725a1.182,1.182,0,0,1,1.182-1.182h8.193a1.182,1.182,0,0,1,1.182,1.182v20.257A1.181,1.181,0,0,1,298.644,126.164Zm0,0" transform="translate(-252.917 -90.095)" fill="#d8d5ed"/>
        <path id="Path_989068" data-name="Path 989068" d="M337.637,103.543h-3.77a1.181,1.181,0,0,1,1.182,1.182v20.257a1.181,1.181,0,0,1-1.182,1.182h3.77a1.181,1.181,0,0,0,1.182-1.182V104.725A1.182,1.182,0,0,0,337.637,103.543Zm0,0" transform="translate(-291.91 -90.094)" fill="#bebade"/>
        <path id="Path_989069" data-name="Path 989069" d="M162.573,269.189a2.721,2.721,0,0,1-2.389,3.018l-2.323.27a2.148,2.148,0,0,1-2.382-1.885l-.132-1.134a2.148,2.148,0,0,1,1.886-2.382l2.329-.27a2.715,2.715,0,0,1,3.011,2.384Zm0,0" transform="translate(-135.813 -232.823)" fill="#e8a67d"/>
        <path id="Path_989070" data-name="Path 989070" d="M129.851,241.612a2.722,2.722,0,0,1-2.389,3.018l-4.5.523a2.148,2.148,0,0,1-2.382-1.886l-.132-1.133a2.148,2.148,0,0,1,1.886-2.382l4.505-.524A2.716,2.716,0,0,1,129.851,241.612Zm0,0" transform="translate(-105.3 -208.712)" fill="#e8ab86"/>
        <path id="Path_989071" data-name="Path 989071" d="M108.438,212.245a2.722,2.722,0,0,1-2.389,3.018l-4.5.523a2.148,2.148,0,0,1-2.382-1.885l-.132-1.134a2.148,2.148,0,0,1,1.886-2.382l4.505-.524A2.716,2.716,0,0,1,108.438,212.245Zm0,0" transform="translate(-86.577 -183.035)" fill="#ebad88"/>
        <path id="Path_989072" data-name="Path 989072" d="M373.27,118.7h16.491v19.259H373.27Zm0,0" transform="translate(-326.362 -103.349)" fill="#ff2c5c"/>
        <path id="Path_989073" data-name="Path 989073" d="M474.5,118.7h3.77v19.259H474.5Zm0,0" transform="translate(-414.87 -103.349)" fill="#e62753"/>
        <path id="Path_989074" data-name="Path 989074" d="M68.072,333.77H9.385a1.885,1.885,0,1,1,0-3.77H68.072a1.885,1.885,0,1,1,0,3.77Zm0,0" transform="translate(-6.557 -288.093)" fill="#ffd659"/>
        <path id="Path_989075" data-name="Path 989075" d="M463.27,330H459.5a1.885,1.885,0,1,1,0,3.77h3.77a1.885,1.885,0,1,0,0-3.77Zm0,0" transform="translate(-401.755 -288.093)" fill="#ffbd54"/>
        <path id="Path_989076" data-name="Path 989076" d="M319.77,143.885A1.885,1.885,0,1,1,317.885,142,1.885,1.885,0,0,1,319.77,143.885Zm0,0" transform="translate(-276.289 -123.719)" fill="#ff2c5c"/>
        <path id="Path_989077" data-name="Path 989077" d="M63.4,14.41H60.3a.943.943,0,1,0,0,1.885h2.157V33.669H47.852v-6.12H55.61a.943.943,0,0,0,0-1.885H47.852V16.295H56.28a.943.943,0,1,0,0-1.885H47.841A2.127,2.127,0,0,0,45.728,12.5H37.535a2.127,2.127,0,0,0-2.113,1.905H33.874a5.024,5.024,0,0,1-1.909-.375L39.611,6.4a3.455,3.455,0,0,0-4.884-4.887l-9.478,9.47-.3-.135a2.508,2.508,0,0,0-2.051-.012L12.448,15.452a2.514,2.514,0,0,0-1.157,3.563c.091.157.189.306.293.451L8.7,20.672a1.968,1.968,0,0,0-.869.7l-4.694,6.87a1.705,1.705,0,0,0,.308,2.268l.653.552a3.065,3.065,0,0,0,.638.413l-1.64,1.639c-.016.016-.029.032-.044.048s-.037.039-.054.06l-.023.03c-.022.028-.044.057-.064.087l0,0a1.424,1.424,0,0,0-.231.679c-.948.583-2.247,2-2.662,5.448A1.446,1.446,0,0,0,1.443,41.09a1.486,1.486,0,0,0,.174-.01c3.45-.414,4.87-1.712,5.452-2.66A1.439,1.439,0,0,0,7.979,38l2.311-2.309.011-.013L12.887,33.1a3.089,3.089,0,0,0,1.344.567l.116,1A3.091,3.091,0,0,0,17.408,37.4a3.147,3.147,0,0,0,.365-.022l.889-.1.07.6A3.092,3.092,0,0,0,21.8,40.611a3.24,3.24,0,0,0,.363-.021l2.321-.27a3.669,3.669,0,0,0,3.132-2.75l1.344-.132a6.595,6.595,0,0,0,3.154-1.172,3.875,3.875,0,0,1,2.242-.711h1.167a2.127,2.127,0,0,0,2.015,1.457h8.193a2.127,2.127,0,0,0,2.015-1.457H63.4a.943.943,0,0,0,.943-.943V15.352a.943.943,0,0,0-.943-.943ZM36.06,2.842a1.57,1.57,0,1,1,2.219,2.22L30.13,13.2l-3.049-1.391ZM5.31,29.626l-.531-.449,4.6-6.734a.088.088,0,0,1,.038-.031l3.65-1.524a5.6,5.6,0,0,0,1.557.7l-4.164,4.161a.942.942,0,1,0,1.332,1.333l5.4-5.392q.238-.046.474-.113l3.832-1.1a.777.777,0,0,1,.776.21l.176.183-5.186,5.182-3.025.352a3.091,3.091,0,0,0-2.713,3.427l.132,1.133a3.126,3.126,0,0,0,.121.568L9.622,33.695,7.4,31.476l1.55-1.548a.943.943,0,1,0-1.332-1.334l-1.3,1.3a1.228,1.228,0,0,1-1.009-.267Zm1.646,6.732-.695-.694L4.736,34.14l1.332-1.331,2.221,2.218ZM1.965,39.127C2.337,36.876,3.136,36,3.608,35.678l.413.413,1.4,1.4c-.327.471-1.2,1.269-3.453,1.641Zm11.563-8.372L13.4,29.622a1.206,1.206,0,0,1,1.058-1.337l3.331-.387h.006l1.169-.136a1.834,1.834,0,0,1,.206-.012,1.777,1.777,0,0,1,.2,3.542l-4.5.523a1.208,1.208,0,0,1-1.337-1.058ZM17.554,35.5a1.2,1.2,0,0,1-1.335-1.058l-.1-.88,3.466-.4a3.64,3.64,0,0,0,2.45-1.365,3.686,3.686,0,0,0,.222-.313,1.777,1.777,0,0,1-.2,3.5Zm6.709,2.943-2.322.27A1.205,1.205,0,0,1,20.6,37.658l-.07-.6,1.739-.2a3.641,3.641,0,0,0,2.45-1.365,3.769,3.769,0,0,0,.238-.339,1.78,1.78,0,0,1,.866,1.328,1.9,1.9,0,0,1,.012.218,1.781,1.781,0,0,1-1.576,1.751Zm10.09-4.778a5.753,5.753,0,0,0-3.328,1.055,4.684,4.684,0,0,1-1.072.565,4.737,4.737,0,0,1-1.181.272l-1.19.117a3.667,3.667,0,0,0-2.07-2.358,3.66,3.66,0,0,0-2.693-3.636,3.66,3.66,0,0,0-2.8-3.718l3.731-3.728,3.891,4.05a12.268,12.268,0,0,0,.918.861.943.943,0,1,0,1.216-1.44,10.232,10.232,0,0,1-.775-.727l-5.374-5.593a2.658,2.658,0,0,0-2.654-.715l-3.831,1.1a3.706,3.706,0,0,1-4.226-1.7.629.629,0,0,1,.289-.891l10.454-4.621a.62.62,0,0,1,.507,0l6.821,3.11a6.9,6.9,0,0,0,2.883.626h1.537V28.167l-1.3-.3a10.251,10.251,0,0,1-1.177-.344A.943.943,0,0,0,32.3,29.3a12.107,12.107,0,0,0,1.394.407l1.715.391v3.569Zm11.614,1.218a.239.239,0,0,1-.239.239H37.535a.239.239,0,0,1-.239-.239V14.629a.239.239,0,0,1,.239-.239h8.193a.239.239,0,0,1,.239.239Zm0,0" transform="translate(-0.002 0)"/>
        <path id="Path_989078" data-name="Path 989078" d="M61.515,322.5H2.828a2.828,2.828,0,0,0,0,5.655H61.515a2.828,2.828,0,1,0,0-5.655Zm0,3.77H2.828a.943.943,0,1,1,0-1.885H61.515a.943.943,0,1,1,0,1.885Zm0,0" transform="translate(0 -281.535)"/>
        <path id="Path_989079" data-name="Path 989079" d="M311.328,134.492a2.828,2.828,0,1,0,2.828,2.828A2.831,2.831,0,0,0,311.328,134.492Zm0,3.77a.943.943,0,1,1,.943-.942A.943.943,0,0,1,311.328,138.262Zm0,0" transform="translate(-269.731 -117.154)"/>
      </g>
    </g>
  </g>
</svg>
